<svg xmlns="http://www.w3.org/2000/svg" width="125.619" height="88.043" viewBox="0 0 125.619 88.043">
  <defs>
    <style>
      .cls-1, .cls-2 {
        fill: #fff;
      }

      .cls-2 {
        stroke: rgba(0,0,0,0);
        stroke-miterlimit: 10;
      }

      .cls-3 {
        fill: rgba(255,255,255,0.2);
      }

      .cls-4 {
        fill: #16527e;
      }
    </style>
  </defs>
  <g id="abcd" transform="translate(-1253.279 -490.715)">
    <path id="Path_23_00000011029484477388366120000013529367444394307766_" class="cls-1" d="M2.4.21A3.425,3.425,0,0,0,.222,4.658,3.711,3.711,0,0,0,4.9,6.735,3.437,3.437,0,0,0,7.089,2.286,3.725,3.725,0,0,0,2.4.21ZM4.6,5.969A2.842,2.842,0,0,1,1.016,4.381,2.626,2.626,0,0,1,2.687.976,2.842,2.842,0,0,1,6.268,2.563,2.629,2.629,0,0,1,4.6,5.969Z" transform="matrix(0.985, -0.174, 0.174, 0.985, 1285.071, 559.972)"/>
    <path id="Path_25_00000152975302445332575960000002208895042767718292_" class="cls-1" d="M105.49,23.309a.488.488,0,0,0,.5-.472h0V20.749a.488.488,0,0,0-.5-.472.5.5,0,0,0-.5.472V22.83a.48.48,0,0,0,.5.479Zm0-7.208a.488.488,0,0,0,.5-.472V13.542a.5.5,0,0,0-1,0V15.63a.488.488,0,0,0,.5.472Zm2.255,3.566a.516.516,0,0,0-.708,0,.461.461,0,0,0,0,.673l1.547,1.478a.516.516,0,0,0,.708-.028.465.465,0,0,0,0-.645Zm-4.509-2.955a.507.507,0,0,0,.7-.021.461.461,0,0,0,0-.652l-1.554-1.478a.516.516,0,0,0-.708,0,.461.461,0,0,0,0,.673h0Zm4.447,1.478a.483.483,0,0,0,.5.472h2.192a.472.472,0,1,0,0-.943h-2.192a.479.479,0,0,0-.5.472Zm-7.076.472H102.8a.472.472,0,1,0,0-.943h-2.2a.488.488,0,0,0-.5.472.494.494,0,0,0,.506.472Zm7.138-1.949,1.554-1.478a.462.462,0,0,0-.021-.673.518.518,0,0,0-.687,0l-1.547,1.478a.461.461,0,0,0,0,.673.507.507,0,0,0,.7,0Zm-4.509,2.948-1.547,1.478a.462.462,0,0,0-.021.673.514.514,0,0,0,.7.021l.021-.021,1.554-1.478a.461.461,0,0,0,0-.673.53.53,0,0,0-.708,0Z" transform="translate(1216.133 485.062)"/>
    <path id="Path_25_00000152975302445332575960000002208895042767718292_2" data-name="Path_25_00000152975302445332575960000002208895042767718292_" class="cls-1" d="M103.687,19.884a.325.325,0,0,0,.332-.314h0v-1.39a.324.324,0,0,0-.332-.314.331.331,0,0,0-.332.314v1.385a.32.32,0,0,0,.332.319Zm0-4.8a.325.325,0,0,0,.332-.314v-1.39a.333.333,0,0,0-.665,0v1.39a.325.325,0,0,0,.332.314Zm1.5,2.373a.343.343,0,0,0-.471,0,.307.307,0,0,0,0,.448l1.029.983a.344.344,0,0,0,.471-.018.309.309,0,0,0,0-.429Zm-3-1.967a.338.338,0,0,0,.466-.014.306.306,0,0,0,0-.434l-1.034-.983a.343.343,0,0,0-.471,0,.307.307,0,0,0,0,.448h0Zm2.959.983a.322.322,0,0,0,.332.314h1.459a.314.314,0,1,0,0-.628h-1.459a.319.319,0,0,0-.332.314Zm-4.709.314H101.9a.314.314,0,1,0,0-.628h-1.463a.325.325,0,0,0-.332.314.329.329,0,0,0,.337.314Zm4.75-1.3,1.034-.983a.307.307,0,0,0-.014-.448.345.345,0,0,0-.457,0l-1.029.983a.307.307,0,0,0,0,.448.337.337,0,0,0,.466,0Zm-3,1.962-1.03.983a.307.307,0,0,0-.014.448.342.342,0,0,0,.466.014l.014-.014,1.034-.983a.307.307,0,0,0,0-.448.353.353,0,0,0-.471,0Z" transform="translate(1241.986 545.344)"/>
    <g id="Group_14794" data-name="Group 14794" transform="translate(1264.53 501.015)">
      <path id="Subtraction_1" data-name="Subtraction 1" class="cls-2" d="M55.674,66.686A18.557,18.557,0,0,1,42.819,61.54a51.579,51.579,0,0,1-3.808-5.157c-5.441-7.271-9.465-7.382-13.724-7.5h-.042c-.278.009-.548.014-.8.014A24.441,24.441,0,0,1,6.425,7.937l.009-.008.009-.01L6.55,7.8l.043-.048c.052-.058.1-.117.164-.179A24.454,24.454,0,0,1,41.33,6.756a24.22,24.22,0,0,1,7.164,13.25,16.144,16.144,0,0,0,.43,1.773c.133.308.258.645.39,1a9.243,9.243,0,0,0,3.809,5.236,6.29,6.29,0,0,0,3.349,1.09,5.735,5.735,0,0,0,4.656-2.885,8.545,8.545,0,0,0,.667-2.039A15.662,15.662,0,0,1,65.74,15.95l.009-.01.009-.01.028-.03.022-.024c.028-.032.057-.062.087-.094l.016-.018.043-.046a15.716,15.716,0,0,1,27.1,11.31,2.017,2.017,0,0,0,.308,1.187,8.477,8.477,0,0,0,3.65,2.4A12.81,12.81,0,0,1,105.25,50.85l-1.111,1.374-1.776,1.47a12.694,12.694,0,0,1-4.976,2.132,12.986,12.986,0,0,1-2.46.237,12.825,12.825,0,0,1-11.256-6.691,20.548,20.548,0,0,1-1.564-4.288c-.244-1.22-1.936-2.251-3.694-2.251-1.007,0-3.41.369-3.986,3.784l-.011.065a6.883,6.883,0,0,0-.114.808,19,19,0,0,1-.055,2.124A18.632,18.632,0,0,1,55.674,66.686Zm.346-33A14.617,14.617,0,1,0,70.637,48.3,14.634,14.634,0,0,0,56.02,33.683Zm39.184,0a9.888,9.888,0,1,0,9.889,9.888A9.9,9.9,0,0,0,95.2,33.683ZM24.482,4.109A20.72,20.72,0,1,0,45.2,24.83,20.745,20.745,0,0,0,24.482,4.109ZM77.29,13.626A12.377,12.377,0,1,0,89.668,26,12.391,12.391,0,0,0,77.29,13.626Z"/>
      <g id="Group_14793" data-name="Group 14793" transform="translate(3.762 4.108)">
        <circle id="Ellipse_15" data-name="Ellipse 15" class="cls-3" cx="20.721" cy="20.721" r="20.721"/>
        <circle id="Ellipse_16" data-name="Ellipse 16" class="cls-3" cx="14.618" cy="14.618" r="14.618" transform="translate(37.64 29.575)"/>
        <circle id="Ellipse_17" data-name="Ellipse 17" class="cls-3" cx="12.377" cy="12.377" r="12.377" transform="translate(61.152 9.519)"/>
        <circle id="Ellipse_18" data-name="Ellipse 18" class="cls-3" cx="9.888" cy="9.888" r="9.888" transform="translate(81.554 29.575)"/>
      </g>
      <path id="Path_28470" data-name="Path 28470" class="cls-4" d="M.752,0V-9.953H3.958a4.716,4.716,0,0,1,2.372.6A4.2,4.2,0,0,1,7.974-7.667a5.1,5.1,0,0,1,.6,2.444v.458a5.127,5.127,0,0,1-.578,2.451,4.223,4.223,0,0,1-1.627,1.7A4.612,4.612,0,0,1,4.026,0Zm2.4-8.1v6.255h.834a1.867,1.867,0,0,0,1.586-.735,3.6,3.6,0,0,0,.554-2.184V-5.2a3.572,3.572,0,0,0-.554-2.174A1.9,1.9,0,0,0,3.958-8.1Z" transform="translate(91.994 48.73)"/>
      <path id="Path_28469" data-name="Path 28469" class="cls-4" d="M15.094-5.777a6.231,6.231,0,0,1-.961,3.146A5.8,5.8,0,0,1,11.666-.516a8.4,8.4,0,0,1-3.627.75,6.7,6.7,0,0,1-5.3-2.191A9.048,9.048,0,0,1,.809-8.145v-.844a10.328,10.328,0,0,1,.873-4.389A6.615,6.615,0,0,1,4.2-16.283a7.013,7.013,0,0,1,3.8-1.025,7.354,7.354,0,0,1,4.992,1.635,6.459,6.459,0,0,1,2.145,4.506h-4.1a3.056,3.056,0,0,0-.785-2.238,3.229,3.229,0,0,0-2.25-.68,2.457,2.457,0,0,0-2.25,1.148,7.381,7.381,0,0,0-.75,3.668v1.207a8.167,8.167,0,0,0,.686,3.9A2.509,2.509,0,0,0,8.039-2.988a3.159,3.159,0,0,0,2.168-.668A2.835,2.835,0,0,0,11-5.777Z" transform="translate(68.745 34.245)"/>
      <path id="Path_28468" data-name="Path 28468" class="cls-4" d="M1.343,0V-17.773H7.727a9.04,9.04,0,0,1,5.219,1.257,4.184,4.184,0,0,1,1.788,3.65A4.229,4.229,0,0,1,14.1-10.51a3.7,3.7,0,0,1-1.868,1.44A3.746,3.746,0,0,1,14.368-7.7a3.975,3.975,0,0,1,.745,2.441,4.706,4.706,0,0,1-1.654,3.925A7.871,7.871,0,0,1,8.557,0ZM5.627-7.556V-3.3H8.435a2.67,2.67,0,0,0,1.782-.531,1.858,1.858,0,0,0,.623-1.5A1.97,1.97,0,0,0,8.63-7.556Zm0-2.808H7.861a3.174,3.174,0,0,0,2-.514,1.825,1.825,0,0,0,.6-1.481,1.916,1.916,0,0,0-.647-1.622,3.463,3.463,0,0,0-2.087-.5h-2.1Z" transform="translate(48.969 57.494)"/>
      <path id="Path_28467" data-name="Path 28467" class="cls-4" d="M12.353-3.586H6.012L4.9,0H-.04L7-19.2h4.351L18.444,0h-4.97ZM7.119-7.159h4.126l-2.07-6.658Z" transform="translate(15.596 32.301)"/>
    </g>
    <path id="Path_23_00000011029484477388366120000013529367444394307766_2" data-name="Path_23_00000011029484477388366120000013529367444394307766_" class="cls-1" d="M4.571,2.953a.679.679,0,0,0-.434.886l.249.655a.745.745,0,0,1-.508.951A.8.8,0,0,1,2.9,5.011l-.249-.655a.74.74,0,0,0-.932-.415l-.683.24a.8.8,0,0,1-1-.489A.744.744,0,0,1,.5,2.759l.683-.24a.679.679,0,0,0,.434-.886L1.368.987A.745.745,0,0,1,1.876.036.8.8,0,0,1,2.854.47l.249.646a.74.74,0,0,0,.932.415l.683-.24a.8.8,0,0,1,1,.489.744.744,0,0,1-.461.932l-.683.24Z" transform="matrix(0.985, -0.174, 0.174, 0.985, 1253.279, 526.674)"/>
    <path id="Path_23_00000011029484477388366120000013529367444394307766_3" data-name="Path_23_00000011029484477388366120000013529367444394307766_" class="cls-1" d="M4.571,2.953a.679.679,0,0,0-.434.886l.249.655a.745.745,0,0,1-.508.951A.8.8,0,0,1,2.9,5.011l-.249-.655a.74.74,0,0,0-.932-.415l-.683.24a.8.8,0,0,1-1-.489A.744.744,0,0,1,.5,2.759l.683-.24a.679.679,0,0,0,.434-.886L1.368.987A.745.745,0,0,1,1.876.036.8.8,0,0,1,2.854.47l.249.646a.74.74,0,0,0,.932.415l.683-.24a.8.8,0,0,1,1,.489.744.744,0,0,1-.461.932l-.683.24Z" transform="matrix(0.985, -0.174, 0.174, 0.985, 1372.279, 526.674)"/>
    <path id="Path_28455" data-name="Path 28455" class="cls-1" d="M19.745,16.431l-2.3-.959-.959-2.3a.309.309,0,0,0-.553,0l-.959,2.3-2.3.959a.309.309,0,0,0,0,.553l2.3.959.959,2.3a.309.309,0,0,0,.553,0l.959-2.3,2.3-.959a.309.309,0,0,0,0-.553Z" transform="translate(1265.154 477.715)"/>
    <path id="Path_28456" data-name="Path 28456" class="cls-1" d="M18.537,15.859l-1.918-.8-.8-1.918a.257.257,0,0,0-.461,0l-.8,1.918-1.918.8a.257.257,0,0,0,0,.461l1.918.8.8,1.918a.257.257,0,0,0,.461,0l.8-1.918,1.918-.8a.257.257,0,0,0,0-.461Z" transform="translate(1314.508 559.577)"/>
  </g>
</svg>
