<svg xmlns="http://www.w3.org/2000/svg" width="20.821" height="19" viewBox="0 0 20.821 19">
  <path id="obje_ekleme" d="M7.278,5.75H17.54a1,1,0,0,0-1.146-1.013H8.424A1,1,0,0,0,7.278,5.75ZM5.739,7.925H19.078a1.126,1.126,0,0,0-1.241-1.107H6.98A1.126,1.126,0,0,0,5.739,7.925ZM18.356,9.2H6.454a2.165,2.165,0,0,0-2.465,2.434v3.046A5.09,5.09,0,0,1,9.06,19.749,4.909,4.909,0,0,1,8.283,22.4H18.356a2.168,2.168,0,0,0,2.465-2.434V11.631A2.168,2.168,0,0,0,18.356,9.2ZM3.988,23.738a3.988,3.988,0,0,0,0-7.977,3.988,3.988,0,0,0,0,7.977ZM4,22.34a.491.491,0,0,1-.518-.487V20.228h-1.5a.483.483,0,1,1,0-.966h1.5V17.637A.485.485,0,0,1,4,17.158a.483.483,0,0,1,.51.479v1.625h1.5a.483.483,0,0,1,0,.966h-1.5v1.625A.489.489,0,0,1,4,22.34Z" transform="translate(0 -4.737)" fill="#979daf"/>
</svg>
