<svg xmlns="http://www.w3.org/2000/svg" xmlns:xlink="http://www.w3.org/1999/xlink" width="14.755" height="14.756" viewBox="0 0 14.755 14.756">
  <defs>
    <linearGradient id="linear-gradient" x1="-0.06" y1="1.061" x2="0.894" y2="0.116" gradientUnits="objectBoundingBox">
      <stop offset="0" stop-color="#e47141"/>
      <stop offset="0.356" stop-color="#d55550"/>
      <stop offset="0.545" stop-color="#8e050e"/>
      <stop offset="0.677" stop-color="#a31f5a"/>
      <stop offset="0.86" stop-color="#636a87"/>
      <stop offset="1" stop-color="#2cabae"/>
    </linearGradient>
  </defs>
  <path id="comment-quote-solid-full" d="M71.378,77.833A6.931,6.931,0,1,0,64,70.916a6.6,6.6,0,0,0,1.487,4.164l-1.406,2.66a.693.693,0,0,0,.885.96l3.412-1.461A7.812,7.812,0,0,0,71.378,77.833Zm-3-9.222H69.3a1.152,1.152,0,0,1,1.153,1.153v2.305a2.074,2.074,0,0,1-2.075,2.075.692.692,0,1,1,0-1.383.69.69,0,0,0,.692-.692v-.231H68.38a1.152,1.152,0,0,1-1.153-1.153v-.922A1.152,1.152,0,0,1,68.38,68.611Zm6.686,2.075v1.383a2.074,2.074,0,0,1-2.075,2.075.692.692,0,1,1,0-1.383.69.69,0,0,0,.692-.692v-.231h-.692a1.152,1.152,0,0,1-1.153-1.153v-.922a1.152,1.152,0,0,1,1.153-1.153h.922a1.152,1.152,0,0,1,1.153,1.153Z" transform="translate(-64 -64)" fill="url(#linear-gradient)"/>
</svg>
