<svg xmlns="http://www.w3.org/2000/svg" width="27.26" height="27" viewBox="0 0 27.26 27">
  <path id="icn-AI" d="M7.663,26.088A3.121,3.121,0,0,1,6.9,22.922c-.085-.119-.163-.231-.239-.34a3.116,3.116,0,1,1-2.83-5.507c-.054-.167-.107-.339-.156-.51a3.138,3.138,0,0,1-.562.05,3.115,3.115,0,1,1,0-6.231,3.14,3.14,0,0,1,.607.059c.051-.167.106-.335.163-.5A3.116,3.116,0,1,1,6.858,4.56l.151-.2a3.116,3.116,0,1,1,5.972-1.246V9.2A2.676,2.676,0,0,1,11.8,10.827a2.383,2.383,0,0,1-1.271.4,2.01,2.01,0,0,1-.617-.1A1.929,1.929,0,0,1,8.531,9.635a2.029,2.029,0,0,1,1.114-1.9.649.649,0,1,0-.72-1.08A4,4,0,0,0,7.541,8.134a2.813,2.813,0,0,0-.3,1.68A3.23,3.23,0,0,0,9.51,12.361a3.3,3.3,0,0,0,1.016.161,3.41,3.41,0,0,0,.576-.05,3.753,3.753,0,0,0,1.4-.554,4.208,4.208,0,0,0,.482-.362v3.815a4.2,4.2,0,0,0-.482-.362,3.754,3.754,0,0,0-1.4-.553,3.413,3.413,0,0,0-.576-.05,3.3,3.3,0,0,0-1.016.161,3.23,3.23,0,0,0-2.265,2.548,2.813,2.813,0,0,0,.3,1.68,4,4,0,0,0,1.384,1.476.649.649,0,1,0,.72-1.08,2.029,2.029,0,0,1-1.114-1.9A1.929,1.929,0,0,1,9.908,15.8a2.01,2.01,0,0,1,.617-.1,2.381,2.381,0,0,1,1.271.4,2.677,2.677,0,0,1,1.184,1.624V24.4h-.043a3.116,3.116,0,0,1-5.275,1.684Zm9.992-3.631a2.714,2.714,0,0,1,.322-1.286l-1.12-1.131H14.464v-1.3H17.4L18.845,20.2a2.726,2.726,0,1,1-1.191,2.253Zm4.191-5H20.028l-1.741-1.789H14.464v-1.3h4.371l1.741,1.789h1.367a2.727,2.727,0,1,1-.1,1.3Zm.011-6.691H20.576l-1.741,1.789H14.464v-1.3h3.823l1.741-1.789h1.9a2.727,2.727,0,1,1-.069,1.3ZM14.464,8.178V6.88h2.392l1.286-1.3a2.723,2.723,0,1,1,.975.86L17.4,8.178Z" fill="#fff"/>
</svg>
