<svg id="Group_38302" data-name="Group 38302" xmlns="http://www.w3.org/2000/svg" width="22.26" height="13.324" viewBox="0 0 22.26 13.324">
  <path id="Path_94277" data-name="Path 94277" d="M5.666-4.9a3.142,3.142,0,0,0,1.619-.43A3.346,3.346,0,0,0,8.473-6.519,3.232,3.232,0,0,0,8.9-8.137a3.232,3.232,0,0,0-.43-1.619,3.346,3.346,0,0,0-1.189-1.189,3.142,3.142,0,0,0-1.619-.43,3.142,3.142,0,0,0-1.619.43A3.346,3.346,0,0,0,2.858-9.756a3.232,3.232,0,0,0-.43,1.619,3.232,3.232,0,0,0,.43,1.619A3.346,3.346,0,0,0,4.047-5.33,3.142,3.142,0,0,0,5.666-4.9ZM4.5-3.686A4.558,4.558,0,0,0,1.315-2.37,4.558,4.558,0,0,0,0,.817a.677.677,0,0,0,.228.531.677.677,0,0,0,.531.228h9.814a.677.677,0,0,0,.531-.228.677.677,0,0,0,.228-.531A4.558,4.558,0,0,0,10.016-2.37,4.558,4.558,0,0,0,6.829-3.686Z" transform="translate(10.928 11.375)" fill="#565c67"/>
  <path id="icn-AI" d="M0,12.95v-.18l.508-1.234H2.137l.434-1.457H5.942l.434,1.457h4.475V1.41H8.261V8.79L5.828,1.41H2.671L.283,8.649,0,7.793V0H4.6L7.123,1.358,6.786,0H9.107l3.826,2.86.017.012v8.168L10.056,12.95Zm3.238-5.1L4.249,4.4,5.276,7.851Z" transform="translate(0 0.374)" fill="#e29c24"/>
</svg>
