<svg xmlns="http://www.w3.org/2000/svg" width="24" height="24" viewBox="0 0 24 24">
  <g id="sbt-icon-eslenensoru" transform="translate(-1201 -409)">
    <rect id="Rectangle_100" data-name="Rectangle 100" width="24" height="24" transform="translate(1201 409)" fill="#fff" opacity="0"/>
    <g id="Group_14928" data-name="Group 14928" transform="translate(-261.291 -180.7)">
      <path id="Path_105476" data-name="Path 105476" d="M16.528-9.116a8.087,8.087,0,0,0-8.087-8.072A8.061,8.061,0,0,0,2.7-14.795l-1.471-1.45a.391.391,0,0,0-.666.279v4.127a.391.391,0,0,0,.391.391H5.139a.391.391,0,0,0,.275-.67L3.813-13.7a6.5,6.5,0,0,1,4.628-1.925A6.518,6.518,0,0,1,14.963-9.1,6.518,6.518,0,0,1,8.441-2.579,6.5,6.5,0,0,1,4.1-4.232a.393.393,0,0,0-.54.013l-.553.553a.392.392,0,0,0,.014.567A8.057,8.057,0,0,0,8.447-1.013,8.106,8.106,0,0,0,16.528-9.116ZM10.436-7.648l.46-.633a.391.391,0,0,0-.086-.547L9.224-9.977V-13a.391.391,0,0,0-.391-.391H8.05A.391.391,0,0,0,7.658-13V-9.18L9.889-7.562A.391.391,0,0,0,10.436-7.648Z" transform="translate(1464.937 609)" fill="#707070"/>
      <g id="Group_14928-2" data-name="Group 14928" transform="translate(1473.483 601.987)">
        <g id="Path_105852" data-name="Path 105852" transform="translate(0 0)" fill="#fff">
          <path d="M 4.114253520965576 7.328503608703613 C 2.341913461685181 7.328503608703613 0.9000034928321838 5.886593341827393 0.9000034928321838 4.114253520965576 C 0.9000034928321838 2.341913461685181 2.341913461685181 0.9000034928321838 4.114253520965576 0.9000034928321838 C 5.886593341827393 0.9000034928321838 7.328503608703613 2.341913461685181 7.328503608703613 4.114253520965576 C 7.328503608703613 5.886593341827393 5.886593341827393 7.328503608703613 4.114253520965576 7.328503608703613 Z" stroke="none"/>
          <path d="M 4.114253520965576 1.800003528594971 C 2.838173389434814 1.800003528594971 1.800003528594971 2.838173389434814 1.800003528594971 4.114253520965576 C 1.800003528594971 5.39033317565918 2.838173389434814 6.428503513336182 4.114253520965576 6.428503513336182 C 5.39033317565918 6.428503513336182 6.428503513336182 5.39033317565918 6.428503513336182 4.114253520965576 C 6.428503513336182 2.838173389434814 5.39033317565918 1.800003528594971 4.114253520965576 1.800003528594971 M 4.114253520965576 3.814697265625e-06 C 6.386493682861328 3.814697265625e-06 8.228503227233887 1.842013359069824 8.228503227233887 4.114253520965576 C 8.228503227233887 6.386493682861328 6.386493682861328 8.228503227233887 4.114253520965576 8.228503227233887 C 1.842013359069824 8.228503227233887 3.814697265625e-06 6.386493682861328 3.814697265625e-06 4.114253520965576 C 3.814697265625e-06 1.842013359069824 1.842013359069824 3.814697265625e-06 4.114253520965576 3.814697265625e-06 Z" stroke="none" fill="#707070"/>
        </g>
        <path id="Path_105853" data-name="Path 105853" d="M0,0,2.743,2.743" transform="translate(6.857 6.857)" fill="none" stroke="#707070" stroke-linecap="round" stroke-width="1.8"/>
      </g>
    </g>
  </g>
</svg>
