<svg xmlns="http://www.w3.org/2000/svg" width="24" height="24" viewBox="0 0 24 24">
  <g id="sbt-icon-eslenensoru" transform="translate(-1201 -409)">
    <rect id="Rectangle_100" data-name="Rectangle 100" width="24" height="24" transform="translate(1201 409)" fill="#fff" opacity="0"/>
    <g id="Group_14928" data-name="Group 14928" transform="translate(-261.291 -180.7)">
      <path id="Path_105476" data-name="Path 105476" d="M16.528-9.116a8.087,8.087,0,0,0-8.087-8.072A8.061,8.061,0,0,0,2.7-14.795l-1.471-1.45a.391.391,0,0,0-.666.279v4.127a.391.391,0,0,0,.391.391H5.139a.391.391,0,0,0,.275-.67L3.813-13.7a6.5,6.5,0,0,1,4.628-1.925A6.518,6.518,0,0,1,14.963-9.1,6.518,6.518,0,0,1,8.441-2.579,6.5,6.5,0,0,1,4.1-4.232a.393.393,0,0,0-.54.013l-.553.553a.392.392,0,0,0,.014.567A8.057,8.057,0,0,0,8.447-1.013,8.106,8.106,0,0,0,16.528-9.116ZM10.436-7.648l.46-.633a.391.391,0,0,0-.086-.547L9.224-9.977V-13a.391.391,0,0,0-.391-.391H8.05A.391.391,0,0,0,7.658-13V-9.18L9.889-7.562A.391.391,0,0,0,10.436-7.648Z" transform="translate(1464.937 609)" fill="currentColor"/>
      <g id="Group_14928-2" data-name="Group 14928" transform="translate(1473.483 601.987)">
        <path id="Path_105852" data-name="Path 105852" d="M4.114,0A4.114,4.114,0,1,1,0,4.114,4.114,4.114,0,0,1,4.114,0Z" transform="translate(0 0)" fill="currentColor"/>
        <path id="Path_105855" data-name="Path 105855" d="M.75,0h3.5a.75.75,0,0,1,0,1.5H.75A.75.75,0,0,1,.75,0Z" transform="translate(6.912 5.975) rotate(43)" fill="currentColor"/>
        <path id="Path_105854" data-name="Path 105854" d="M2.929,0A2.929,2.929,0,1,1,0,2.929,2.929,2.929,0,0,1,2.929,0Z" transform="translate(1.186 1.186)" fill="#fff"/>
      </g>
    </g>
  </g>
</svg>
