<?xml version="1.0" encoding="utf-8"?>
<!-- Generator: Adobe Illustrator 27.9.6, SVG Export Plug-In . SVG Version: 9.03 Build 54986)  -->
<svg version="1.1" id="Layer_1" xmlns="http://www.w3.org/2000/svg" xmlns:xlink="http://www.w3.org/1999/xlink" x="0px" y="0px"
	 viewBox="0 0 24 24" style="enable-background:new 0 0 24 24;" xml:space="preserve">
<style type="text/css">
	.st0{fill:#707070;}
</style>
<g>
	<path class="st0" d="M11.8,5.5H11c-0.2,0-0.4,0.2-0.4,0.4c0,0,0,0,0,0v3.8l2.2,1.6c0.2,0.1,0.4,0.1,0.5-0.1c0,0,0,0,0,0l0.5-0.6
		c0.1-0.2,0.1-0.4-0.1-0.5c0,0,0,0,0,0l-1.6-1.1v-3C12.2,5.7,12,5.5,11.8,5.5z"/>
	<path class="st0" d="M21.7,20.8l-2.7-2.7c0.4-0.6,0.6-1.4,0.6-2.2c0-1-0.4-2-1-2.7c0.5-1.1,0.8-2.2,0.8-3.5c0-4.5-3.6-8.1-8.1-8.1
		c-2.2,0-4.2,0.9-5.7,2.4L4.2,2.6C4,2.5,3.8,2.5,3.6,2.6C3.5,2.7,3.5,2.8,3.5,2.9V7c0,0.2,0.2,0.4,0.4,0.4h4.2
		c0.2,0,0.4-0.2,0.4-0.4c0-0.1,0-0.2-0.1-0.3L6.7,5.2C8,3.9,9.6,3.2,11.4,3.3c3.6,0,6.5,2.9,6.5,6.5c0,0,0,0,0,0
		c0,0.9-0.2,1.7-0.5,2.5c-0.5-0.3-1.2-0.4-1.8-0.4c-2.3,0-4.1,1.8-4.1,4.1c0,0.1,0,0.2,0,0.3c0,0-0.1,0-0.1,0c0,0,0,0,0,0
		c-1.6,0-3.1-0.6-4.3-1.7c-0.2-0.1-0.4-0.1-0.5,0l-0.6,0.6c-0.2,0.2-0.2,0.4,0,0.6c0,0,0,0,0,0c1.5,1.3,3.4,2.1,5.4,2.1
		c0.2,0,0.4,0,0.6,0c0.7,1.3,2.1,2.3,3.7,2.3c0.8,0,1.6-0.2,2.2-0.6l2.7,2.7c0.2,0.2,0.4,0.3,0.6,0.3s0.5-0.1,0.6-0.3
		C22.1,21.7,22.1,21.2,21.7,20.8z M15.6,18.3c-1.3,0-2.4-1.1-2.4-2.4s1.1-2.4,2.4-2.4s2.4,1.1,2.4,2.4S16.9,18.3,15.6,18.3z"/>
</g>
</svg>
