<svg xmlns="http://www.w3.org/2000/svg" width="24" height="24" viewBox="0 0 24 24">
  <g id="Group_40896" data-name="Group 40896" transform="translate(0 -0.046)">
    <rect id="Rectangle_13816" data-name="Rectangle 13816" width="24" height="24" rx="3" transform="translate(0 0.046)" fill="#f2f2f2"/>
    <path id="Path_105063" data-name="Path 105063" d="M12.987-12.212a.905.905,0,0,0,0-1.275.905.905,0,0,0-1.275,0L7.25-9.025,2.787-13.487a.905.905,0,0,0-1.275,0,.905.905,0,0,0,0,1.275L5.975-7.75,1.513-3.288a.905.905,0,0,0,0,1.275.905.905,0,0,0,1.275,0L7.25-6.475l4.462,4.462a.905.905,0,0,0,1.275,0,.905.905,0,0,0,0-1.275L8.525-7.75Z" transform="translate(4.75 19.75)" fill="#1b3244"/>
  </g>
</svg>
