<svg xmlns="http://www.w3.org/2000/svg" width="46.717" height="47.929" viewBox="0 0 46.717 47.929">
  <path id="sorusuz-kazanimsiz-ikon-laci" d="M448.033,46.459c1.4,1.4,3.656,1.4,8.17,1.4h4.786c4.513,0,6.768,0,8.17-1.4s1.4-3.657,1.4-8.17V9.572c0-4.513,0-6.768-1.4-8.17S465.5,0,460.989,0H456.2c-4.513,0-6.768,0-8.17,1.4-1.2,1.2-1.374,3.032-1.4,6.375h4.781a1.795,1.795,0,1,1,0,3.59h-4.786v3.59h7.179a1.795,1.795,0,0,1,0,3.59h-7.179v3.59h4.786a1.795,1.795,0,1,1,0,3.59h-4.786v3.59h7.179a1.795,1.795,0,0,1,0,3.59h-7.179v3.59h4.786a1.795,1.795,0,1,1,0,3.59h-4.781C446.66,43.427,446.829,45.258,448.033,46.459Zm-9.83-14.82v-19.1a18.785,18.785,0,0,1-7.179,1.412,18.785,18.785,0,0,1-7.18-1.412v19.1a24.756,24.756,0,0,0,.091,2.965,11.988,11.988,0,0,0,.6,2.529,24.29,24.29,0,0,0,1.244,2.695l3.513,7.028a1.936,1.936,0,0,0,3.465,0l3.513-7.028a24.29,24.29,0,0,0,1.244-2.695,11.965,11.965,0,0,0,.6-2.529,24.788,24.788,0,0,0,.091-2.967Zm0-24.395a7.179,7.179,0,0,0-14.359,0v2.29l.191.1a15.994,15.994,0,0,0,6.988,1.584,15.982,15.982,0,0,0,7.179-1.68Z" transform="translate(-423.844)" fill="#1b3244"/>
</svg>
