<svg xmlns="http://www.w3.org/2000/svg" width="49" height="46" viewBox="0 0 49 46">
  <g id="deneme12lac_" data-name="deneme12lac&apos;" transform="translate(-1839 -6279)">
    <path id="Subtraction_5" data-name="Subtraction 5" d="M31,46H5a5.006,5.006,0,0,1-5-5V5A5.006,5.006,0,0,1,5,0H31a5.006,5.006,0,0,1,5,5V41A5.006,5.006,0,0,1,31,46ZM7,25a2,2,0,0,0-2,2v6a2,2,0,0,0,2,2h6a2,2,0,0,0,2-2V27a2,2,0,0,0-2-2Zm12.25,6.25a1.25,1.25,0,0,0,0,2.5h10.5a1.25,1.25,0,0,0,0-2.5Zm0-5a1.25,1.25,0,1,0,0,2.5h10.5a1.25,1.25,0,1,0,0-2.5ZM6.484,12.282A1.116,1.116,0,0,0,5.7,14.188l2.753,2.755.012.011.4.394.006.008.782.782.765-.765.008-.008.017-.017,5.53-5.528a1.118,1.118,0,0,0-.791-1.908,1.11,1.11,0,0,0-.79.327L9.644,14.978l-2.37-2.369A1.108,1.108,0,0,0,6.484,12.282ZM19.25,15a1.25,1.25,0,1,0,0,2.5h10.5a1.25,1.25,0,1,0,0-2.5Zm0-5a1.25,1.25,0,0,0,0,2.5h10.5a1.25,1.25,0,0,0,0-2.5ZM12.5,32.5h-5v-5h5v5Z" transform="translate(1839 6279)" fill="#1b3244"/>
    <g id="Group_14878" data-name="Group 14878" transform="translate(56 37)">
      <path id="Rectangle_2085" data-name="Rectangle 2085" d="M3.5,0h0A3.5,3.5,0,0,1,7,3.5V6A0,0,0,0,1,7,6H0A0,0,0,0,1,0,6V3.5A3.5,3.5,0,0,1,3.5,0Z" transform="translate(1825 6247)" fill="#1b3244"/>
      <path id="Union_1" data-name="Union 1" d="M0,21H7L3.5,27Zm0,0V0H7V21Z" transform="translate(1825 6256)" fill="#1b3244"/>
    </g>
  </g>
</svg>
