<svg xmlns="http://www.w3.org/2000/svg" width="45.764" height="50.882" viewBox="0 0 45.764 50.882">
  <path id="ssokds-laci" d="M15.079,47.581a11.443,11.443,0,0,1,0-15.94,10.873,10.873,0,0,1,15.606,0,11.441,11.441,0,0,1,0,15.94,10.873,10.873,0,0,1-15.606,0Zm6.176-4.032a.941.941,0,0,0-.269.726v.28a1,1,0,0,0,.269.743,1.206,1.206,0,0,0,.807.247H22.3a1.133,1.133,0,0,0,.789-.247.963.963,0,0,0,.288-.743v-.28a.911.911,0,0,0-.288-.726,1.09,1.09,0,0,0-.789-.264h-.234A1.158,1.158,0,0,0,21.254,43.549Zm2.406-7.982a1.965,1.965,0,0,1,.807.677,1.66,1.66,0,0,1,.306.989,1.876,1.876,0,0,1-1.293,1.9,4.191,4.191,0,0,1-1.328.2,1.067,1.067,0,0,0-.772.3.926.926,0,0,0-.305.709v1.254a.977.977,0,0,0,.305.725,1.205,1.205,0,0,0,1.544,0,.977.977,0,0,0,.305-.725v-.61a.067.067,0,0,1,.018-.049l.036-.016.036-.017a6.186,6.186,0,0,0,1.418-.379,3.977,3.977,0,0,0,1.148-.726,3.15,3.15,0,0,0,.772-1.088,3.785,3.785,0,0,0,.269-1.468,3.462,3.462,0,0,0-.592-1.979,4.212,4.212,0,0,0-1.6-1.385,4.67,4.67,0,0,0-2.227-.527,5.075,5.075,0,0,0-1.867.346,4.563,4.563,0,0,0-1.508.941.907.907,0,0,0-.341.759.966.966,0,0,0,.467.709,1.069,1.069,0,0,0,.6.207.853.853,0,0,0,.207-.026,1.919,1.919,0,0,0,.7-.346,3.048,3.048,0,0,1,.79-.446,2.756,2.756,0,0,1,.951-.165A2.587,2.587,0,0,1,23.66,35.567ZM4.576,36.611a4.431,4.431,0,0,1-3.234-1.345A4.419,4.419,0,0,1,0,32.035V4.576A4.428,4.428,0,0,1,1.345,1.343,4.418,4.418,0,0,1,4.569,0H18.306l4.576,4.576H41.188a4.428,4.428,0,0,1,3.233,1.345,4.419,4.419,0,0,1,1.343,3.231V32.035A4.589,4.589,0,0,1,41.2,36.611H35.584a13.281,13.281,0,0,0-3.478-6.376,12.858,12.858,0,0,0-6.936-3.692V20.137L28.832,23.8l3.2-3.2-9.152-9.153L13.73,20.594l3.2,3.2,3.661-3.661v6.406a12.855,12.855,0,0,0-6.936,3.692,13.277,13.277,0,0,0-3.478,6.376h-5.6Z" fill="#1b3244"/>
</svg>
