<svg id="docx" xmlns="http://www.w3.org/2000/svg" width="25.32" height="33.76" viewBox="0 0 25.32 33.76">
  <g id="Group_64" data-name="Group 64" transform="translate(0)">
    <path id="Path_3736" data-name="Path 3736" d="M14.77,9.217V.25H1.583A1.579,1.579,0,0,0,0,1.833V32.427A1.579,1.579,0,0,0,1.583,34.01H23.737a1.579,1.579,0,0,0,1.583-1.583V10.8H16.352A1.587,1.587,0,0,1,14.77,9.217Z" transform="translate(0 -0.25)" fill="#9497ec"/>
    <path id="Path_3776" data-name="Path 3776" d="M24.071,7.73a1.468,1.468,0,0,0-.43-1.037L17.634.68A1.472,1.472,0,0,0,16.591.25h-.374V8.1h7.854Z" transform="translate(1.249 -0.25)" fill="#c5c9ec"/>
  </g>
  <path id="Path_3837" data-name="Path 3837" d="M.691,0V-5.6H2.309q3.1,0,3.1,2.73A2.691,2.691,0,0,1,4.547-.787,3.28,3.28,0,0,1,2.242,0Zm.926-4.812V-.785h.742a2.075,2.075,0,0,0,1.525-.539A2.047,2.047,0,0,0,4.43-2.848,1.768,1.768,0,0,0,2.395-4.812ZM8.738.094A2.519,2.519,0,0,1,6.8-.691,2.884,2.884,0,0,1,6.07-2.734a3.055,3.055,0,0,1,.742-2.156,2.608,2.608,0,0,1,2.016-.8,2.463,2.463,0,0,1,1.9.781,2.894,2.894,0,0,1,.721,2.043A3.065,3.065,0,0,1,10.711-.7,2.56,2.56,0,0,1,8.738.094Zm.043-4.973A1.558,1.558,0,0,0,7.529-4.3a2.272,2.272,0,0,0-.482,1.512,2.293,2.293,0,0,0,.469,1.5,1.511,1.511,0,0,0,1.227.57,1.584,1.584,0,0,0,1.27-.543,2.265,2.265,0,0,0,.465-1.52,2.375,2.375,0,0,0-.451-1.551A1.525,1.525,0,0,0,8.781-4.879Zm7.6,4.645a3.4,3.4,0,0,1-1.574.328,2.574,2.574,0,0,1-1.953-.77,2.8,2.8,0,0,1-.734-2.02,2.941,2.941,0,0,1,.826-2.172A2.826,2.826,0,0,1,15.035-5.7a3.422,3.422,0,0,1,1.348.23v.922a2.4,2.4,0,0,0-1.25-.336,1.962,1.962,0,0,0-1.475.582,2.138,2.138,0,0,0-.564,1.555,2.039,2.039,0,0,0,.527,1.475,1.835,1.835,0,0,0,1.387.549,2.483,2.483,0,0,0,1.375-.375ZM21.633,0H20.52L19.371-2.055a2.064,2.064,0,0,1-.113-.266h-.016q-.035.086-.117.266L17.941,0H16.82l1.836-2.816L16.969-5.6h1.137l1.012,1.891q.1.188.176.375H19.3q.113-.246.2-.391L20.551-5.6H21.6L19.871-2.824Z" transform="translate(1.66 22.505)" fill="#1b3244"/>
</svg>
