<svg xmlns="http://www.w3.org/2000/svg" width="24" height="24" viewBox="0 0 24 24">
  <g id="Group_1565" data-name="Group 1565" transform="translate(-1201 -409)">
    <rect id="Rectangle_100" data-name="Rectangle 100" width="24" height="24" transform="translate(1201 409)" fill="#fff"/>
    <g id="Group_14928" data-name="Group 14928" transform="translate(-261.291 -180.7)">
      <path id="Path_105476" data-name="Path 105476" d="M16.528-9.116a8.087,8.087,0,0,0-8.087-8.072A8.061,8.061,0,0,0,2.7-14.795l-1.471-1.45a.391.391,0,0,0-.666.279v4.127a.391.391,0,0,0,.391.391H5.139a.391.391,0,0,0,.275-.67L3.813-13.7a6.5,6.5,0,0,1,4.628-1.925A6.518,6.518,0,0,1,14.963-9.1,6.518,6.518,0,0,1,8.441-2.579,6.5,6.5,0,0,1,4.1-4.232a.393.393,0,0,0-.54.013l-.553.553a.392.392,0,0,0,.014.567A8.057,8.057,0,0,0,8.447-1.013,8.106,8.106,0,0,0,16.528-9.116ZM10.436-7.648l.46-.633a.391.391,0,0,0-.086-.547L9.224-9.977V-13a.391.391,0,0,0-.391-.391H8.05A.391.391,0,0,0,7.658-13V-9.18L9.889-7.562A.391.391,0,0,0,10.436-7.648Z" transform="translate(1464.937 609)" fill="#707070"/>
      <g id="Group_14928-2" data-name="Group 14928" transform="translate(1473.483 601.987)">
        <g id="Ellipse_109" data-name="Ellipse 109" transform="translate(0 0)" fill="#fff" stroke="#707070" stroke-width="1.8">
          <circle cx="4.114" cy="4.114" r="4.114" stroke="none"/>
          <circle cx="4.114" cy="4.114" r="3.214" fill="none"/>
        </g>
        <line id="Line_116" data-name="Line 116" x2="2.743" y2="2.743" transform="translate(6.857 6.857)" fill="none" stroke="#707070" stroke-linecap="round" stroke-width="1.8"/>
      </g>
    </g>
  </g>
</svg>
