<svg xmlns="http://www.w3.org/2000/svg" width="24" height="24" viewBox="0 0 24 24">
  <g id="Group_40786" data-name="Group 40786" transform="translate(-1201 -409)">
    <rect id="Rectangle_100" data-name="Rectangle 100" width="24" height="24" transform="translate(1201 409)" fill="#fff"/>
    <path id="Path_105477" data-name="Path 105477" d="M2.5-9.375A1.875,1.875,0,0,0,.625-7.5,1.875,1.875,0,0,0,2.5-5.625,1.875,1.875,0,0,0,4.375-7.5,1.875,1.875,0,0,0,2.5-9.375ZM.625-13.437A1.875,1.875,0,0,0,2.5-11.562a1.875,1.875,0,0,0,1.875-1.875A1.875,1.875,0,0,0,2.5-15.312,1.875,1.875,0,0,0,.625-13.437Zm0,11.875A1.875,1.875,0,0,0,2.5.313,1.875,1.875,0,0,0,4.375-1.562,1.875,1.875,0,0,0,2.5-3.437,1.875,1.875,0,0,0,.625-1.562Z" transform="translate(1210.375 428.313)" fill="#707070"/>
  </g>
</svg>
