<svg xmlns="http://www.w3.org/2000/svg" width="15" height="16" viewBox="0 0 15 16">
  <g id="Group_14870" data-name="Group 14870" transform="translate(0 -0.491)">
    <rect id="Rectangle_2072" data-name="Rectangle 2072" width="15" height="16" rx="4" transform="translate(0 0.491)" fill="#ef8b08"/>
    <path id="Path_4268" data-name="Path 4268" d="M-5.52-21.875H-10.3a1,1,0,0,0-1.006,1.029c0,.113.009.226.015.337H-13.55a.511.511,0,0,0-.513.513,5.723,5.723,0,0,0,1.676,4.286,6.849,6.849,0,0,0,2.949,1.619,1.086,1.086,0,0,1,.841.974.81.81,0,0,1-.809.809h-.557a.683.683,0,0,0-.683.683.683.683,0,0,0,.683.683h4.1a.683.683,0,0,0,.683-.683.683.683,0,0,0-.683-.683h-.557a.81.81,0,0,1-.809-.809,1.081,1.081,0,0,1,.841-.974,6.844,6.844,0,0,0,2.951-1.619A5.73,5.73,0,0,0-1.761-20a.511.511,0,0,0-.513-.513H-4.529c.006-.111.011-.222.015-.337A1,1,0,0,0-5.52-21.875Zm-7.5,2.392h1.8a10.409,10.409,0,0,0,1.108,4.07,5.3,5.3,0,0,1-1.563-1.032,4.54,4.54,0,0,1-1.345-3.039Zm8.867,3.039a5.3,5.3,0,0,1-1.563,1.032,10.409,10.409,0,0,0,1.108-4.07h1.8a4.56,4.56,0,0,1-1.345,3.039Z" transform="translate(15.575 25.515)" fill="#fff"/>
  </g>
</svg>
