<svg xmlns="http://www.w3.org/2000/svg" width="19.375" height="19.375" viewBox="0 0 19.375 19.375">
  <path id="Path_105482" data-name="Path 105482" d="M10-4.219A1.094,1.094,0,0,0,8.906-3.125,1.094,1.094,0,0,0,10-2.031a1.094,1.094,0,0,0,1.094-1.094A1.094,1.094,0,0,0,10-4.219Zm.3-.937a.469.469,0,0,0,.469-.469V-5.64c0-1.7,3.025-1.562,3.025-4.2,0-1.971-1.763-3.133-3.806-3.133a4.1,4.1,0,0,0-3.564,1.748.468.468,0,0,0,.1.671l.513.357a.468.468,0,0,0,.635-.093,2.582,2.582,0,0,1,2.313-1.121c1.55,0,2.244.789,2.244,1.571,0,1.711-3.025,1.448-3.025,4.2v.015a.469.469,0,0,0,.469.469ZM10-15.937A8.439,8.439,0,0,1,18.438-7.5,8.435,8.435,0,0,1,10,.938,8.435,8.435,0,0,1,1.563-7.5,8.437,8.437,0,0,1,10-15.937Zm0-1.25A9.689,9.689,0,0,0,.313-7.5,9.687,9.687,0,0,0,10,2.188,9.687,9.687,0,0,0,19.688-7.5,9.689,9.689,0,0,0,10-17.187Z" transform="translate(-0.313 17.188)" fill="#2b4050"/>
</svg>
