<svg xmlns="http://www.w3.org/2000/svg" width="69.529" height="69.442" viewBox="0 0 69.529 69.442">
  <g id="excel-icon" transform="translate(-3230.471 -1572)">
    <path id="Path_3810" data-name="Path 3810" d="M108.973,6.927H83.818V1L42.471,7.382V63.321l41.348,7.122V61.657h25.155A2.886,2.886,0,0,0,112,58.935V9.646a2.885,2.885,0,0,0-3.027-2.719Zm.4,52.46H83.734L83.692,54.7h6.176V49.233H83.644l-.03-3.228h6.253V40.542h-6.3l-.03-3.228h6.33V31.851h-6.35V28.623h6.35V23.16h-6.35V19.932h6.35V14.469h-6.35V9.5H109.37Z" transform="translate(3188 1571)" fill="#20744a" fill-rule="evenodd"/>
    <path id="Path_3811" data-name="Path 3811" d="M76.9,10.111H87.637v5.463H76.9Zm0,8.694H87.637v5.463H76.9Zm0,8.694H87.637v5.463H76.9Zm0,8.694H87.637v5.463H76.9Zm0,8.694H87.637v5.463H76.9Z" transform="translate(3204.441 1575.35)" fill="#20744a"/>
    <path id="Path_3812" data-name="Path 3812" d="M49.924,15.867l5.329-.305,3.35,9.21,3.958-9.59,5.329-.306L61.419,27.952,67.89,41.061l-5.634-.38-3.8-9.992L54.645,40.3l-5.177-.457,6.014-11.579Z" transform="translate(3191.341 1577.626)" fill="#fff" fill-rule="evenodd"/>
  </g>
</svg>
