<svg xmlns="http://www.w3.org/2000/svg" width="56.972" height="35.838" viewBox="0 0 56.972 35.838">
  <g id="Group_1352" data-name="Group 1352" transform="translate(-8603.507 1360.497)">
    <g id="Group_1344" data-name="Group 1344" transform="translate(196.323 182.646)">
      <path id="Path_104854" data-name="Path 104854" d="M506.95,73.237a456.054,456.054,0,0,1-48.242-.38,3.963,3.963,0,0,1-3.516-3.936c-.436-9.483-.533-16.725-.433-25.578a3.964,3.964,0,0,1,3.635-4.094c16.2-.465,32.387-.563,48.259-.019a3.954,3.954,0,0,1,3.627,3.949c.37,8.644.652,17.307.239,26.116A3.957,3.957,0,0,1,506.95,73.237Z" transform="translate(7952.953 -1581.506)" fill="#fff" stroke="#2e2854" stroke-linecap="round" stroke-linejoin="round" stroke-width="1"/>
      <line id="Line_108" data-name="Line 108" x2="10" transform="translate(8412.677 -1523.646)" fill="none" stroke="#d24d84" stroke-linecap="round" stroke-width="2"/>
      <line id="Line_109" data-name="Line 109" x2="19" transform="translate(8427.038 -1522.646)" fill="none" stroke="#d24d84" stroke-linecap="round" stroke-width="1" stroke-dasharray="2 3"/>
      <line id="Line_110" data-name="Line 110" x2="9" transform="translate(8449.677 -1523.646)" fill="none" stroke="#d24d84" stroke-linecap="round" stroke-width="2"/>
    </g>
    <path id="Path_105055" data-name="Path 105055" d="M146.6,188.2l12.523-.5c.057,0,.1.2.115.461l.134,3.45c.014.348-.044.67-.119.662l-12.61.24c-.062,0-.112-.231-.117-.522l-.046-3.189C146.478,188.479,146.533,188.2,146.6,188.2Z" transform="translate(8496.07 -1542.201)" fill="none" stroke="#2e2854" stroke-width="1"/>
    <path id="Path_105056" data-name="Path 105056" d="M146.6,188.2l12.523-.5c.057,0,.1.2.115.461l.134,3.45c.014.348-.044.67-.119.662l-12.61.24c-.062,0-.112-.231-.117-.522l-.046-3.189C146.478,188.479,146.533,188.2,146.6,188.2Z" transform="translate(8479.07 -1542.201)" fill="none" stroke="#2e2854" stroke-width="1"/>
    <path id="Path_105057" data-name="Path 105057" d="M146.6,188.2l12.523-.5c.057,0,.1.2.115.461l.134,3.45c.014.348-.044.67-.119.662l-12.61.24c-.062,0-.112-.231-.117-.522l-.046-3.189C146.478,188.479,146.533,188.2,146.6,188.2Z" transform="translate(8462.07 -1542.201)" fill="none" stroke="#2e2854" stroke-width="1"/>
    <line id="Line_111" data-name="Line 111" x2="28" transform="translate(8628 -1331.5)" fill="none" stroke="#d24d84" stroke-linecap="round" stroke-width="2"/>
    <line id="Line_112" data-name="Line 112" x2="15" transform="translate(8610 -1331.5)" fill="none" stroke="#d24d84" stroke-linecap="round" stroke-width="1" stroke-dasharray="2 3"/>
  </g>
</svg>
