<svg xmlns="http://www.w3.org/2000/svg" width="25.32" height="33.76" viewBox="0 0 25.32 33.76">
  <g id="sbt-icon-gif" transform="translate(-0.291)">
    <g id="Group_64" data-name="Group 64" transform="translate(0.291)">
      <path id="Path_3736" data-name="Path 3736" d="M14.77,9.217V.25H1.583A1.579,1.579,0,0,0,0,1.833V32.427A1.579,1.579,0,0,0,1.583,34.01H23.737a1.579,1.579,0,0,0,1.583-1.583V10.8H16.352A1.587,1.587,0,0,1,14.77,9.217Z" transform="translate(0 -0.25)" fill="#79c1d6"/>
      <path id="Path_3776" data-name="Path 3776" d="M24.071,7.73a1.468,1.468,0,0,0-.43-1.037L17.634.68A1.472,1.472,0,0,0,16.591.25h-.374V8.1h7.854Z" transform="translate(1.249 -0.25)" fill="#a7d9e8"/>
    </g>
    <path id="Path_3846" data-name="Path 3846" d="M5.063-.383A4.008,4.008,0,0,1,3.113.094,2.713,2.713,0,0,1,1.1-.68a2.775,2.775,0,0,1-.77-2.047,2.876,2.876,0,0,1,.842-2.135A2.912,2.912,0,0,1,3.313-5.7a3.983,3.983,0,0,1,1.57.273v.957a2.7,2.7,0,0,0-1.535-.43,1.955,1.955,0,0,0-1.467.59,2.1,2.1,0,0,0-.572,1.527A2.2,2.2,0,0,0,1.8-1.26a1.7,1.7,0,0,0,1.336.553,2.115,2.115,0,0,0,1-.223V-2.262H2.957v-.781H5.063ZM7.223,0H6.266V-5.6h.957Zm4.4-4.812H9.531v1.684h1.93v.785H9.531V0H8.6V-5.6h3.023Z" transform="translate(6.95 22.505)" fill="#1b3244"/>
  </g>
</svg>
