<svg xmlns="http://www.w3.org/2000/svg" width="56.972" height="35.838" viewBox="0 0 56.972 35.838">
  <g id="Group_1361" data-name="Group 1361" transform="translate(-8604.507 1425.497)">
    <g id="Group_1336" data-name="Group 1336" transform="translate(197.323 117.646)">
      <path id="Path_104854" data-name="Path 104854" d="M506.95,73.237a456.054,456.054,0,0,1-48.242-.38,3.963,3.963,0,0,1-3.516-3.936c-.436-9.483-.533-16.725-.433-25.578a3.964,3.964,0,0,1,3.635-4.094c16.2-.465,32.387-.563,48.259-.019a3.954,3.954,0,0,1,3.627,3.949c.37,8.644.652,17.307.239,26.116A3.957,3.957,0,0,1,506.95,73.237Z" transform="translate(7952.953 -1581.506)" fill="#f6f6f6" stroke="#072343" stroke-linecap="round" stroke-linejoin="round" stroke-width="1"/>
    </g>
    <g id="Group_1340" data-name="Group 1340" transform="translate(69 -1)">
      <circle id="Ellipse_91" data-name="Ellipse 91" cx="5" cy="5" r="5" transform="translate(8540 -1418)" fill="#49ad9f"/>
      <path id="Path_104849" data-name="Path 104849" d="M4.189,0a.7.7,0,0,1-.461-.171A.733.733,0,0,1,3.477-.62L3.257-1.9,2.1-1.88q-.034.156-.068.317-.107.479-.215.977a.677.677,0,0,1-.249.422A.712.712,0,0,1,1.113,0,.8.8,0,0,1,.967-.02a.72.72,0,0,1-.41-.251A.676.676,0,0,1,.4-.708L.42-.869a30.987,30.987,0,0,1,1.606-5.6.792.792,0,0,1,.181-.317l.044-.029a.692.692,0,0,1,.479-.19.8.8,0,0,1,.3.059,1.106,1.106,0,0,1,.293.181,1.246,1.246,0,0,1,.259.337,4.7,4.7,0,0,1,.288.732q.269.874.493,1.992t.381,1.99l.146.876L4.9-.713a.68.68,0,0,1-.166.454A.746.746,0,0,1,4.3-.01ZM1.8-5.3a.071.071,0,0,0,.044-.015.1.1,0,0,0,.029-.034q.024-.1.054-.2A5.928,5.928,0,0,1,2.139-6.2a.969.969,0,0,1,.439-.542.085.085,0,0,0,.054-.073.074.074,0,0,0-.017-.046.056.056,0,0,0-.046-.022H2.529a.749.749,0,0,0-.305.244,1.911,1.911,0,0,0-.217.376,6.789,6.789,0,0,0-.225.688q-.029.093-.054.181v.02a.093.093,0,0,0,.049.073Zm-.176.63a.069.069,0,0,0,.068-.049l.088-.322,0-.02a.084.084,0,0,0-.02-.054.065.065,0,0,0-.054-.024.107.107,0,0,0-.044.02.062.062,0,0,0-.024.039l-.093.317v.024a.069.069,0,0,0,.049.068Zm.85,1.348.508-.01q-.1-.5-.215-.972Zm.718-.19a.07.07,0,0,0,.054-.068L3.1-4.238A.079.079,0,0,0,3.027-4.3q-.063,0-.068.068l.142.659a.071.071,0,0,0,.027.046.074.074,0,0,0,.046.017Z" transform="translate(8542.349 -1409.997)" fill="#fff"/>
    </g>
    <g id="Group_1341" data-name="Group 1341" transform="translate(94 -14)">
      <circle id="Ellipse_92" data-name="Ellipse 92" cx="5" cy="5" r="5" transform="translate(8540 -1405)" fill="#49ad9f"/>
      <path id="Path_104848" data-name="Path 104848" d="M1.25,0A.713.713,0,0,1,.742-.21a.682.682,0,0,1-.22-.513V-.752Q.459-1.289.43-2.031T.4-3.56q0-.781.024-1.465a9.453,9.453,0,0,1,.1-1.162.725.725,0,0,1,.166-.444.693.693,0,0,1,.386-.244,2.872,2.872,0,0,1,.9-.137,2.609,2.609,0,0,1,.879.156,1.7,1.7,0,0,1,.579.376,1.975,1.975,0,0,1,.422.61,1.851,1.851,0,0,1,.161.771,2.173,2.173,0,0,1-.137.789,2.261,2.261,0,0,1-.356.623A1.976,1.976,0,0,1,4.1-2.271a2.313,2.313,0,0,1-.137.806,1.977,1.977,0,0,1-.376.64,2.058,2.058,0,0,1-.513.417,2.786,2.786,0,0,1-.542.237A3.1,3.1,0,0,1,1.9-.034Q1.606,0,1.421,0ZM.693-5.3a.061.061,0,0,0,.044-.02.066.066,0,0,0,.02-.049q0-.078,0-.146a2.4,2.4,0,0,1,.1-.8.665.665,0,0,1,.588-.393A.071.071,0,0,0,1.5-6.736a.074.074,0,0,0,.017-.046.087.087,0,0,0-.024-.049.066.066,0,0,0-.049-.02h-.01a.8.8,0,0,0-.688.469,2.711,2.711,0,0,0-.127.923.8.8,0,0,0,0,.088.075.075,0,0,0,.02.051A.063.063,0,0,0,.684-5.3Zm1.147,1.05a1.52,1.52,0,0,0,.371-.132.7.7,0,0,0,.276-.256.858.858,0,0,0,.1-.457.425.425,0,0,0-.156-.374.689.689,0,0,0-.405-.11l-.132,0Q1.86-5.034,1.841-4.248ZM.649-4.653A.075.075,0,0,0,.7-4.673a.081.081,0,0,0,.027-.049l.02-.347a.063.063,0,0,0-.022-.049.075.075,0,0,0-.051-.02.066.066,0,0,0-.049.02.066.066,0,0,0-.02.049l-.024.337A.075.075,0,0,0,.6-4.68.081.081,0,0,0,.649-4.653Zm1.733.508.02,0a.641.641,0,0,0,.347-.3.839.839,0,0,0,.132-.427.07.07,0,0,0-.022-.051.07.07,0,0,0-.051-.022.063.063,0,0,0-.049.022.075.075,0,0,0-.02.051.676.676,0,0,1-.11.352.513.513,0,0,1-.266.234.089.089,0,0,0-.039.029.071.071,0,0,0-.015.044A.065.065,0,0,0,2.383-4.146ZM1.895-1.479a1.123,1.123,0,0,0,.62-.3.527.527,0,0,0,.112-.176.879.879,0,0,0,.044-.317.431.431,0,0,0-.156-.376.67.67,0,0,0-.4-.112H2.1a1.475,1.475,0,0,0-.259.024Q1.855-2.036,1.895-1.479Zm.532.039A.54.54,0,0,0,2.8-1.724a1.047,1.047,0,0,0,.129-.449.058.058,0,0,0-.02-.046.071.071,0,0,0-.049-.017.075.075,0,0,0-.051.02.063.063,0,0,0-.022.049.671.671,0,0,1-.11.354.515.515,0,0,1-.266.232.089.089,0,0,0-.039.029.071.071,0,0,0-.015.044A.065.065,0,0,0,2.427-1.44Z" transform="translate(8543.149 -1396.494)" fill="#fff"/>
    </g>
    <g id="Group_1342" data-name="Group 1342" transform="translate(69 -14)">
      <circle id="Ellipse_93" data-name="Ellipse 93" cx="5" cy="5" r="5" transform="translate(8540 -1390)" fill="#49ad9f"/>
      <path id="Path_104847" data-name="Path 104847" d="M2.554,0A2.011,2.011,0,0,1,1.58-.237,1.839,1.839,0,0,1,.874-.918a3.1,3.1,0,0,1-.356-1,7.9,7.9,0,0,1-.112-1.3l0-.376A8.424,8.424,0,0,1,.476-4.766a3.994,3.994,0,0,1,.266-.991,2.062,2.062,0,0,1,.713-.876,1.8,1.8,0,0,1,1.069-.344,1.457,1.457,0,0,1,.647.142,1.813,1.813,0,0,1,.493.344,1.7,1.7,0,0,1,.31.408,2.266,2.266,0,0,1,.2.54l.046.232,0,.088a.686.686,0,0,1-.181.471.731.731,0,0,1-.459.242l-.073,0A.693.693,0,0,1,3.03-4.69a.728.728,0,0,1-.237-.471.452.452,0,0,0-.134-.3.326.326,0,0,0-.2-.085.34.34,0,0,0-.212.073.735.735,0,0,0-.188.278,5.971,5.971,0,0,0-.22,1.948,4.935,4.935,0,0,0,.09,1.05,2.018,2.018,0,0,0,.183.552.689.689,0,0,0,.151.2.285.285,0,0,0,.19.066.249.249,0,0,0,.183-.083.493.493,0,0,0,.115-.181,1.283,1.283,0,0,0,.044-.244q.01-.122.01-.181l0-.112a.694.694,0,0,1,.176-.474.714.714,0,0,1,.493-.229h.054a.675.675,0,0,1,.491.193.736.736,0,0,1,.222.481l0,.161q0,.137-.022.352a2.586,2.586,0,0,1-.1.464,2.31,2.31,0,0,1-.168.405,1.652,1.652,0,0,1-.3.4A1.55,1.55,0,0,1,2.554,0ZM.859-5.278A.071.071,0,0,0,.9-5.293a.062.062,0,0,0,.024-.039,1.759,1.759,0,0,1,.508-.874,1.372,1.372,0,0,1,.791-.371A.094.094,0,0,0,2.271-6.6a.053.053,0,0,0,.02-.042v-.01A.063.063,0,0,0,2.268-6.7a.075.075,0,0,0-.051-.02h0a1.5,1.5,0,0,0-.874.405,1.906,1.906,0,0,0-.547.947l0,.02a.07.07,0,0,0,.054.068Zm-.137.64a.074.074,0,0,0,.046-.017A.051.051,0,0,0,.791-4.7q.02-.117.044-.244A.825.825,0,0,1,.85-5.029v-.015A.075.075,0,0,0,.83-5.1a.063.063,0,0,0-.049-.022A.065.065,0,0,0,.737-5.1a.073.073,0,0,0-.024.042q-.039.171-.063.342v.01a.065.065,0,0,0,.017.044.076.076,0,0,0,.046.024ZM2.993-2.261a.071.071,0,0,0,.044-.015.062.062,0,0,0,.024-.039.331.331,0,0,1,.161-.225.083.083,0,0,0,.044-.068.074.074,0,0,0-.017-.046A.061.061,0,0,0,3.2-2.676H3.181a.039.039,0,0,0-.017,0,.408.408,0,0,0-.159.142.635.635,0,0,0-.081.181l0,.02a.07.07,0,0,0,.054.068Z" transform="translate(8542.681 -1381.511)" fill="#fff"/>
    </g>
    <g id="Group_1343" data-name="Group 1343" transform="translate(94 -14)">
      <circle id="Ellipse_93-2" data-name="Ellipse 93" cx="5" cy="5" r="5" transform="translate(8540 -1390)" fill="#49ad9f"/>
      <path id="Path_105052" data-name="Path 105052" d="M1.486-2.178a.763.763,0,0,1-.55-.231A.755.755,0,0,1,.7-2.97V-3Q.624-3.587.592-4.392T.561-6.054q0-.856.027-1.6A9.56,9.56,0,0,1,.7-8.925a.69.69,0,0,1,.245-.521,1.379,1.379,0,0,1,.582-.274A3.187,3.187,0,0,1,2.257-9.8a.526.526,0,0,0,.074.005,2.251,2.251,0,0,1,1.2.4,2.54,2.54,0,0,1,.888,1.218,5.723,5.723,0,0,1,.3,2,5.257,5.257,0,0,1-.226,1.624,3.893,3.893,0,0,1-.585,1.165,2.945,2.945,0,0,1-.779.731,3,3,0,0,1-.853.364,3.327,3.327,0,0,1-.635.1A.786.786,0,0,1,1.486-2.178ZM.927-7.947a.066.066,0,0,0,.048-.021A.072.072,0,0,0,1-8.021Q1-8.106,1-8.181a2.617,2.617,0,0,1,.114-.875.725.725,0,0,1,.641-.428.078.078,0,0,0,.051-.029.081.081,0,0,0,.019-.051A.1.1,0,0,0,1.8-9.617a.072.072,0,0,0-.053-.021H1.736a.866.866,0,0,0-.75.51,2.952,2.952,0,0,0-.138,1,.866.866,0,0,0-.005.1.081.081,0,0,0,.021.056.068.068,0,0,0,.053.024ZM2.182-3.911a1.472,1.472,0,0,0,.447-.335,1.852,1.852,0,0,0,.378-.689,4,4,0,0,0,.154-1.242A5.064,5.064,0,0,0,3.07-7.25a2.075,2.075,0,0,0-.215-.6.864.864,0,0,0-.231-.274A.776.776,0,0,0,2.2-8.239q-.08.957-.08,2.185Q2.119-4.927,2.182-3.911ZM.89-7.25a.071.071,0,0,0,.048-.019A.083.083,0,0,0,.965-7.32L.986-7.7A.068.068,0,0,0,.962-7.75a.081.081,0,0,0-.056-.021.072.072,0,0,0-.053.021A.072.072,0,0,0,.832-7.7L.805-7.33a.081.081,0,0,0,.021.056A.068.068,0,0,0,.88-7.25ZM2.7-3.906a.085.085,0,0,0,.053-.021,1.579,1.579,0,0,0,.386-.524,3.347,3.347,0,0,0,.242-.694l.005-.021q0-.074-.09-.074a.06.06,0,0,0-.04.016.073.073,0,0,0-.024.043,2.33,2.33,0,0,1-.58,1.138.081.081,0,0,0-.027.058.081.081,0,0,0,.021.056A.068.068,0,0,0,2.7-3.906Z" transform="translate(8542.36 -1379.01)" fill="#fff"/>
    </g>
    <line id="Line_104" data-name="Line 104" x2="9" transform="translate(8621.5 -1414)" fill="none" stroke="#d24d84" stroke-linecap="round" stroke-width="3"/>
    <line id="Line_106" data-name="Line 106" x2="9" transform="translate(8621.5 -1399)" fill="none" stroke="#d24d84" stroke-linecap="round" stroke-width="3"/>
    <line id="Line_105" data-name="Line 105" x2="9" transform="translate(8646.971 -1413.5)" fill="none" stroke="#d24d84" stroke-linecap="round" stroke-width="3"/>
    <line id="Line_107" data-name="Line 107" x2="9" transform="translate(8646.971 -1399)" fill="none" stroke="#d24d84" stroke-linecap="round" stroke-width="3"/>
  </g>
</svg>
