<svg xmlns="http://www.w3.org/2000/svg" xmlns:xlink="http://www.w3.org/1999/xlink" width="200" height="172" viewBox="0 0 200 172">
  <defs>
    <clipPath id="clip-path">
      <path id="Path_104332" data-name="Path 104332" d="M181.715,51.722c-25.372-3.718-52.149-.065-74.527,12.34S67.274,97.978,61.88,122.8s2.26,52.534,21.151,69.71c10.958,9.965,25,16.116,39.405,19.814,31.783,8.162,67.868,4.179,93.686-15.9,13.878-10.8,24.211-25.7,30.831-41.9,5.331-13.056,8.364-27.338,6.372-41.285-2.237-15.689-10.857-30.179-22.805-40.716S203.51,54.913,181.715,51.722Z" transform="translate(-60.191 -50.337)"/>
    </clipPath>
  </defs>
  <g id="Group_784" data-name="Group 784" transform="translate(-5221 -5344)">
    <rect id="Rectangle_205" data-name="Rectangle 205" width="200" height="172" transform="translate(5221 5344)" fill="none"/>
    <g id="BACKGROUND" transform="translate(5224.353 5349.116)">
      <path id="Path_104275" data-name="Path 104275" d="M181.715,51.722c-25.372-3.718-52.149-.065-74.527,12.34S67.274,97.978,61.88,122.8s2.26,52.534,21.151,69.71c10.958,9.965,25,16.116,39.405,19.814,31.783,8.162,67.868,4.179,93.686-15.9,13.878-10.8,24.211-25.7,30.831-41.9,5.331-13.056,8.364-27.338,6.372-41.285-2.237-15.689-10.857-30.179-22.805-40.716S203.51,54.913,181.715,51.722Z" transform="translate(-60.191 -50.337)" fill="#f5decf"/>
    </g>
    <g id="OBJECTS" transform="translate(5224.353 5344)">
      <g id="Group_643" data-name="Group 643" transform="translate(0 5.116)">
        <g id="Group_638" data-name="Group 638">
          <g id="Group_637" data-name="Group 637" clip-path="url(#clip-path)">
            <path id="Path_104323" data-name="Path 104323" d="M264.138,284.865c-.45-.988-2-1.392-3.1-1.349-1.01.038-1.891.108-2.71.2.847-.638,1.674-1.3,2.47-2,.532-.469,1.1-1.084.963-1.776-.179-.873-1.3-1.13-2.2-1.119a19.292,19.292,0,0,0-7.9,2.041c.311-.607.6-1.226.862-1.857a2.421,2.421,0,0,0,.124-2.187,1.682,1.682,0,0,0-1.526-.661,3.972,3.972,0,0,0-1.631.577c-2.613,1.453-4.656,3.71-6.8,5.794a26.025,26.025,0,0,1-3.611,3.029,17.115,17.115,0,0,0,2.159-4.117c.256-.711.412-1.638-.182-2.114-.579-.465-1.441-.15-2.089.211A20.086,20.086,0,0,0,233,284.688a4.243,4.243,0,0,1-.357-1.926c.132-3.571,3.541-5.982,6.236-8.354a5.32,5.32,0,0,0,1.58-1.98,2.026,2.026,0,0,0-.516-2.322c-.788-.584-1.907-.292-2.827.058a47.887,47.887,0,0,0-18.107,12.8,84.353,84.353,0,0,0-12.333,18.5,138.631,138.631,0,0,0-14.193,46.41,42.24,42.24,0,0,0,13.529,6.628c7.32,1.845,21.434,2.337,21.434,2.337.839-13.482,1.724-27.191,6.481-39.855s14.033-24.347,26.937-28.741a7.881,7.881,0,0,0,2.6-1.215A1.711,1.711,0,0,0,264.138,284.865Z" transform="translate(-141.112 -167.676)" fill="#2e2854" opacity="0.15"/>
            <g id="Group_636" data-name="Group 636" transform="translate(51.368 102.098)">
              <g id="Group_632" data-name="Group 632" transform="translate(37.879 9.277)">
                <path id="Path_104324" data-name="Path 104324" d="M289.927,296.8a17.391,17.391,0,0,0,4.726-7.354c.233-.719.361-1.649-.249-2.107-.594-.446-1.445-.108-2.081.277a20.287,20.287,0,0,0-6.473,6.263A6.7,6.7,0,0,0,289.927,296.8Z" transform="translate(-285.85 -287.129)" fill="#e8614e"/>
                <path id="Path_104325" data-name="Path 104325" d="M289.927,296.8a17.391,17.391,0,0,0,4.726-7.354c.233-.719.361-1.649-.249-2.107-.594-.446-1.445-.108-2.081.277a20.287,20.287,0,0,0-6.473,6.263A6.7,6.7,0,0,0,289.927,296.8Z" transform="translate(-285.85 -287.129)" fill="none" stroke="#2e2854" stroke-linecap="round" stroke-linejoin="round" stroke-width="1.5"/>
              </g>
              <g id="Group_633" data-name="Group 633" transform="translate(40.869 6.008)">
                <path id="Path_104326" data-name="Path 104326" d="M293.55,290.283c2.885-.807,5.219-2.879,7.292-5.025s4.042-4.463,6.609-6a4.023,4.023,0,0,1,1.615-.627,1.678,1.678,0,0,1,1.545.615,2.415,2.415,0,0,1-.054,2.191,25.313,25.313,0,0,1-9.148,11.745Z" transform="translate(-293.55 -278.625)" fill="#e8614e"/>
                <path id="Path_104327" data-name="Path 104327" d="M293.55,290.283c2.885-.807,5.219-2.879,7.292-5.025s4.042-4.463,6.609-6a4.023,4.023,0,0,1,1.615-.627,1.678,1.678,0,0,1,1.545.615,2.415,2.415,0,0,1-.054,2.191,25.313,25.313,0,0,1-9.148,11.745Z" transform="translate(-293.55 -278.625)" fill="none" stroke="#2e2854" stroke-linecap="round" stroke-linejoin="round" stroke-width="1.5"/>
              </g>
              <g id="Group_634" data-name="Group 634" transform="translate(43.463 8.424)">
                <path id="Path_104328" data-name="Path 104328" d="M300.23,295.178c3.693-1.549,6.923-3.983,10.313-6.1s7.121-3.983,11.129-4.16c.9-.038,2.031.185,2.237,1.05.163.688-.388,1.319-.909,1.8a44.266,44.266,0,0,1-13.094,8.438Z" transform="translate(-300.23 -284.909)" fill="#e8614e"/>
                <path id="Path_104329" data-name="Path 104329" d="M300.23,295.178c3.693-1.549,6.923-3.983,10.313-6.1s7.121-3.983,11.129-4.16c.9-.038,2.031.185,2.237,1.05.163.688-.388,1.319-.909,1.8a44.266,44.266,0,0,1-13.094,8.438Z" transform="translate(-300.23 -284.909)" fill="none" stroke="#2e2854" stroke-linecap="round" stroke-linejoin="round" stroke-width="1.5"/>
              </g>
              <g id="Group_635" data-name="Group 635">
                <path id="Path_104330" data-name="Path 104330" d="M223.519,350.374c.419-13.5.881-27.234,5.242-40.032s13.272-24.762,26.032-29.548a7.787,7.787,0,0,0,2.559-1.3,1.708,1.708,0,0,0,.617-2.187c-.481-.976-2.042-1.33-3.137-1.253-4.52.315-6.508,1.065-11.028,3.033-3.316,1.445-5.456,2.222-9.312,2.23s-8.1-1.338-8.073-5.155c.023-3.571,3.351-6.086,5.976-8.538a5.274,5.274,0,0,0,1.518-2.026,2.024,2.024,0,0,0-.586-2.3,3.019,3.019,0,0,0-2.823.146,47.871,47.871,0,0,0-17.7,13.344,84.227,84.227,0,0,0-11.754,18.868A138.512,138.512,0,0,0,188.3,342.477a42.176,42.176,0,0,0,13.727,6.213C209.4,350.312,223.519,350.374,223.519,350.374Z" transform="translate(-188.3 -262.997)" fill="#e8614e"/>
                <path id="Path_104331" data-name="Path 104331" d="M236.582,295.178A40.512,40.512,0,0,1,254.793,280.8a7.789,7.789,0,0,0,2.559-1.3,1.708,1.708,0,0,0,.617-2.187c-.481-.977-2.042-1.33-3.137-1.253-4.52.315-6.508,1.065-11.028,3.033-3.316,1.445-5.456,2.222-9.312,2.23s-8.1-1.338-8.073-5.155c.023-3.572,3.351-6.086,5.976-8.538a5.274,5.274,0,0,0,1.518-2.026,2.025,2.025,0,0,0-.586-2.3,3.019,3.019,0,0,0-2.823.146A47.871,47.871,0,0,0,212.8,276.8a84.226,84.226,0,0,0-11.754,18.868A138.513,138.513,0,0,0,188.3,342.487" transform="translate(-188.3 -263.003)" fill="none" stroke="#2e2854" stroke-linecap="round" stroke-linejoin="round" stroke-width="1.5"/>
              </g>
            </g>
          </g>
        </g>
        <g id="Group_642" data-name="Group 642" transform="translate(23.179 52.554)">
          <g id="Group_640" data-name="Group 640" transform="translate(110.042 47.078)">
            <path id="Path_104335" data-name="Path 104335" d="M403.12,313.183a21.853,21.853,0,0,1,2.691-3.683,24.97,24.97,0,0,1,2.791,3.252" transform="translate(-410.12 -309.5)" fill="none" stroke="#2e2854" stroke-linecap="round" stroke-linejoin="round" stroke-width="1.5"/>
            <path id="Path_104336" data-name="Path 104336" d="M410.12,309.5c.511,11.733.792,38.848,1.3,50.581" transform="translate(-414.429 -305.817)" fill="none" stroke="#2e2854" stroke-linecap="round" stroke-linejoin="round" stroke-width="1.5" stroke-dasharray="5 7 5 7 5 7"/>
          </g>
          <g id="Group_641" data-name="Group 641" transform="translate(153.127)">
            <path id="Path_104337" data-name="Path 104337" d="M519.266,303.96a22.119,22.119,0,0,1-2.749,3.641,24.984,24.984,0,0,1-2.737-3.3" transform="translate(-513.78 -259.011)" fill="none" stroke="#2e2854" stroke-linecap="round" stroke-linejoin="round" stroke-width="1.5"/>
          </g>
        </g>
      </g>
      <g id="Group_652" data-name="Group 652" transform="translate(2.091 0)">
        <path id="Path_104339" data-name="Path 104339" d="M437.583,462.118a2.083,2.083,0,0,0-2.718.407,2.054,2.054,0,0,0,.258,2.73,1.994,1.994,0,1,0,2.46-3.137Z" transform="translate(-291.172 -298.493)" fill="#f5decf"/>
        <path id="Path_104340" data-name="Path 104340" d="M81.116,418.138a2.083,2.083,0,0,0-2.718.408,2.058,2.058,0,0,0,.258,2.73,1.994,1.994,0,1,0,2.46-3.137Z" transform="translate(-73.243 -271.42)" fill="#f5decf"/>
        <path id="Path_104341" data-name="Path 104341" d="M543.873,128.488a2.083,2.083,0,0,0-2.718.408,2.054,2.054,0,0,0,.258,2.73,1.994,1.994,0,1,0,2.46-3.137Z" transform="translate(-356.168 -93.123)" fill="#f5decf"/>
        <path id="Path_104342" data-name="Path 104342" d="M103.025,68.467a3.445,3.445,0,1,0,.923,3.525A3.494,3.494,0,0,0,103.025,68.467Z" transform="translate(-88.634 -52.382)" fill="#f5decf"/>
        <g id="Group_644" data-name="Group 644" transform="translate(118.526 114.99)">
          <path id="Path_104343" data-name="Path 104343" d="M374.982,336.14c-.019,1.065-.042,2.126-.062,3.191" transform="translate(-374.309 -353.14)" fill="none" stroke="#2e2854" stroke-linecap="round" stroke-linejoin="round" stroke-width="1.5"/>
          <line id="Line_57" data-name="Line 57" y1="0.073" x2="3.175" transform="translate(-1 -15.528)" fill="none" stroke="#2e2854" stroke-linecap="round" stroke-linejoin="round" stroke-width="1.5"/>
        </g>
        <path id="Path_104345" data-name="Path 104345" d="M525.027,110.616a1.194,1.194,0,1,0,.953,1.618A1.178,1.178,0,0,0,525.027,110.616Z" transform="translate(-345.657 -82.321)" fill="#f5decf"/>
        <path id="Path_104346" data-name="Path 104346" d="M78.947,119.246a1.194,1.194,0,1,0,.953,1.618A1.182,1.182,0,0,0,78.947,119.246Z" transform="translate(-76.554 -84.2)" fill="#f5decf"/>
        <path id="Path_104347" data-name="Path 104347" d="M119.557,436.836a1.194,1.194,0,1,0,.953,1.618A1.182,1.182,0,0,0,119.557,436.836Z" transform="translate(-97.994 -283.129)" fill="#f5decf"/>
        <path id="Path_104348" data-name="Path 104348" d="M472.387,57.8a1.194,1.194,0,1,0,.953,1.618A1.179,1.179,0,0,0,472.387,57.8Z" transform="translate(-313.254 -49.807)" fill="#f5decf"/>
        <path id="Path_104349" data-name="Path 104349" d="M157.717,421.366a1.194,1.194,0,1,0,.953,1.618A1.178,1.178,0,0,0,157.717,421.366Z" transform="translate(-121.484 -273.606)" fill="#fff"/>
        <path id="Path_104350" data-name="Path 104350" d="M449.587,363.8a1.194,1.194,0,1,0,.953,1.619A1.182,1.182,0,0,0,449.587,363.8Z" transform="translate(-299.607 -238.168)" fill="#fff"/>
        <g id="Group_646" data-name="Group 646" transform="translate(50.064 60.299)">
          <path id="Path_104351" data-name="Path 104351" d="M318.751,243.64c-.019,1.065-.042,2.126-.061,3.191" transform="translate(-317.079 -243.64)" fill="none" stroke="#fff" stroke-linecap="round" stroke-linejoin="round" stroke-width="1.5"/>
          <line id="Line_59" data-name="Line 59" y1="0.073" x2="3.175" transform="translate(0 1.472)" fill="none" stroke="#fff" stroke-linecap="round" stroke-linejoin="round" stroke-width="1.5"/>
        </g>
        <g id="Group_647" data-name="Group 647" transform="translate(81.049 15.166)">
          <path id="Path_104352" data-name="Path 104352" d="M278.512,76.48c-.019,1.065-.042,2.126-.062,3.191" transform="translate(-276.839 -76.48)" fill="none" stroke="#fff" stroke-linecap="round" stroke-linejoin="round" stroke-width="1.5"/>
          <line id="Line_60" data-name="Line 60" y1="0.073" x2="3.175" transform="translate(0 1.476)" fill="none" stroke="#fff" stroke-linecap="round" stroke-linejoin="round" stroke-width="1.5"/>
        </g>
        <g id="Group_648" data-name="Group 648" transform="translate(82.653 110.884)">
          <path id="Path_104353" data-name="Path 104353" d="M282.642,325.46c-.019,1.065-.042,2.126-.061,3.191" transform="translate(-281.969 -341.46)" fill="none" stroke="#fff" stroke-linecap="round" stroke-linejoin="round" stroke-width="1.5"/>
          <line id="Line_61" data-name="Line 61" y1="0.073" x2="3.175" transform="translate(-1 -14.524)" fill="none" stroke="#fff" stroke-linecap="round" stroke-linejoin="round" stroke-width="1.5"/>
        </g>
        <g id="Group_649" data-name="Group 649" transform="translate(157.065 108.343)">
          <path id="Path_104354" data-name="Path 104354" d="M473.422,318.85c-.019,1.065-.042,2.126-.062,3.191" transform="translate(-471.749 -318.85)" fill="none" stroke="#fff" stroke-linecap="round" stroke-linejoin="round" stroke-width="1.5"/>
          <line id="Line_62" data-name="Line 62" y1="0.073" x2="3.175" transform="translate(0 1.472)" fill="none" stroke="#fff" stroke-linecap="round" stroke-linejoin="round" stroke-width="1.5"/>
        </g>
        <g id="Group_651" data-name="Group 651" transform="translate(115.317 9.584)">
          <path id="Path_104356" data-name="Path 104356" d="M338.742,165.01c-.019,1.065-.042,2.126-.061,3.191" transform="translate(-337.065 -165.01)" fill="none" stroke="#2e2854" stroke-linecap="round" stroke-linejoin="round" stroke-width="1.5"/>
          <line id="Line_64" data-name="Line 64" y1="0.073" x2="3.175" transform="translate(0 1.472)" fill="none" stroke="#2e2854" stroke-linecap="round" stroke-linejoin="round" stroke-width="1.5"/>
        </g>
        <ellipse id="Ellipse_64" data-name="Ellipse 64" cx="1.042" cy="1.042" rx="1.042" ry="1.042" transform="translate(0 58.216)" fill="none" stroke="#2e2854" stroke-linecap="round" stroke-linejoin="round" stroke-width="1.5"/>
        <ellipse id="Ellipse_65" data-name="Ellipse 65" cx="1.042" cy="1.042" rx="1.042" ry="1.042" transform="translate(175.691 151.931)" fill="none" stroke="#2e2854" stroke-linecap="round" stroke-linejoin="round" stroke-width="1.5"/>
        <ellipse id="Ellipse_66" data-name="Ellipse 66" cx="1.042" cy="1.042" rx="1.042" ry="1.042" transform="translate(179.066 10.691)" fill="none" stroke="#2e2854" stroke-linecap="round" stroke-linejoin="round" stroke-width="1.5"/>
      </g>
    </g>
    <g id="Group_778" data-name="Group 778" transform="translate(5232 5405.274)">
      <g id="Group_653" data-name="Group 653">
        <path id="Path_104094" data-name="Path 104094" d="M20,38.147s32.491-1.59,34.182,1.038.677,17.722,0,18.888-16.077.384-15.4,1.285,1.654,3.851.977,4.072-7.113-3.584-7.113-3.584-14.56,1.369-15.405-.113S14.422,38.371,20,38.147Z" transform="translate(-17.202 -37.67)" fill="#bb386e"/>
      </g>
      <path id="Path_104680" data-name="Path 104680" d="M.977-15.734v12.8H4.664a9.448,9.448,0,0,0,5.989-1.875,5.978,5.978,0,0,0,1.8-4.519,6.027,6.027,0,0,0-1.8-4.533A8.226,8.226,0,0,0,5.22-15.742H4.942v.008ZM9.19-9.345C8.9-7.18,7.3-6.056,4.763-6.056H4.417l-.03-6.58h.824C7.452-12.635,9.19-11.478,9.19-9.345Z" transform="translate(12.613 19.54)" fill="#fff"/>
    </g>
    <g id="Group_779" data-name="Group 779" transform="translate(5264.167 5427.95)">
      <g id="Group_654" data-name="Group 654">
        <path id="Path_104100" data-name="Path 104100" d="M143.5,116.773s-28.732-1.293-30.157,1.334-.57,17.722,0,18.888,13.539.384,12.967,1.285-1.407,3.8-.837,4.02,5.38-3.395,5.38-3.395,13.49.558,14.2-.924S148.2,117,143.5,116.773Z" transform="translate(-112.568 -116.455)" fill="#e39036"/>
      </g>
      <path id="Path_104679" data-name="Path 104679" d="M4.627-8.394v5.461H8.142V-8.394l4.241-7.348H8.831L6.384-11.62,3.938-15.742H.395Z" transform="translate(9.976 21.176)" fill="#fff"/>
    </g>
    <g id="Group_836" data-name="Group 836" transform="translate(5267.167 5424.95)">
      <g id="Group_654-2" data-name="Group 654">
        <path id="Path_104100-2" data-name="Path 104100" d="M143.5,116.773s-28.732-1.293-30.157,1.334-.57,17.722,0,18.888,13.539.384,12.967,1.285-1.407,3.8-.837,4.02,5.38-3.395,5.38-3.395,13.49.558,14.2-.924S148.2,117,143.5,116.773Z" transform="translate(-112.568 -116.455)" fill="#f7a145"/>
      </g>
      <path id="Path_104679-2" data-name="Path 104679" d="M4.627-8.394v5.461H8.142V-8.394l4.241-7.348H8.831L6.384-11.62,3.938-15.742H.395Z" transform="translate(9.976 21.176)" fill="#fff"/>
    </g>
    <g id="Group_772" data-name="Group 772" transform="translate(5246.677 5353.354)">
      <path id="Path_104605" data-name="Path 104605" d="M523.856,84.847q-26.778,1.087-53.577-.38a4.148,4.148,0,0,1-3.9-3.936c-.484-9.483-.592-16.725-.481-25.578a4.146,4.146,0,0,1,4.037-4.094c17.991-.465,35.969-.563,53.6-.019a4.154,4.154,0,0,1,4.028,3.949,260.985,260.985,0,0,1,.266,26.116A4.149,4.149,0,0,1,523.856,84.847Z" transform="translate(-462.332 -46.796)" fill="#2e2854" opacity="0.15"/>
      <path id="Path_104606" data-name="Path 104606" d="M512.726,73.237q-26.777,1.087-53.577-.38a4.148,4.148,0,0,1-3.9-3.936c-.484-9.483-.592-16.725-.481-25.578a4.146,4.146,0,0,1,4.037-4.094c17.991-.465,35.969-.563,53.6-.019a4.154,4.154,0,0,1,4.028,3.949,261,261,0,0,1,.266,26.116A4.149,4.149,0,0,1,512.726,73.237Z" transform="translate(-454.724 -38.86)" fill="#fff"/>
      <path id="Path_104607" data-name="Path 104607" d="M512.726,73.237q-26.777,1.087-53.577-.38a4.148,4.148,0,0,1-3.9-3.936c-.484-9.483-.592-16.725-.481-25.578a4.146,4.146,0,0,1,4.037-4.094c17.991-.465,35.969-.563,53.6-.019a4.154,4.154,0,0,1,4.028,3.949,261,261,0,0,1,.266,26.116A4.149,4.149,0,0,1,512.726,73.237Z" transform="translate(-454.724 -38.86)" fill="none" stroke="#2e2854" stroke-linecap="round" stroke-linejoin="round" stroke-width="1"/>
      <path id="Path_104645" data-name="Path 104645" d="M146.679,188.109l20.407-.408c.093,0,.171.16.188.376l.218,2.807c.022.283-.072.545-.193.539l-20.549.2c-.1,0-.183-.188-.191-.425l-.076-2.595C146.475,188.334,146.565,188.106,146.679,188.109Z" transform="translate(-138.794 -175.477)" fill="#fff" stroke="#2e2854" stroke-width="1"/>
      <path id="Path_104646" data-name="Path 104646" d="M146.679,188.109l20.407-.408c.093,0,.171.16.188.376l.218,2.807c.022.283-.072.545-.193.539l-20.549.2c-.1,0-.183-.188-.191-.425l-.076-2.595C146.475,188.334,146.565,188.106,146.679,188.109Z" transform="translate(-138.808 -163.598)" fill="#fff" stroke="#2e2854" stroke-width="1"/>
      <rect id="Rectangle_198" data-name="Rectangle 198" width="23.424" height="1.762" transform="translate(7.675 7.806)" fill="#d24d84"/>
      <rect id="Rectangle_199" data-name="Rectangle 199" width="14.324" height="1.762" transform="translate(33.367 7.806)" fill="#d24d84"/>
      <line id="Line_78" data-name="Line 78" x2="23.829" transform="translate(31.16 14.584)" fill="none" stroke="#2e2854" stroke-linecap="round" stroke-linejoin="round" stroke-width="1"/>
      <line id="Line_79" data-name="Line 79" x2="47.287" transform="translate(7.689 20.122)" fill="none" stroke="#2e2854" stroke-linecap="round" stroke-linejoin="round" stroke-width="1"/>
      <line id="Line_80" data-name="Line 80" x2="23.829" y2="0.293" transform="translate(31.146 25.693)" fill="none" stroke="#2e2854" stroke-linecap="round" stroke-linejoin="round" stroke-width="1"/>
    </g>
    <g id="Group_777" data-name="Group 777" transform="translate(5314.32 5373.939)">
      <g id="Group_341" data-name="Group 341" transform="translate(26.721 43.371)">
        <g id="Group_326" data-name="Group 326" transform="translate(8)">
          <path id="Path_103613" data-name="Path 103613" d="M124.91,362.894c2.031-12.246,16.183-20.1,31.606-17.541s26.277,14.565,24.245,26.812-16.183,20.1-31.606,17.541c-.144-.023-.288-.052-.432-.075a13.844,13.844,0,0,1-6.175,5.83,15.108,15.108,0,0,0,1.692-6.935C131.5,384.5,123.1,373.793,124.91,362.894Z" transform="translate(-114.513 -343.149)" fill="#2e2854" opacity="0.16"/>
          <path id="Path_104713" data-name="Path 104713" d="M124.91,362.894c2.031-12.246,16.183-20.1,31.606-17.541s26.277,14.565,24.245,26.812-16.183,20.1-31.606,17.541c-.144-.023-.288-.052-.432-.075a13.844,13.844,0,0,1-6.175,5.83,15.108,15.108,0,0,0,1.692-6.935C131.5,384.5,123.1,373.793,124.91,362.894Z" transform="translate(-115.373 -344.869)" fill="#fff" stroke="#2e2854" stroke-width="1"/>
        </g>
      </g>
      <g id="Group_348" data-name="Group 348" transform="translate(2 2.605)">
        <g id="Group_342" data-name="Group 342">
          <path id="Path_103623" data-name="Path 103623" d="M117.3,297.119c-.8-12.5-14.2-21.81-29.929-20.812s-27.846,11.944-27.051,24.439,14.2,21.81,29.929,20.812l.441-.035A13.914,13.914,0,0,0,96.3,328a15.225,15.225,0,0,1-.992-7.127C108.5,318.128,118.011,308.239,117.3,297.119Z" transform="translate(-58.267 -275.234)" fill="#2e2854" opacity="0.15"/>
          <path id="Path_104681" data-name="Path 104681" d="M116.323,296.76c-.781-12.28-13.952-21.435-29.415-20.454s-27.367,11.739-26.586,24.019,13.952,21.435,29.415,20.454l.433-.034a13.675,13.675,0,0,0,5.51,6.366,14.964,14.964,0,0,1-.975-7C107.671,317.408,117.019,307.689,116.323,296.76Z" transform="translate(-60.286 -276.234)" fill="#fff" stroke="#2e2854" stroke-width="1"/>
        </g>
        <g id="Group_347" data-name="Group 347" transform="translate(16.994 7.46)">
          <g id="Group_344" data-name="Group 344" transform="translate(1.757)">
            <g id="Group_343" data-name="Group 343">
              <path id="Path_103624" data-name="Path 103624" d="M102.777,289.317c10.6-.262,14.026,14.294,3.7,17.6.491,3.034-3.337,2.943-5.333,2.493-1.46-.445-1.5-1.814-1.392-3.154a4.243,4.243,0,0,1,3.24-4.192c1.472-.439,3.3-1.42,3.24-3.194.262-2.841-3.24-3.548-5.333-2.43a1.9,1.9,0,0,0-1.015,1.472c-.753,3.451-4.363,2.053-6.126.622-1.112-1.038-.4-2.236.063-3.633A9.613,9.613,0,0,1,102.777,289.317Zm.211,23.454c3.04.086,3.839.8,3.862,3.941.222,2.658-1.164,4.016-3.9,3.822-2.943.063-4.078-1.141-3.862-3.941C98.83,313.924,100.238,312.595,102.988,312.771Z" transform="translate(-93.16 -289.313)" fill="#412945"/>
            </g>
          </g>
          <g id="Group_346" data-name="Group 346">
            <g id="Group_345" data-name="Group 345">
              <path id="Path_103625" data-name="Path 103625" d="M99.7,289.317c10.6-.262,14.026,14.294,3.7,17.6.491,3.034-3.337,2.943-5.333,2.493-1.46-.445-1.5-1.814-1.392-3.154a4.243,4.243,0,0,1,3.24-4.192c1.472-.439,3.3-1.42,3.24-3.194.262-2.841-3.24-3.548-5.333-2.43a1.9,1.9,0,0,0-1.015,1.472c-.753,3.451-4.363,2.053-6.126.622-1.112-1.038-.4-2.236.063-3.633A9.613,9.613,0,0,1,99.7,289.317Zm.205,23.454c3.04.086,3.839.8,3.862,3.941.222,2.658-1.164,4.016-3.9,3.822-2.943.063-4.078-1.141-3.862-3.941C95.744,313.924,97.158,312.595,99.9,312.771Z" transform="translate(-90.08 -289.313)" fill="#e36d5d"/>
            </g>
          </g>
        </g>
      </g>
      <g id="Group_837" data-name="Group 837" transform="translate(-2 1.605)">
        <g id="Group_342-2" data-name="Group 342">
          <path id="Path_103623-2" data-name="Path 103623" d="M117.3,297.119c-.8-12.5-14.2-21.81-29.929-20.812s-27.846,11.944-27.051,24.439,14.2,21.81,29.929,20.812l.441-.035A13.914,13.914,0,0,0,96.3,328a15.225,15.225,0,0,1-.992-7.127C108.5,318.128,118.011,308.239,117.3,297.119Z" transform="translate(-58.267 -275.234)" fill="#2e2854" opacity="0.15"/>
          <path id="Path_104681-2" data-name="Path 104681" d="M116.323,296.76c-.781-12.28-13.952-21.435-29.415-20.454s-27.367,11.739-26.586,24.019,13.952,21.435,29.415,20.454l.433-.034a13.675,13.675,0,0,0,5.51,6.366,14.964,14.964,0,0,1-.975-7C107.671,317.408,117.019,307.689,116.323,296.76Z" transform="translate(-60.286 -276.234)" fill="#fff" stroke="#2e2854" stroke-width="1"/>
        </g>
        <g id="Group_347-2" data-name="Group 347" transform="translate(16.994 7.46)">
          <g id="Group_344-2" data-name="Group 344" transform="translate(1.757)">
            <g id="Group_343-2" data-name="Group 343">
              <path id="Path_103624-2" data-name="Path 103624" d="M102.777,289.317c10.6-.262,14.026,14.294,3.7,17.6.491,3.034-3.337,2.943-5.333,2.493-1.46-.445-1.5-1.814-1.392-3.154a4.243,4.243,0,0,1,3.24-4.192c1.472-.439,3.3-1.42,3.24-3.194.262-2.841-3.24-3.548-5.333-2.43a1.9,1.9,0,0,0-1.015,1.472c-.753,3.451-4.363,2.053-6.126.622-1.112-1.038-.4-2.236.063-3.633A9.613,9.613,0,0,1,102.777,289.317Zm.211,23.454c3.04.086,3.839.8,3.862,3.941.222,2.658-1.164,4.016-3.9,3.822-2.943.063-4.078-1.141-3.862-3.941C98.83,313.924,100.238,312.595,102.988,312.771Z" transform="translate(-93.16 -289.313)" fill="#412945"/>
            </g>
          </g>
          <g id="Group_346-2" data-name="Group 346">
            <g id="Group_345-2" data-name="Group 345">
              <path id="Path_103625-2" data-name="Path 103625" d="M99.7,289.317c10.6-.262,14.026,14.294,3.7,17.6.491,3.034-3.337,2.943-5.333,2.493-1.46-.445-1.5-1.814-1.392-3.154a4.243,4.243,0,0,1,3.24-4.192c1.472-.439,3.3-1.42,3.24-3.194.262-2.841-3.24-3.548-5.333-2.43a1.9,1.9,0,0,0-1.015,1.472c-.753,3.451-4.363,2.053-6.126.622-1.112-1.038-.4-2.236.063-3.633A9.613,9.613,0,0,1,99.7,289.317Zm.205,23.454c3.04.086,3.839.8,3.862,3.941.222,2.658-1.164,4.016-3.9,3.822-2.943.063-4.078-1.141-3.862-3.941C95.744,313.924,97.158,312.595,99.9,312.771Z" transform="translate(-90.08 -289.313)" fill="#e36d5d"/>
            </g>
          </g>
        </g>
      </g>
      <g id="Group_839" data-name="Group 839" transform="translate(36.721 42.371)">
        <g id="Group_326-2" data-name="Group 326">
          <path id="Path_103613-2" data-name="Path 103613" d="M124.91,362.894c2.031-12.246,16.183-20.1,31.606-17.541s26.277,14.565,24.245,26.812-16.183,20.1-31.606,17.541c-.144-.023-.288-.052-.432-.075a13.844,13.844,0,0,1-6.175,5.83,15.108,15.108,0,0,0,1.692-6.935C131.5,384.5,123.1,373.793,124.91,362.894Z" transform="translate(-114.513 -343.149)" fill="#2e2854" opacity="0.16"/>
          <path id="Path_104713-2" data-name="Path 104713" d="M124.91,362.894c2.031-12.246,16.183-20.1,31.606-17.541s26.277,14.565,24.245,26.812-16.183,20.1-31.606,17.541c-.144-.023-.288-.052-.432-.075a13.844,13.844,0,0,1-6.175,5.83,15.108,15.108,0,0,0,1.692-6.935C131.5,384.5,123.1,373.793,124.91,362.894Z" transform="translate(-115.373 -344.869)" fill="#fff" stroke="#2e2854" stroke-width="1"/>
        </g>
        <g id="Group_328" data-name="Group 328" transform="translate(52.645 4.403)">
          <g id="Group_327" data-name="Group 327">
            <path id="Path_103614" data-name="Path 103614" d="M212.967,361.224l7.707-.977-7.553-1.191-.963-7.606-1.2,7.633-7.6.883,7.626,1.1.9,7.7Z" transform="translate(-204.36 -366.45)" fill="#e36d5d"/>
          </g>
        </g>
      </g>
    </g>
    <g id="Group_782" data-name="Group 782" transform="matrix(0.914, 0.407, -0.407, 0.914, 5396.832, 5429.58)">
      <path id="Path_104683" data-name="Path 104683" d="M374.217,177.314a7.846,7.846,0,0,1,1.414.238,6.39,6.39,0,0,1,3.005,1.946,7.688,7.688,0,0,1,1.041,1.686c.028.071.057.142.082.214a1.385,1.385,0,0,0,.757.88,1.925,1.925,0,0,0,1.34.05,2.132,2.132,0,0,0,1.138-.809,1.472,1.472,0,0,0,.271-1.195,8.958,8.958,0,0,0-3.193-4.34,9.338,9.338,0,0,0-4.908-1.763,9.192,9.192,0,0,0-5.607,1.455,12.078,12.078,0,0,0-2.531,2.273,13.035,13.035,0,0,0-1.629,2.533,14.875,14.875,0,0,0-.666,11.679,15.268,15.268,0,0,0,.954,2.045,7.556,7.556,0,0,0,.993,2.826,6.345,6.345,0,0,0,3.413,2.53,8.682,8.682,0,0,0,3.783.394,10.519,10.519,0,0,0,3.731-1.214c.041-.022.082-.047.123-.071a8.892,8.892,0,0,0,1.1-.627,9.446,9.446,0,0,0,3.736-4.647,9.853,9.853,0,0,0,.4-1.574,1.278,1.278,0,0,0-.442-1.077,1.649,1.649,0,0,0-.979-.343,2.056,2.056,0,0,0-1.159.275,1.9,1.9,0,0,0-.889,1,9.341,9.341,0,0,1-.644,1.642,9.5,9.5,0,0,1-.984,1.409,9.349,9.349,0,0,1-1.148,1.036q-.229.153-.463.293l-.02.009a7.437,7.437,0,0,1-.976.3.937.937,0,0,0-.184-.639,14.658,14.658,0,0,1-2.239-3.655,18.087,18.087,0,0,1-1.207-5.2,18.413,18.413,0,0,1,.39-5.025,15.759,15.759,0,0,1,1.28-3.416c.027-.049.054-.1.08-.145a1.865,1.865,0,0,0,.305-.963C373.859,177.316,374.039,177.313,374.217,177.314Z" transform="translate(-363.839 -174.208)" fill="#f7a145"/>
      <path id="Path_104684" data-name="Path 104684" d="M388.525,191.353a1.106,1.106,0,0,0-1.124.3,14.163,14.163,0,0,0-3.243,11,12.91,12.91,0,0,0,.844,3.205.756.756,0,0,0,.938.323c.264-.071.8-.384.65-.749a13.236,13.236,0,0,1,.428-10.743,12.22,12.22,0,0,1,1.71-2.577A.452.452,0,0,0,388.525,191.353Z" transform="translate(-380.862 -188.612)" fill="#e2ae2b"/>
      <path id="Path_104685" data-name="Path 104685" d="M397.175,303.354l-.535-1.145a.365.365,0,0,0-.128-.2.443.443,0,0,0-.214-.142,1,1,0,0,0-.608-.019.973.973,0,0,0-.516.32l-.093.15a.476.476,0,0,0-.03.32l.535,1.144a.364.364,0,0,0,.127.2.444.444,0,0,0,.214.142,1,1,0,0,0,.608.019.972.972,0,0,0,.516-.32l.093-.15A.485.485,0,0,0,397.175,303.354Z" transform="translate(-390.125 -281.72)" fill="#e2ae2b"/>
    </g>
    <path id="Path_104714" data-name="Path 104714" d="M273.9,199.521c-.286-.09-.209-.225-.079-.4a10.965,10.965,0,0,0,1.641-3.5,8.679,8.679,0,0,0,.363-3.759,6.114,6.114,0,0,0-2.165-3.909,5.615,5.615,0,0,0-3.257-1.471,7.473,7.473,0,0,0-5.449,1.639,1.372,1.372,0,0,0-.537,1.055,10.094,10.094,0,0,1-.1,1.178,66.256,66.256,0,0,0-.757,8.827c-.038,1.152-.148,2.3-.258,3.451a46.426,46.426,0,0,0-.326,4.744c-.055.579.088,1.35.084,2.127-.007,1.682.009,3.363,0,5.043a5.094,5.094,0,0,0,.112,1.006,1.717,1.717,0,0,0,1.236,1.421c.267.081.551.106.826.17a12.858,12.858,0,0,0,4.927.456,12.057,12.057,0,0,0,5.272-1.931,9.626,9.626,0,0,0,4.063-7.508A7.607,7.607,0,0,0,278,202.949,8.358,8.358,0,0,0,273.9,199.521Z" transform="matrix(0.978, 0.208, -0.208, 0.978, 5166.897, 5183.646)" fill="#6d7fe3"/>
    <g id="Group_783" data-name="Group 783" transform="translate(-1608.289 835.533)">
      <path id="Path_104714-2" data-name="Path 104714" d="M96.166,224.614c-.183-1.541-.38-3.076-.687-4.6-.572-2.842-1.2-5.674-1.587-8.548a33.227,33.227,0,0,0-1.83-7.451,8.1,8.1,0,0,0-.894-1.914,1.266,1.266,0,0,0-2.26.181c-.491,1.058-.885,2.171-1.455,3.183-1.382,2.45-2.458,5.049-3.71,7.564-1.164,2.339-1.988,4.826-2.967,7.243-.991,2.445-1.763,4.977-2.751,7.427a5.725,5.725,0,0,0-.541,1.9c-.01.236.045.372.322.373.652.007,1.3.026,1.955.074a.661.661,0,0,0,.741-.452,24.2,24.2,0,0,0,1.159-2.955c.919-3.082,2.231-6.016,3.369-9.014.084-.221.238-.241.433-.24.774,0,1.548-.017,2.321.048.313.026.4.113.425.426.091,1.3.258,2.594.464,3.883.231,1.454.419,2.914.649,4.369a34.544,34.544,0,0,0,.58,3.446c.08.3.185.466.548.449.9-.043,1.794-.034,2.691-.046v-.014c.912-.012,1.825-.029,2.737-.033.348,0,.515-.1.512-.508A43.5,43.5,0,0,0,96.166,224.614Zm-8.057-14.377c.024,1.3-.13,2.6-.046,3.893.024.378-.183.392-.452.365-.349,0-.7,0-1.046.012-.25.007-.378-.034-.257-.337.584-1.459,1.212-2.9,1.686-4.4h0c.168.125.08.313.115.471l0,0a0,0,0,0,0,0,0Z" transform="translate(6897.23 4383.674)" fill="#f28559"/>
      <path id="Path_104715" data-name="Path 104715" d="M150.648,226.243q-.239-2.519-.449-5.04c-.024-.293-1.012-.08-.983.277q.747,8.965,1.854,17.9.311,2.512.651,5.018c.041.3,1.031.074.983-.277Q151.5,235.2,150.648,226.243Z" transform="translate(6837.778 4367.454)" fill="#d8673f"/>
      <path id="Path_104716" data-name="Path 104716" d="M170.192,312.833c-.007-.207-.993-.034-.983.277a35.751,35.751,0,0,0,.758,6.283c.051.247,1.041,0,.983-.277A35.413,35.413,0,0,1,170.192,312.833Z" transform="translate(6821.208 4291.472)" fill="#d8673f"/>
      <path id="Path_104717" data-name="Path 104717" d="M165.978,288.666a1.386,1.386,0,0,0-.128-.313,1.01,1.01,0,0,0-.158-.223.44.44,0,0,0-.283-.14.694.694,0,0,0-.389.072.516.516,0,0,0-.25.24.27.27,0,0,0,.024.277,1.057,1.057,0,0,1,.132.183,1.072,1.072,0,0,1,.086.3,1.038,1.038,0,0,1-.031.3.272.272,0,0,0,.123.248.531.531,0,0,0,.337.074.7.7,0,0,0,.368-.14l.084-.082a.358.358,0,0,0,.084-.187A1.18,1.18,0,0,0,165.978,288.666Z" transform="translate(6824.909 4311.99)" fill="#d8673f"/>
    </g>
    <g id="Group_834" data-name="Group 834" transform="translate(5243.677 5350.354)">
      <path id="Path_104605-2" data-name="Path 104605" d="M523.856,84.847q-26.778,1.087-53.577-.38a4.148,4.148,0,0,1-3.9-3.936c-.484-9.483-.592-16.725-.481-25.578a4.146,4.146,0,0,1,4.037-4.094c17.991-.465,35.969-.563,53.6-.019a4.154,4.154,0,0,1,4.028,3.949,260.985,260.985,0,0,1,.266,26.116A4.149,4.149,0,0,1,523.856,84.847Z" transform="translate(-462.332 -46.796)" fill="#2e2854" opacity="0.15"/>
      <path id="Path_104606-2" data-name="Path 104606" d="M512.726,73.237q-26.777,1.087-53.577-.38a4.148,4.148,0,0,1-3.9-3.936c-.484-9.483-.592-16.725-.481-25.578a4.146,4.146,0,0,1,4.037-4.094c17.991-.465,35.969-.563,53.6-.019a4.154,4.154,0,0,1,4.028,3.949,261,261,0,0,1,.266,26.116A4.149,4.149,0,0,1,512.726,73.237Z" transform="translate(-454.724 -38.86)" fill="#fff"/>
      <path id="Path_104607-2" data-name="Path 104607" d="M512.726,73.237q-26.777,1.087-53.577-.38a4.148,4.148,0,0,1-3.9-3.936c-.484-9.483-.592-16.725-.481-25.578a4.146,4.146,0,0,1,4.037-4.094c17.991-.465,35.969-.563,53.6-.019a4.154,4.154,0,0,1,4.028,3.949,261,261,0,0,1,.266,26.116A4.149,4.149,0,0,1,512.726,73.237Z" transform="translate(-454.724 -38.86)" fill="none" stroke="#2e2854" stroke-linecap="round" stroke-linejoin="round" stroke-width="1"/>
      <path id="Path_104645-2" data-name="Path 104645" d="M146.679,188.109l20.407-.408c.093,0,.171.16.188.376l.218,2.807c.022.283-.072.545-.193.539l-20.549.2c-.1,0-.183-.188-.191-.425l-.076-2.595C146.475,188.334,146.565,188.106,146.679,188.109Z" transform="translate(-138.794 -175.477)" fill="#fff" stroke="#2e2854" stroke-width="1"/>
      <path id="Path_104646-2" data-name="Path 104646" d="M146.679,188.109l20.407-.408c.093,0,.171.16.188.376l.218,2.807c.022.283-.072.545-.193.539l-20.549.2c-.1,0-.183-.188-.191-.425l-.076-2.595C146.475,188.334,146.565,188.106,146.679,188.109Z" transform="translate(-138.808 -163.598)" fill="#fff" stroke="#2e2854" stroke-width="1"/>
      <rect id="Rectangle_198-2" data-name="Rectangle 198" width="23.424" height="1.762" transform="translate(7.675 7.806)" fill="#d24d84"/>
      <rect id="Rectangle_199-2" data-name="Rectangle 199" width="14.324" height="1.762" transform="translate(33.367 7.806)" fill="#d24d84"/>
      <line id="Line_78-2" data-name="Line 78" x2="23.829" transform="translate(31.16 14.584)" fill="none" stroke="#2e2854" stroke-linecap="round" stroke-linejoin="round" stroke-width="1"/>
      <line id="Line_79-2" data-name="Line 79" x2="47.287" transform="translate(7.689 20.122)" fill="none" stroke="#2e2854" stroke-linecap="round" stroke-linejoin="round" stroke-width="1"/>
      <line id="Line_80-2" data-name="Line 80" x2="23.829" y2="0.293" transform="translate(31.146 25.693)" fill="none" stroke="#2e2854" stroke-linecap="round" stroke-linejoin="round" stroke-width="1"/>
    </g>
    <g id="Group_835" data-name="Group 835" transform="translate(5229 5402.182)">
      <g id="Group_653-2" data-name="Group 653">
        <path id="Path_104094-2" data-name="Path 104094" d="M20,38.147s32.491-1.59,34.182,1.038.677,17.722,0,18.888-16.077.384-15.4,1.285,1.654,3.851.977,4.072-7.113-3.584-7.113-3.584-14.56,1.369-15.405-.113S14.422,38.371,20,38.147Z" transform="translate(-16.202 -37.67)" fill="#d24d84"/>
      </g>
      <path id="Path_104680-2" data-name="Path 104680" d="M.977-15.734v12.8H4.664a9.448,9.448,0,0,0,5.989-1.875,5.978,5.978,0,0,0,1.8-4.519,6.027,6.027,0,0,0-1.8-4.533A8.226,8.226,0,0,0,5.22-15.742H4.942v.008ZM9.19-9.345C8.9-7.18,7.3-6.056,4.763-6.056H4.417l-.03-6.58h.824C7.452-12.635,9.19-11.478,9.19-9.345Z" transform="translate(12.613 19.54)" fill="#fff"/>
    </g>
  </g>
</svg>
