<svg xmlns="http://www.w3.org/2000/svg" width="56.972" height="35.838" viewBox="0 0 56.972 35.838">
  <g id="Group_1350" data-name="Group 1350" transform="translate(-8604.507 1486.337)">
    <g id="Group_1332" data-name="Group 1332" transform="translate(197.323 56.806)">
      <path id="Path_104854" data-name="Path 104854" d="M506.95,73.237a456.054,456.054,0,0,1-48.242-.38,3.963,3.963,0,0,1-3.516-3.936c-.436-9.483-.533-16.725-.433-25.578a3.964,3.964,0,0,1,3.635-4.094c16.2-.465,32.387-.563,48.259-.019a3.954,3.954,0,0,1,3.627,3.949c.37,8.644.652,17.307.239,26.116A3.957,3.957,0,0,1,506.95,73.237Z" transform="translate(7952.953 -1581.506)" fill="#fff" stroke="#2e2854" stroke-linecap="round" stroke-linejoin="round" stroke-width="1"/>
    </g>
    <g id="Group_1334" data-name="Group 1334" transform="translate(0 -37)">
      <line id="Line_103" data-name="Line 103" x2="20" transform="translate(8609 -1438)" fill="none" stroke="#2e2854" stroke-linecap="round" stroke-width="2"/>
      <circle id="Ellipse_107" data-name="Ellipse 107" cx="5" cy="5" r="5" transform="translate(8647 -1443)" fill="#d24d84"/>
      <circle id="Ellipse_108" data-name="Ellipse 108" cx="5" cy="5" r="5" transform="translate(8634 -1443)" fill="#d24d84"/>
      <g id="Group_1333" data-name="Group 1333" transform="translate(1376.459 481.512)">
        <path id="Path_104850" data-name="Path 104850" d="M197.99,231.311c1.022-1.142,2.885-3.366,4.007-4.468" transform="translate(7075.579 -2148.45)" fill="none" stroke="#fff" stroke-linecap="round" stroke-linejoin="round" stroke-width="1.5"/>
        <path id="Path_104851" data-name="Path 104851" d="M197.99,226.843c1.022,1.142,2.885,3.366,4.007,4.468" transform="translate(7075.579 -2148.45)" fill="none" stroke="#fff" stroke-linecap="round" stroke-linejoin="round" stroke-width="1.5"/>
      </g>
      <path id="Path_105051" data-name="Path 105051" d="M199.638,190.456a11.094,11.094,0,0,1,2.4,3.333q.679-3.065,1.353-6.129" transform="translate(8437.151 -1628.502)" fill="none" stroke="#fff" stroke-linecap="round" stroke-linejoin="round" stroke-width="1.5"/>
    </g>
    <g id="Group_1335" data-name="Group 1335" transform="translate(0 -22)">
      <line id="Line_103-2" data-name="Line 103" x2="20" transform="translate(8609 -1438)" fill="none" stroke="#2e2854" stroke-linecap="round" stroke-width="2"/>
      <circle id="Ellipse_107-2" data-name="Ellipse 107" cx="5" cy="5" r="5" transform="translate(8647 -1443)" fill="#d24d84"/>
      <circle id="Ellipse_108-2" data-name="Ellipse 108" cx="5" cy="5" r="5" transform="translate(8634 -1443)" fill="#d24d84"/>
      <g id="Group_1333-2" data-name="Group 1333" transform="translate(1376.459 481.512)">
        <path id="Path_104850-2" data-name="Path 104850" d="M197.99,231.564c1.08-1.207,3.048-3.556,4.234-4.721" transform="translate(7075.579 -2148.702)" fill="none" stroke="#fff" stroke-linecap="round" stroke-linejoin="round" stroke-width="1.5"/>
        <path id="Path_104851-2" data-name="Path 104851" d="M197.99,226.843c1.08,1.207,3.048,3.556,4.234,4.721" transform="translate(7075.579 -2148.702)" fill="none" stroke="#fff" stroke-linecap="round" stroke-linejoin="round" stroke-width="1.5"/>
      </g>
      <path id="Path_105051-2" data-name="Path 105051" d="M199.638,190.456a11.094,11.094,0,0,1,2.4,3.333q.679-3.065,1.353-6.129" transform="translate(8437.151 -1628.502)" fill="none" stroke="#fff" stroke-linecap="round" stroke-linejoin="round" stroke-width="1.5"/>
    </g>
  </g>
</svg>
