<svg xmlns="http://www.w3.org/2000/svg" width="20" height="16.25" viewBox="0 0 20 16.25">
  <path id="Path_105486" data-name="Path 105486" d="M5-12.969a.625.625,0,0,0,.625.625h13.75A.625.625,0,0,0,20-12.969v-1.562a.625.625,0,0,0-.625-.625H5.625A.625.625,0,0,0,5-14.531Zm.625,6.875h13.75A.625.625,0,0,0,20-6.719V-8.281a.625.625,0,0,0-.625-.625H5.625A.625.625,0,0,0,5-8.281v1.563A.625.625,0,0,0,5.625-6.094Zm0,6.25h13.75A.625.625,0,0,0,20-.469V-2.031a.625.625,0,0,0-.625-.625H5.625A.625.625,0,0,0,5-2.031V-.469A.625.625,0,0,0,5.625.156Zm-5-12.031h2.5A.625.625,0,0,0,3.75-12.5V-15a.625.625,0,0,0-.625-.625H.625A.625.625,0,0,0,0-15v2.5A.625.625,0,0,0,.625-11.875Zm0,6.25h2.5A.625.625,0,0,0,3.75-6.25v-2.5a.625.625,0,0,0-.625-.625H.625A.625.625,0,0,0,0-8.75v2.5A.625.625,0,0,0,.625-5.625Zm0,6.25h2.5A.625.625,0,0,0,3.75,0V-2.5a.625.625,0,0,0-.625-.625H.625A.625.625,0,0,0,0-2.5V0A.625.625,0,0,0,.625.625Z" transform="translate(0 15.625)" fill="#fff"/>
</svg>
