<svg xmlns="http://www.w3.org/2000/svg" width="27.218" height="19.79" viewBox="0 0 27.218 19.79">
  <path id="icn-edited" d="M-16138.936,13.745a3.467,3.467,0,0,1-1.015-2.469,3.583,3.583,0,0,1,1.045-2.5l2.787-2.787a.734.734,0,0,0,.223-.539.784.784,0,0,0-.792-.791.738.738,0,0,0-.54.222c-2.182,2.182-3.122,3.122-3.471,3.469l-1.59,1.6a1.036,1.036,0,0,1-.759.252,1.168,1.168,0,0,1-.7-.315,1.048,1.048,0,0,1-.251-.761,1.151,1.151,0,0,1,.315-.7s1.56-1.5,5.03-4.974a2.678,2.678,0,0,1,1.963-.821,2.808,2.808,0,0,1,2,.821,2.822,2.822,0,0,1,.823,2,2.683,2.683,0,0,1-.823,1.963l-2.787,2.787a1.469,1.469,0,0,0-.443,1.079,1.527,1.527,0,0,0,.443,1.043,1.51,1.51,0,0,0,1.046.443,1.258,1.258,0,0,0,.569-.126l.536-.285a1.06,1.06,0,0,1,.761-.033,1.079,1.079,0,0,1,.6.509,1.055,1.055,0,0,1,.033.758.961.961,0,0,1-.509.569l-.507.287a3.306,3.306,0,0,1-1.486.348A3.511,3.511,0,0,1-16138.936,13.745Zm5.289-1.878a.764.764,0,0,1-.222-.7l.156-.791a10.628,10.628,0,0,1,3.012-5.543l2.024-2.059,4.118,4.117-2.029,2.059a10.893,10.893,0,0,1-5.572,2.978l-.792.159a.963.963,0,0,1-.143.011A.756.756,0,0,1-16133.646,11.867Zm5.666-9.786,3.674-3.674-.41-.411a.764.764,0,0,0-1.076,0l-2.724,2.724a.766.766,0,0,1-1.078,0,.766.766,0,0,1,0-1.079l2.725-2.724a2.268,2.268,0,0,1,1.614-.665,2.262,2.262,0,0,1,1.615.665l.413.413.474-.476A2.88,2.88,0,0,1-16120.7-4a2.873,2.873,0,0,1,2.059.854,2.88,2.88,0,0,1,.854,2.059,2.88,2.88,0,0,1-.854,2.059l-5.226,5.226Z" transform="translate(16144.5 4.499)" fill="#515151" stroke="rgba(0,0,0,0)" stroke-width="1"/>
</svg>
