<svg xmlns="http://www.w3.org/2000/svg" width="27.712" height="16.958" viewBox="0 0 27.712 16.958">
  <g id="Group_37200" data-name="Group 37200" transform="translate(1 0.569)">
    <path id="Path_94277" data-name="Path 94277" d="M6.544-3.9a3.63,3.63,0,0,0,1.87-.5A3.864,3.864,0,0,0,9.787-5.766a3.733,3.733,0,0,0,.5-1.87,3.733,3.733,0,0,0-.5-1.87,3.864,3.864,0,0,0-1.373-1.373,3.63,3.63,0,0,0-1.87-.5,3.63,3.63,0,0,0-1.87.5A3.864,3.864,0,0,0,3.3-9.505a3.733,3.733,0,0,0-.5,1.87,3.733,3.733,0,0,0,.5,1.87A3.864,3.864,0,0,0,4.674-4.392,3.63,3.63,0,0,0,6.544-3.9ZM5.2-2.493A5.265,5.265,0,0,0,1.519-.974,5.265,5.265,0,0,0,0,2.707a.782.782,0,0,0,.263.614.782.782,0,0,0,.614.263H12.212a.782.782,0,0,0,.614-.263.782.782,0,0,0,.263-.614A5.265,5.265,0,0,0,11.569-.974,5.265,5.265,0,0,0,7.888-2.493Z" transform="translate(13.623 11.375)" fill="#7b7b83"/>
    <path id="icn-AI" d="M0,14.958v-.208l.587-1.426H2.468l.5-1.683H6.863l.5,1.683h5.169V1.629H9.542v8.524L6.731,1.629H3.085L.327,9.99,0,9V0H5.31L8.227,1.569,7.838,0h2.681l4.419,3.3.02.014v9.435l-3.343,2.205Zm3.74-5.89L4.908,5.087,6.094,9.069Z" transform="translate(0 0.431)" fill="#7b7b83" stroke="#fff" stroke-width="2"/>
    <path id="icn-AI-2" data-name="icn-AI" d="M0,14.958v-.208l.587-1.426H2.468l.5-1.683H6.863l.5,1.683h5.169V1.629H9.542v8.524L6.731,1.629H3.085L.327,9.99,0,9V0H5.31L8.227,1.569,7.838,0h2.681l4.419,3.3.02.014v9.435l-3.343,2.205Zm3.74-5.89L4.908,5.087,6.094,9.069Z" transform="translate(0 0.432)" fill="#7b7b83"/>
  </g>
</svg>
