<svg xmlns="http://www.w3.org/2000/svg" width="53.985" height="51.338" viewBox="0 0 53.985 51.338">
  <g id="sbt-icon-interaction" transform="translate(-1956.858 -1059.668)">
    <path id="Path_3728" data-name="Path 3728" d="M15.551,8.882a.741.741,0,0,1-.741-.741,6.664,6.664,0,1,0-13.328,0A.741.741,0,0,1,0,8.141a8.141,8.141,0,1,1,16.282,0A.726.726,0,0,1,15.551,8.882Z" transform="matrix(0.883, -0.469, 0.469, 0.883, 1963.53, 1073.988)" fill="#1b3244"/>
    <path id="Path_3729" data-name="Path 3729" d="M25.417,13.815a.741.741,0,0,1-.741-.741,11.6,11.6,0,0,0-23.194,0,.741.741,0,1,1-1.482,0,13.079,13.079,0,0,1,26.158,0A.741.741,0,0,1,25.417,13.815Z" transform="matrix(0.883, -0.469, 0.469, 0.883, 1956.858, 1071.948)" fill="#1b3244"/>
    <path id="Path_3731" data-name="Path 3731" d="M23.781,18.828c-.629-3.717-3.305-4.222-4.458-4.264a.987.987,0,0,1-.8-.459,3.469,3.469,0,0,0-3.059-1.737,4.792,4.792,0,0,0-1.217.165,1.176,1.176,0,0,1-.3.039,1.115,1.115,0,0,1-.909-.457A3.473,3.473,0,0,0,10.1,10.6a4.708,4.708,0,0,0-.728.059A1.134,1.134,0,0,1,8.06,9.541L8.052,2.665A2.563,2.563,0,0,0,5.385,0,2.563,2.563,0,0,0,2.717,2.671c0,2.985.014,11.95.018,14.651a1.13,1.13,0,0,1-.693,1.045C-3.251,20.58,3.283,30.5,4.454,32.2a1.135,1.135,0,0,1,.2.559l.286,3.847A1.174,1.174,0,0,0,6.071,37.7h0l12.784-.057a1.156,1.156,0,0,0,1.127-1.01l.521-3.976a1.169,1.169,0,0,1,.175-.476C24.1,26.9,24.364,22.274,23.781,18.828Z" transform="matrix(0.819, -0.574, 0.574, 0.819, 1969.54, 1080.123)" fill="#1b3244"/>
  </g>
</svg>
