<svg id="sbt-icon-jpg" xmlns="http://www.w3.org/2000/svg" width="25.32" height="33.76" viewBox="0 0 25.32 33.76">
  <g id="Group_64" data-name="Group 64" transform="translate(0)">
    <path id="Path_3736" data-name="Path 3736" d="M14.77,9.217V.25H1.583A1.579,1.579,0,0,0,0,1.833V32.427A1.579,1.579,0,0,0,1.583,34.01H23.737a1.579,1.579,0,0,0,1.583-1.583V10.8H16.352A1.587,1.587,0,0,1,14.77,9.217Z" transform="translate(0 -0.25)" fill="#809bce"/>
    <path id="Path_3776" data-name="Path 3776" d="M24.071,7.73a1.468,1.468,0,0,0-.43-1.037L17.634.68A1.472,1.472,0,0,0,16.591.25h-.374V8.1h7.854Z" transform="translate(1.249 -0.25)" fill="#c4d1e8"/>
  </g>
  <path id="Path_3842" data-name="Path 3842" d="M2.531-2.008A2.25,2.25,0,0,1,2.039-.459,1.671,1.671,0,0,1,.727.094,1.86,1.86,0,0,1,.1,0V-.871a1,1,0,0,0,.574.152q.93,0,.93-1.437V-5.6h.93Zm2.258-.023V0H3.863V-5.6h1.7a2.251,2.251,0,0,1,1.5.449A1.566,1.566,0,0,1,7.59-3.887a1.748,1.748,0,0,1-.555,1.336,2.106,2.106,0,0,1-1.5.52Zm0-2.8v2.047h.6a1.33,1.33,0,0,0,.91-.277.99.99,0,0,0,.313-.781q0-.988-1.148-.988ZM12.906-.383a4.008,4.008,0,0,1-1.949.477A2.713,2.713,0,0,1,8.945-.68a2.775,2.775,0,0,1-.77-2.047,2.876,2.876,0,0,1,.842-2.135A2.912,2.912,0,0,1,11.156-5.7a3.983,3.983,0,0,1,1.57.273v.957a2.7,2.7,0,0,0-1.535-.43,1.955,1.955,0,0,0-1.467.59,2.1,2.1,0,0,0-.572,1.527A2.2,2.2,0,0,0,9.645-1.26a1.7,1.7,0,0,0,1.336.553,2.115,2.115,0,0,0,1-.223V-2.262H10.8v-.781h2.105Z" transform="translate(6.16 22.505)" fill="#1b3244"/>
</svg>
