<svg xmlns="http://www.w3.org/2000/svg" width="56.972" height="35.838" viewBox="0 0 56.972 35.838">
  <g id="Group_1353" data-name="Group 1353" transform="translate(-8602.507 1301.997)">
    <g id="Group_1345" data-name="Group 1345" transform="translate(195.323 241.146)">
      <path id="Path_104854" data-name="Path 104854" d="M506.95,73.237a456.054,456.054,0,0,1-48.242-.38,3.963,3.963,0,0,1-3.516-3.936c-.436-9.483-.533-16.725-.433-25.578a3.964,3.964,0,0,1,3.635-4.094c16.2-.465,32.387-.563,48.259-.019a3.954,3.954,0,0,1,3.627,3.949c.37,8.644.652,17.307.239,26.116A3.957,3.957,0,0,1,506.95,73.237Z" transform="translate(7952.953 -1581.506)" fill="#fff" stroke="#2e2854" stroke-linecap="round" stroke-linejoin="round" stroke-width="1"/>
      <g id="Group_1347" data-name="Group 1347" transform="translate(8434.729 -1538.332)">
        <circle id="Ellipse_100" data-name="Ellipse 100" cx="3" cy="3" r="3" transform="translate(-0.052 0.186)" fill="#f7a145"/>
        <circle id="Ellipse_101" data-name="Ellipse 101" cx="3" cy="3" r="3" transform="translate(8.948 0.186)" fill="#f7a145"/>
        <circle id="Ellipse_102" data-name="Ellipse 102" cx="3" cy="3" r="3" transform="translate(17.948 0.186)" fill="#f7a145"/>
      </g>
      <g id="Group_1348" data-name="Group 1348" transform="translate(8434.729 -1528.332)">
        <circle id="Ellipse_100-2" data-name="Ellipse 100" cx="3" cy="3" r="3" transform="translate(-0.052 0.186)" fill="#f7a145"/>
        <circle id="Ellipse_101-2" data-name="Ellipse 101" cx="3" cy="3" r="3" transform="translate(8.948 0.186)" fill="#f7a145"/>
        <circle id="Ellipse_102-2" data-name="Ellipse 102" cx="3" cy="3" r="3" transform="translate(17.948 0.186)" fill="#f7a145"/>
      </g>
      <g id="Group_1349" data-name="Group 1349" transform="translate(8434.729 -1518.332)">
        <circle id="Ellipse_100-3" data-name="Ellipse 100" cx="3" cy="3" r="3" transform="translate(-0.052 0.186)" fill="#f7a145"/>
        <circle id="Ellipse_101-3" data-name="Ellipse 101" cx="3" cy="3" r="3" transform="translate(8.948 0.186)" fill="#f7a145"/>
        <circle id="Ellipse_102-3" data-name="Ellipse 102" cx="3" cy="3" r="3" transform="translate(17.948 0.186)" fill="#f7a145"/>
      </g>
      <line id="Line_113" data-name="Line 113" x2="14.858" transform="translate(8413.177 -1534.146)" fill="none" stroke="#d24d84" stroke-linecap="round" stroke-width="2"/>
      <line id="Line_114" data-name="Line 114" x2="14.858" transform="translate(8413.177 -1525.146)" fill="none" stroke="#d24d84" stroke-linecap="round" stroke-width="2"/>
      <line id="Line_115" data-name="Line 115" x2="14.858" transform="translate(8413.177 -1515.146)" fill="none" stroke="#d24d84" stroke-linecap="round" stroke-width="2"/>
    </g>
  </g>
</svg>
