<svg xmlns="http://www.w3.org/2000/svg" width="20" height="19.991" viewBox="0 0 20 19.991">
  <path id="Path_104843" data-name="Path 104843" d="M0-15a2.525,2.525,0,0,1,.742-1.758A2.525,2.525,0,0,1,2.5-17.5h15a2.525,2.525,0,0,1,1.758.742A2.525,2.525,0,0,1,20-15V-3.75a2.525,2.525,0,0,1-.742,1.758A2.525,2.525,0,0,1,17.5-1.25H12.07l-4.8,3.633a.67.67,0,0,1-.664.039.553.553,0,0,1-.352-.547V-1.25H2.5A2.525,2.525,0,0,1,.742-1.992,2.525,2.525,0,0,1,0-3.75Zm10,.625a.934.934,0,0,0-.937.938v4.375A.934.934,0,0,0,10-8.125a.934.934,0,0,0,.938-.937v-4.375A.934.934,0,0,0,10-14.375Zm1.25,8.75a1.217,1.217,0,0,0-.352-.9,1.217,1.217,0,0,0-.9-.352,1.217,1.217,0,0,0-.9.352,1.217,1.217,0,0,0-.352.9,1.217,1.217,0,0,0,.352.9,1.217,1.217,0,0,0,.9.352,1.217,1.217,0,0,0,.9-.352A1.217,1.217,0,0,0,11.25-5.625Z" transform="translate(0 17.5)" fill="#1b3244"/>
</svg>
