<svg id="sbt-icon-mp3" xmlns="http://www.w3.org/2000/svg" width="25.32" height="33.76" viewBox="0 0 25.32 33.76">
  <g id="Group_64" data-name="Group 64" transform="translate(0)">
    <path id="Path_3736" data-name="Path 3736" d="M14.77,9.217V.25H1.583A1.579,1.579,0,0,0,0,1.833V32.427A1.579,1.579,0,0,0,1.583,34.01H23.737a1.579,1.579,0,0,0,1.583-1.583V10.8H16.352A1.587,1.587,0,0,1,14.77,9.217Z" transform="translate(0 -0.25)" fill="#75aa8a"/>
    <path id="Path_3776" data-name="Path 3776" d="M24.071,7.73a1.468,1.468,0,0,0-.43-1.037L17.634.68A1.472,1.472,0,0,0,16.591.25h-.374V8.1h7.854Z" transform="translate(1.249 -0.25)" fill="#bcdec9"/>
  </g>
  <path id="Path_4915" data-name="Path 4915" d="M6.707,0H5.785V-3.625q0-.445.055-1.09H5.824a3.764,3.764,0,0,1-.152.527L4,0H3.359L1.684-4.156a3.915,3.915,0,0,1-.148-.559H1.52q.031.336.031,1.1V0H.691V-5.6H2l1.473,3.73a5.517,5.517,0,0,1,.219.641h.02q.145-.441.234-.656L5.445-5.6H6.707Zm2.3-2.031V0H8.086V-5.6h1.7a2.251,2.251,0,0,1,1.5.449,1.566,1.566,0,0,1,.531,1.266,1.748,1.748,0,0,1-.555,1.336,2.106,2.106,0,0,1-1.5.52Zm0-2.8v2.047h.6a1.33,1.33,0,0,0,.91-.277.99.99,0,0,0,.313-.781q0-.988-1.148-.988ZM12.551-.207v-.852a1.935,1.935,0,0,0,1.234.434,1.439,1.439,0,0,0,.893-.254.818.818,0,0,0,.334-.687q0-.953-1.457-.953h-.434v-.727h.414q1.293,0,1.293-.9,0-.828-1.008-.828a1.652,1.652,0,0,0-1.059.4v-.8a2.708,2.708,0,0,1,1.348-.32,1.8,1.8,0,0,1,1.2.375,1.2,1.2,0,0,1,.449.961,1.369,1.369,0,0,1-1.125,1.422v.016a1.474,1.474,0,0,1,.957.424,1.263,1.263,0,0,1,.352.912,1.5,1.5,0,0,1-.566,1.217,2.284,2.284,0,0,1-1.492.463A2.546,2.546,0,0,1,12.551-.207Z" transform="translate(4 22.5)" fill="#1b3244"/>
</svg>
