<svg xmlns="http://www.w3.org/2000/svg" width="200" height="172" viewBox="0 0 200 172">
  <g id="Group_786" data-name="Group 786" transform="translate(-4782 -5341)">
    <rect id="Rectangle_207" data-name="Rectangle 207" width="200" height="172" transform="translate(4782 5341)" fill="none"/>
    <g id="Group_754" data-name="Group 754" transform="translate(4168.802 4981.205)">
      <g id="BACKGROUND" transform="translate(615.764 385.025)">
        <path id="Path_104557" data-name="Path 104557" d="M163,53.879c-16.1-1.515-32.392-2.253-48.32.867s-31.6,10.339-43.53,23.1-19.709,31.5-18.56,50.376c1.468,24.051,17.089,44.56,35.684,54.885s39.774,12.07,60.349,11.826c23.821-.288,49.364-3.847,67.311-22.2,11.242-11.5,18.333-27.912,21.518-45,2.156-11.563,2.521-24.166-2.024-34.736-4.354-10.123-12.646-17.112-21.189-22.428C197.492,60.148,178.508,55.34,163,53.879Z" transform="translate(-51.061 -62.993)" fill="#f2d3e8"/>
        <g id="Group_738" data-name="Group 738" transform="translate(0 38.733)">
          <path id="Path_104558" data-name="Path 104558" d="M549.971,244.546q-19.061-.685-38.118-1.374a7.2,7.2,0,0,1-3.865-.877c-1.117-.757-1.75-2.458-.946-3.562,1.246-1.708,4.334-.454,5.674-2.081.811-.984.51-2.452.452-3.742a8.458,8.458,0,0,1,6.362-8.432,6.573,6.573,0,0,1,8.07,5.7,8.338,8.338,0,0,1,9.755-2.018c1.366.674,2.832,1.764,4.237,1.181,1.45-.6,1.744-2.542,2.541-3.929,1.408-2.448,5.037-3.115,5.78-1.161a7.821,7.821,0,0,1,6.772-6.107c3.2-.253,6.446,1.868,7.4,5.967a4.067,4.067,0,0,1,4.892-.07,4.4,4.4,0,0,1,1.4,4.84c-.236.657-.63,1.244-.836,1.911a1.92,1.92,0,0,0,.326,1.955c.843.784,2.125.047,3.223-.244a4,4,0,0,1,4.414,1.965c.833,1.558.517,3.682-1.137,5.827a5.92,5.92,0,0,1,3.788-.327c1.214.45,2.044,2.151,1.211,3.169a3.01,3.01,0,0,1-2.451.737C569.656,243.822,560.407,244.923,549.971,244.546Z" transform="translate(-388.274 -207.912)" fill="#fff"/>
          <path id="Path_104559" data-name="Path 104559" d="M126.816,210.3a7.156,7.156,0,0,1,3.672-.357,2.6,2.6,0,0,1,2.028,2.785c-.313,1.518-2.141,2.008-3.633,2.191a325.849,325.849,0,0,1-52.507,2.318,8.316,8.316,0,0,1-4.03-.861,3.132,3.132,0,0,1-1.5-3.616,2.927,2.927,0,0,1,2.648-1.648,3.57,3.57,0,0,1,2.619.877,3.634,3.634,0,0,1,.836-3.269,3.219,3.219,0,0,1,3.1-.961,26.882,26.882,0,0,1-2.538-7.488,10.848,10.848,0,0,1,1.466-7.622,6.386,6.386,0,0,1,6.717-2.788c1.34.38,2.664,1.314,4,.924,1.64-.477,2.16-2.542,3.065-4.033a6.278,6.278,0,0,1,4.815-2.989c1.938-.143,3.924.717,4.172,2.925a6.9,6.9,0,0,1,6.885-1.738,7.225,7.225,0,0,1,4.753,5.433c.32,1.658.184,3.652,1.473,4.693,1.1.887,2.677.577,4.03.23a10.079,10.079,0,0,1,4.928-.414c1.618.41,3.1,1.928,2.522,4.816a3.185,3.185,0,0,1,3.675,1.968,5.516,5.516,0,0,1-.358,4.516A45.48,45.48,0,0,1,126.816,210.3Z" transform="translate(-70.679 -183.754)" fill="#fff"/>
        </g>
      </g>
      <g id="Group_753" data-name="Group 753" transform="translate(604.252 377.281)">
        <path id="Path_104581" data-name="Path 104581" d="M392.75,34.729a1.461,1.461,0,0,0-2,.314,1.575,1.575,0,0,0,.287,2.068,1.458,1.458,0,0,0,2.005-.28A1.558,1.558,0,0,0,392.75,34.729Z" transform="translate(-297.304 -34.463)" fill="#f2d3e8"/>
        <path id="Path_104582" data-name="Path 104582" d="M568.97,424.939a1.461,1.461,0,0,0-2,.314,1.575,1.575,0,0,0,.287,2.068,1.458,1.458,0,0,0,2.005-.28A1.562,1.562,0,0,0,568.97,424.939Z" transform="translate(-392.461 -295.817)" fill="#f2d3e8"/>
        <path id="Path_104583" data-name="Path 104583" d="M82.3,429.419a1.461,1.461,0,0,0-2,.314,1.575,1.575,0,0,0,.287,2.068,1.458,1.458,0,0,0,2.005-.28A1.558,1.558,0,0,0,82.3,429.419Z" transform="translate(-62.661 -304.802)" fill="#f2d3e8"/>
        <path id="Path_104584" data-name="Path 104584" d="M690.57,231.529a1.461,1.461,0,0,0-2,.314,1.575,1.575,0,0,0,.287,2.068,1.458,1.458,0,0,0,2.005-.28A1.565,1.565,0,0,0,690.57,231.529Z" transform="translate(-484.507 -173.958)" fill="#f2d3e8"/>
        <path id="Path_104585" data-name="Path 104585" d="M694.28,343.079a1.462,1.462,0,0,0-2,.314,1.576,1.576,0,0,0,.287,2.068,1.458,1.458,0,0,0,2.005-.28A1.559,1.559,0,0,0,694.28,343.079Z" transform="translate(-501.661 -229.261)" fill="#f2d3e8"/>
        <path id="Path_104586" data-name="Path 104586" d="M198.02,40.919a1.461,1.461,0,0,0-2,.314,1.576,1.576,0,0,0,.287,2.068,1.458,1.458,0,0,0,2.005-.28A1.562,1.562,0,0,0,198.02,40.919Z" transform="translate(-144.012 -36.885)" fill="#f2d3e8"/>
        <path id="Path_104587" data-name="Path 104587" d="M189.23,113.8a1.461,1.461,0,0,0-2,.314,1.575,1.575,0,0,0,.287,2.068,1.458,1.458,0,0,0,2.005-.28A1.558,1.558,0,0,0,189.23,113.8Z" transform="translate(-138.061 -85.456)" fill="#fff"/>
        <path id="Path_104588" data-name="Path 104588" d="M528.55,197.039a1.462,1.462,0,0,0-2,.314,1.575,1.575,0,0,0,.288,2.068,1.458,1.458,0,0,0,2.005-.28A1.562,1.562,0,0,0,528.55,197.039Z" transform="translate(-367.807 -140.932)" fill="#fff"/>
        <path id="Path_104589" data-name="Path 104589" d="M37.79,186.309a1.461,1.461,0,0,0-2,.314,1.575,1.575,0,0,0,.287,2.068,1.458,1.458,0,0,0,2.005-.28A1.565,1.565,0,0,0,37.79,186.309Z" transform="translate(-15.091 -160.893)" fill="#f2d3e8"/>
        <path id="Path_104590" data-name="Path 104590" d="M162.747,66.737a.833.833,0,0,0-1.143.18.9.9,0,0,0,.165,1.184.834.834,0,0,0,1.146-.16A.9.9,0,0,0,162.747,66.737Z" transform="translate(-120.788 -54.167)" fill="#f2d3e8"/>
        <path id="Path_104591" data-name="Path 104591" d="M431.707,264.279a.836.836,0,0,0-1.143.18.9.9,0,0,0,.165,1.184.835.835,0,0,0,1.146-.16A.9.9,0,0,0,431.707,264.279Z" transform="translate(-302.895 -185.82)" fill="#fff"/>
        <path id="Path_104592" data-name="Path 104592" d="M585.187,327.359a.836.836,0,0,0-1.143.18.9.9,0,0,0,.165,1.184.835.835,0,0,0,1.146-.16A.9.9,0,0,0,585.187,327.359Z" transform="translate(-406.813 -227.86)" fill="#fff"/>
        <path id="Path_104593" data-name="Path 104593" d="M153.387,389.419a.836.836,0,0,0-1.143.18.9.9,0,0,0,.165,1.184.834.834,0,0,0,1.146-.16A.9.9,0,0,0,153.387,389.419Z" transform="translate(-114.45 -269.22)" fill="#fff"/>
        <path id="Path_104594" data-name="Path 104594" d="M104.487,306.917a.833.833,0,0,0-1.143.18.9.9,0,0,0,.165,1.184.834.834,0,0,0,1.146-.16A.9.9,0,0,0,104.487,306.917Z" transform="translate(-81.341 -214.236)" fill="#fff"/>
        <path id="Path_104595" data-name="Path 104595" d="M393.667,99.239a.836.836,0,0,0-1.143.18.9.9,0,0,0,.165,1.184.834.834,0,0,0,1.146-.16A.9.9,0,0,0,393.667,99.239Z" transform="translate(-295.283 -75.829)" fill="#fff"/>
        <path id="Path_104596" data-name="Path 104596" d="M558.967,438.469a.836.836,0,0,0-1.143.18.9.9,0,0,0,.165,1.184.834.834,0,0,0,1.146-.16A.9.9,0,0,0,558.967,438.469Z" transform="translate(-386.346 -304.91)" fill="#f2d3e8"/>
        <path id="Path_104597" data-name="Path 104597" d="M132.947,440.979a.836.836,0,0,0-1.143.18.9.9,0,0,0,.165,1.184.834.834,0,0,0,1.146-.16A.9.9,0,0,0,132.947,440.979Z" transform="translate(-100.611 -303.583)" fill="#f2d3e8"/>
        <path id="Path_104598" data-name="Path 104598" d="M682.113,151.852a3.3,3.3,0,0,0-4.505.71,3.556,3.556,0,0,0,.649,4.666,3.288,3.288,0,0,0,4.518-.631A3.545,3.545,0,0,0,682.113,151.852Z" transform="translate(-491.628 -139.523)" fill="#f2d3e8"/>
      </g>
      <g id="Group_755" data-name="Group 755" transform="translate(657.744 358.062)">
        <g id="Group_285" data-name="Group 285" transform="translate(1.687 31.22)">
          <g id="Group_275" data-name="Group 275">
            <g id="Group_258" data-name="Group 258">
              <g id="Group_256" data-name="Group 256" transform="translate(5.908)">
                <path id="Path_103578" data-name="Path 103578" d="M386.128,406.463c-2.823,7.418-67.695,20.04-70.388,16.552s-13.282-52.668-13.282-52.668l-14.068-48.8,7.49-2.145.827-.673.736.218,17.215-4.935.836-.6.7.154,15.061-4.317.691-.391.845-.045,25.177-7.226S388.95,399.045,386.128,406.463Z" transform="translate(-288.39 -301.59)" fill="#fff" stroke="#412945" stroke-width="1"/>
              </g>
              <g id="Group_257" data-name="Group 257" transform="translate(-5 20.96)">
                <path id="Path_103579" data-name="Path 103579" d="M315.345,425.243c.028.7-2.836,1.48-2.836,1.48s0,.649-1.19-.659c-.765-.84-2.673-9.234-5.79-23.12-1.525-6.795-3.68-16.309-5.745-24.284-1.914-7.391-6.1-24.472-8.234-31.6-5.1-17.051-6.721-19.179-6.963-21.091-.055-1.275-.076-1.6.851-2.166s1.467-1.065,2.906,0c.845,1.01,3.418,10.7,7.3,24.184,2.143,7.451,4.6,15.855,6.8,24.475,2.279,11.2,5.032,21.569,7.252,30.478C312.869,415.7,315.328,424.813,315.345,425.243Z" transform="translate(-276.89 -324.55)" fill="#76c9bf"/>
              </g>
            </g>
            <g id="Group_274" data-name="Group 274" transform="translate(13.398 0.827)">
              <g id="Group_263" data-name="Group 263" transform="translate(0 10.207)">
                <g id="Group_260" data-name="Group 260" transform="translate(10.116 6.917)">
                  <g id="Group_259" data-name="Group 259">
                    <path id="Path_103580" data-name="Path 103580" d="M315.65,325.276a3.941,3.941,0,0,1-3.945,3.945,4.035,4.035,0,0,1-1.918-.491c-.218-.118-.127-.773-.318-.927s-.664.164-.818-.027a3.937,3.937,0,0,1,3.054-6.435,3.783,3.783,0,0,1,.645.055A3.931,3.931,0,0,1,315.65,325.276Z" transform="translate(-307.76 -321.34)" fill="#76c9bf"/>
                  </g>
                </g>
                <g id="Group_262" data-name="Group 262">
                  <g id="Group_261" data-name="Group 261">
                    <path id="Path_103581" data-name="Path 103581" d="M311.337,320.692a7.371,7.371,0,0,0-14.707-.182l1.563-.445a6.126,6.126,0,0,1,5.781-4.89,6.22,6.22,0,0,1,5.908,5.554,7.527,7.527,0,0,1,.082,1.118,7.014,7.014,0,0,1-2.336,5.245,3.872,3.872,0,0,0,1.145.954,8.454,8.454,0,0,0,2.636-6.2A7.943,7.943,0,0,0,311.337,320.692Z" transform="translate(-296.63 -313.73)" fill="#b5e1e8"/>
                  </g>
                </g>
              </g>
              <g id="Group_268" data-name="Group 268" transform="translate(18.779 4.845)">
                <g id="Group_265" data-name="Group 265" transform="translate(10.107 6.917)">
                  <g id="Group_264" data-name="Group 264">
                    <path id="Path_103582" data-name="Path 103582" d="M336.3,319.376a3.941,3.941,0,0,1-3.945,3.945,4.035,4.035,0,0,1-1.918-.491c-.218-.127-.127-.773-.318-.927s-.664.164-.818-.027a3.937,3.937,0,0,1,3.054-6.435,3.78,3.78,0,0,1,.645.055A3.931,3.931,0,0,1,336.3,319.376Z" transform="translate(-328.41 -315.44)" fill="#76c9bf"/>
                  </g>
                </g>
                <g id="Group_267" data-name="Group 267">
                  <g id="Group_266" data-name="Group 266">
                    <path id="Path_103583" data-name="Path 103583" d="M331.987,314.792a7.367,7.367,0,0,0-14.7-.209l1.536-.445a6.127,6.127,0,0,1,5.79-4.872,6.22,6.22,0,0,1,5.908,5.554,7.515,7.515,0,0,1,.082,1.118,7.014,7.014,0,0,1-2.336,5.245,3.871,3.871,0,0,0,1.145.954,8.454,8.454,0,0,0,2.636-6.2A6.8,6.8,0,0,0,331.987,314.792Z" transform="translate(-317.29 -307.83)" fill="#b5e1e8"/>
                  </g>
                </g>
              </g>
              <g id="Group_273" data-name="Group 273" transform="translate(35.385)">
                <g id="Group_270" data-name="Group 270" transform="translate(10.098 6.917)">
                  <g id="Group_269" data-name="Group 269">
                    <path id="Path_103584" data-name="Path 103584" d="M354.56,314.046a3.941,3.941,0,0,1-3.945,3.945,4.035,4.035,0,0,1-1.918-.491c-.218-.118-.127-.773-.318-.927s-.664.164-.818-.027a3.937,3.937,0,0,1,3.054-6.435,3.79,3.79,0,0,1,.645.054A3.924,3.924,0,0,1,354.56,314.046Z" transform="translate(-346.67 -310.11)" fill="#76c9bf"/>
                  </g>
                </g>
                <g id="Group_272" data-name="Group 272">
                  <g id="Group_271" data-name="Group 271">
                    <path id="Path_103585" data-name="Path 103585" d="M350.257,309.462a7.364,7.364,0,0,0-14.7-.127l.664-.191.064-.018.8-.227a5.9,5.9,0,0,1,11.716.6,7.531,7.531,0,0,1,.082,1.118,7.014,7.014,0,0,1-2.336,5.245,3.87,3.87,0,0,0,1.145.954,8.454,8.454,0,0,0,2.636-6.2A9.487,9.487,0,0,0,350.257,309.462Z" transform="translate(-335.56 -302.5)" fill="#b5e1e8"/>
                  </g>
                </g>
              </g>
            </g>
          </g>
          <g id="Group_284" data-name="Group 284" transform="translate(20.987 30.012)">
            <g id="Group_276" data-name="Group 276">
              <path id="Path_103586" data-name="Path 103586" d="M305.589,348.862a.611.611,0,0,1-.591-.454.6.6,0,0,1,.436-.736l50.791-13.043a.605.605,0,1,1,.3,1.173l-50.791,13.043A.4.4,0,0,1,305.589,348.862Z" transform="translate(-304.979 -334.609)" fill="#412945"/>
            </g>
            <g id="Group_277" data-name="Group 277" transform="translate(2.309 8.989)">
              <path id="Path_103587" data-name="Path 103587" d="M308.129,358.752a.611.611,0,0,1-.591-.454.6.6,0,0,1,.436-.736l50.791-13.043a.605.605,0,0,1,.3,1.173l-50.791,13.043A.4.4,0,0,1,308.129,358.752Z" transform="translate(-307.519 -344.499)" fill="#412945"/>
            </g>
            <g id="Group_278" data-name="Group 278" transform="translate(4.617 17.979)">
              <path id="Path_103588" data-name="Path 103588" d="M310.669,368.642a.611.611,0,0,1-.591-.454.6.6,0,0,1,.436-.736l50.791-13.043a.605.605,0,1,1,.3,1.173l-50.791,13.043A.4.4,0,0,1,310.669,368.642Z" transform="translate(-310.059 -354.389)" fill="#412945"/>
            </g>
            <g id="Group_279" data-name="Group 279" transform="translate(6.926 26.968)">
              <path id="Path_103589" data-name="Path 103589" d="M313.209,378.532a.611.611,0,0,1-.591-.454.6.6,0,0,1,.436-.736L363.846,364.3a.605.605,0,0,1,.3,1.173l-50.791,13.043A.4.4,0,0,1,313.209,378.532Z" transform="translate(-312.599 -364.279)" fill="#412945"/>
            </g>
            <g id="Group_280" data-name="Group 280" transform="translate(9.235 35.957)">
              <path id="Path_103590" data-name="Path 103590" d="M315.749,388.422a.611.611,0,0,1-.591-.454.6.6,0,0,1,.436-.736l50.791-13.043a.605.605,0,1,1,.3,1.172L315.894,388.4A.4.4,0,0,1,315.749,388.422Z" transform="translate(-315.139 -374.169)" fill="#412945"/>
            </g>
            <g id="Group_281" data-name="Group 281" transform="translate(11.543 44.947)">
              <path id="Path_103591" data-name="Path 103591" d="M318.289,398.312a.611.611,0,0,1-.591-.454.6.6,0,0,1,.436-.736l50.791-13.043a.605.605,0,0,1,.3,1.173l-50.791,13.043A.4.4,0,0,1,318.289,398.312Z" transform="translate(-317.679 -384.059)" fill="#412945"/>
            </g>
            <g id="Group_282" data-name="Group 282" transform="translate(13.852 53.936)">
              <path id="Path_103592" data-name="Path 103592" d="M320.829,408.2a.611.611,0,0,1-.591-.454.6.6,0,0,1,.436-.736l50.791-13.043a.605.605,0,0,1,.3,1.173l-50.791,13.043A.4.4,0,0,1,320.829,408.2Z" transform="translate(-320.219 -393.949)" fill="#412945"/>
            </g>
            <g id="Group_283" data-name="Group 283" transform="translate(16.161 62.926)">
              <path id="Path_103593" data-name="Path 103593" d="M323.369,418.092a.611.611,0,0,1-.591-.454.6.6,0,0,1,.436-.736l50.791-13.043a.605.605,0,0,1,.3,1.173l-50.791,13.043A.4.4,0,0,1,323.369,418.092Z" transform="translate(-322.759 -403.839)" fill="#412945"/>
            </g>
          </g>
        </g>
        <g id="Group_294" data-name="Group 294" transform="translate(51.667 11)">
          <g id="Group_291" data-name="Group 291">
            <g id="Group_286" data-name="Group 286">
              <path id="Path_103594" data-name="Path 103594" d="M432.238,317.726c2.6,5.148.834,11.558-2.456,16.289-3.565,5.129-9.462,9.187-15.672,8.571-4.674-.455-10.041-3.811-11.757-8.182-2.086,7.016-8.789,12.591-16.118,12.743s-14.5-5.584-15.388-12.857c-5.878,4.722-15.578,3.489-20.091-2.551s-3.072-16.772,3.119-21.058a29.662,29.662,0,0,1-8.239-5.859,17.24,17.24,0,0,1-1.223-1.526c-4.466-6.381-2.693-16.033,3.3-20.991a16.111,16.111,0,0,1,5.613-2.977,20.268,20.268,0,0,1,16.175,2.2,13.876,13.876,0,0,1,5.966-9.811,11.054,11.054,0,0,1,12.037-1.108c2.9,1.6,5.871,2.907,7.672,5.695a28.806,28.806,0,0,1,5.277-2.916c.875.387,4.572,2.378,9.935,5.214,7.808,4.127,18.437,11.072,23.374,19.286a43,43,0,0,1,3.58,7.159c1.023,2.955,2.328,6.275,2.664,8.631C438.071,314.88,434.476,317.64,432.238,317.726Z" transform="translate(-346.422 -257.793)" fill="#2e2854" opacity="0.15"/>
              <path id="Path_104644" data-name="Path 104644" d="M429.914,316.48c2.531,5.016.813,11.26-2.392,15.87-3.473,5-9.219,8.951-15.269,8.351-4.554-.443-9.782-3.713-11.454-7.972-2.032,6.836-8.563,12.267-15.7,12.415S370.971,339.7,370.1,332.618c-5.727,4.6-15.177,3.4-19.574-2.485s-2.993-16.341,3.039-20.516a28.9,28.9,0,0,1-8.027-5.709,16.8,16.8,0,0,1-1.192-1.487c-4.351-6.217-2.623-15.62,3.215-20.451a15.7,15.7,0,0,1,5.468-2.9,19.747,19.747,0,0,1,15.759,2.143,13.519,13.519,0,0,1,5.813-9.558,10.77,10.77,0,0,1,11.727-1.08c2.827,1.561,5.72,2.832,7.475,5.548,1.57-1.247,2.913-1.59,4.714-2.495.823.517,4.881,1.97,10.105,4.733,7.607,4.021,17.963,10.787,22.772,18.79a41.892,41.892,0,0,1,3.488,6.975,49.721,49.721,0,0,1,2.356,8.146C435.357,313.444,432.094,316.4,429.914,316.48Z" transform="translate(-343.914 -257.793)" fill="#6d7fe3"/>
            </g>
            <g id="Group_290" data-name="Group 290" transform="translate(31.736 78.163)">
              <g id="Group_287" data-name="Group 287" transform="translate(24.294)">
                <path id="Path_103595" data-name="Path 103595" d="M412.528,357.389a4.979,4.979,0,1,1-4.979-4.979A4.981,4.981,0,0,1,412.528,357.389Z" transform="translate(-406.57 -343.41)" fill="#6d7fe3"/>
              </g>
              <g id="Group_288" data-name="Group 288" transform="translate(12.646 13.126)">
                <path id="Path_103596" data-name="Path 103596" d="M397.849,370.509a3.945,3.945,0,1,1-3.944-3.889A3.919,3.919,0,0,1,397.849,370.509Z" transform="translate(-393.96 -357.62)" fill="#6d7fe3"/>
              </g>
              <g id="Group_289" data-name="Group 289" transform="translate(0 19.084)">
                <path id="Path_103597" data-name="Path 103597" d="M381.979,375.924a2.854,2.854,0,1,1-2.854-2.854A2.856,2.856,0,0,1,381.979,375.924Z" transform="translate(-380.27 -364.07)" fill="#6d7fe3"/>
              </g>
            </g>
          </g>
          <g id="Group_293" data-name="Group 293" transform="translate(31.28 32.627)">
            <g id="Group_292" data-name="Group 292">
              <path id="Path_103598" data-name="Path 103598" d="M394.038,291.21c11.787-.3,15.593,15.9,4.111,19.565.545,3.372-3.7,3.27-5.93,2.771-1.626-.49-1.663-2.014-1.543-3.51a4.719,4.719,0,0,1,3.6-4.665c1.635-.49,3.667-1.58,3.6-3.556.286-3.159-3.6-3.944-5.93-2.7a2.126,2.126,0,0,0-1.127,1.635c-.831,3.833-4.85,2.282-6.808.693-1.238-1.155-.453-2.485.065-4.037A10.67,10.67,0,0,1,394.038,291.21Zm.231,26.077c3.381.092,4.268.887,4.3,4.388.249,2.956-1.293,4.471-4.342,4.249-3.279.065-4.535-1.275-4.3-4.388C389.65,318.561,391.211,317.083,394.269,317.287Z" transform="translate(-383.354 -291.205)" fill="#2e2854"/>
            </g>
          </g>
        </g>
      </g>
    </g>
  </g>
</svg>
