<svg xmlns="http://www.w3.org/2000/svg" width="17.5" height="20" viewBox="0 0 17.5 20">
  <path id="Path_105480" data-name="Path 105480" d="M16.951-9.924l-2.027-2.027A2.154,2.154,0,0,0,13.6-12.5H12.5v-1.875a1.875,1.875,0,0,0-1.875-1.875h-2.4A2.19,2.19,0,0,0,6.25-17.5a2.19,2.19,0,0,0-1.976,1.25h-2.4A1.875,1.875,0,0,0,0-14.375v11.25A1.875,1.875,0,0,0,1.875-1.25H5V.625A1.875,1.875,0,0,0,6.875,2.5h8.75A1.875,1.875,0,0,0,17.5.625V-8.6A2.154,2.154,0,0,0,16.951-9.924Zm-3.284-.632,1.889,1.889a.269.269,0,0,1,.069.166h0v.376h-2.5v-2.5H13.5A.269.269,0,0,1,13.667-10.556ZM6.25-16.016a.7.7,0,0,1,.7.7.7.7,0,0,1-.7.7.7.7,0,0,1-.7-.7A.7.7,0,0,1,6.25-16.016ZM5-10.625v7.5H2.109a.234.234,0,0,1-.234-.234V-14.141a.234.234,0,0,1,.234-.234H4.274a2.19,2.19,0,0,0,1.976,1.25,2.19,2.19,0,0,0,1.976-1.25h2.165a.234.234,0,0,1,.234.234V-12.5H6.875A1.875,1.875,0,0,0,5-10.625ZM15.391.625H7.109A.234.234,0,0,1,6.875.391V-10.391a.234.234,0,0,1,.234-.234H11.25v3.438a.937.937,0,0,0,.938.938h3.438V.391A.234.234,0,0,1,15.391.625Z" transform="translate(0 17.5)" fill="currentColor"/>
</svg>
