<svg id="sbt-icon-pdf" xmlns="http://www.w3.org/2000/svg" width="25.32" height="33.76" viewBox="0 0 25.32 33.76">
  <g id="Group_64" data-name="Group 64" transform="translate(0)">
    <path id="Path_3736" data-name="Path 3736" d="M14.77,9.217V.25H1.583A1.579,1.579,0,0,0,0,1.833V32.427A1.579,1.579,0,0,0,1.583,34.01H23.737a1.579,1.579,0,0,0,1.583-1.583V10.8H16.352A1.587,1.587,0,0,1,14.77,9.217Z" transform="translate(0 -0.25)" fill="#ffba6d"/>
    <path id="Path_3776" data-name="Path 3776" d="M24.071,7.73a1.468,1.468,0,0,0-.43-1.037L17.634.68A1.472,1.472,0,0,0,16.591.25h-.374V8.1h7.854Z" transform="translate(1.249 -0.25)" fill="#f7ddc1"/>
  </g>
  <path id="Path_3835" data-name="Path 3835" d="M1.617-2.031V0H.691V-5.6h1.7a2.251,2.251,0,0,1,1.5.449,1.566,1.566,0,0,1,.531,1.266,1.748,1.748,0,0,1-.555,1.336,2.106,2.106,0,0,1-1.5.52Zm0-2.8v2.047h.6a1.33,1.33,0,0,0,.91-.277.99.99,0,0,0,.313-.781q0-.988-1.148-.988ZM5.367,0V-5.6H6.984q3.1,0,3.1,2.73A2.691,2.691,0,0,1,9.223-.787,3.28,3.28,0,0,1,6.918,0Zm.926-4.812V-.785h.742a2.075,2.075,0,0,0,1.525-.539,2.047,2.047,0,0,0,.545-1.523A1.768,1.768,0,0,0,7.07-4.812Zm7.836,0H12.035v1.684h1.93v.785h-1.93V0h-.93V-5.6h3.023Z" transform="translate(5.132 22.505)" fill="#1b3244"/>
</svg>
