<svg xmlns="http://www.w3.org/2000/svg" width="24" height="24" viewBox="0 0 24 24">
  <g id="Group_40895" data-name="Group 40895" transform="translate(0 -0.046)">
    <rect id="Rectangle_13816" data-name="Rectangle 13816" width="24" height="24" rx="3" transform="translate(0 0.046)" fill="#f2f2f2"/>
    <path id="Path_105845" data-name="Path 105845" d="M12.245,7.4l.358-.329L11.588,6.056,9.736,4.2,8.721,3.188l-.358.329L7.705,4.2,1.761,10.148a2.8,2.8,0,0,0-.687,1.105L.029,14.868a.643.643,0,0,0,.179.687.737.737,0,0,0,.717.209l3.584-1.075a2.513,2.513,0,0,0,1.135-.657l5.944-5.944ZM4.778,12.418l-.269.687a1.056,1.056,0,0,1-.388.209L1.761,14l.687-2.33a2.408,2.408,0,0,1,.209-.388l.687-.269v.956a.484.484,0,0,0,.478.478h.956ZM10.842,1.068l-.448.418-.657.687L9.378,2.5l1.016,1.016,1.852,1.852,1.016,1.016.329-.329.687-.687.448-.418a1.994,1.994,0,0,0,.538-1.374,1.958,1.958,0,0,0-.538-1.344L13.53,1.068A1.837,1.837,0,0,0,12.186.5,1.9,1.9,0,0,0,10.842,1.068ZM9.408,6.086l-4.3,4.3A.475.475,0,0,1,4.449,9.7l4.3-4.3a.475.475,0,0,1,.657.687Z" transform="translate(4.073 2.928)" fill="#1b3244"/>
  </g>
</svg>
