<svg id="users-svgrepo-com" xmlns="http://www.w3.org/2000/svg" width="20.499" height="15.39" viewBox="0 0 20.499 15.39">
  <path id="Path_94284" data-name="Path 94284" d="M5,9.617a4.617,4.617,0,1,1,4.617,4.617A4.617,4.617,0,0,1,5,9.617Z" transform="translate(-1.929 -5)" fill="#7b7b83" fill-rule="evenodd"/>
  <path id="Path_94285" data-name="Path 94285" d="M14.368,12.221a.2.2,0,0,0,.053.258,3.591,3.591,0,1,0,0-5.776.2.2,0,0,0-.053.258,5.653,5.653,0,0,1,0,5.26Z" transform="translate(-1.686 -4.974)" fill="#7b7b83"/>
  <path id="Path_94286" data-name="Path 94286" d="M4.71,15.717A12.855,12.855,0,0,1,9.695,15a12.844,12.844,0,0,1,4.989.719,4.575,4.575,0,0,1,2.654,3.06,1.046,1.046,0,0,1-1,1.351H3.055a1.047,1.047,0,0,1-1-1.353A4.575,4.575,0,0,1,4.71,15.717Z" transform="translate(-2.006 -4.74)" fill="#7b7b83" fill-rule="evenodd"/>
  <path id="Path_94287" data-name="Path 94287" d="M14.827,14.037c-.425.026-.45.6-.059.767h0a5.476,5.476,0,0,1,2.452,2.024A2.576,2.576,0,0,0,19.289,18.1h1.827a1.063,1.063,0,0,0,1-1.425q-.022-.061-.046-.121A3.5,3.5,0,0,0,20.225,14.6a8.214,8.214,0,0,0-3.12-.6h-.041C16.338,14,15.578,13.991,14.827,14.037Z" transform="translate(-1.682 -4.766)" fill="#7b7b83"/>
</svg>
