<svg xmlns="http://www.w3.org/2000/svg" width="25.32" height="33.76" viewBox="0 0 25.32 33.76">
  <g id="sbt-icon-png" transform="translate(-0.45)">
    <g id="Group_64" data-name="Group 64" transform="translate(0.45)">
      <path id="Path_3736" data-name="Path 3736" d="M14.77,9.217V.25H1.583A1.579,1.579,0,0,0,0,1.833V32.427A1.579,1.579,0,0,0,1.583,34.01H23.737a1.579,1.579,0,0,0,1.583-1.583V10.8H16.352A1.587,1.587,0,0,1,14.77,9.217Z" transform="translate(0 -0.25)" fill="#89b0ae"/>
      <path id="Path_3776" data-name="Path 3776" d="M24.071,7.73a1.468,1.468,0,0,0-.43-1.037L17.634.68A1.472,1.472,0,0,0,16.591.25h-.374V8.1h7.854Z" transform="translate(1.249 -0.25)" fill="#addbd8"/>
    </g>
    <path id="Path_3845" data-name="Path 3845" d="M1.617-2.031V0H.691V-5.6h1.7a2.251,2.251,0,0,1,1.5.449,1.566,1.566,0,0,1,.531,1.266,1.748,1.748,0,0,1-.555,1.336,2.106,2.106,0,0,1-1.5.52Zm0-2.8v2.047h.6a1.33,1.33,0,0,0,.91-.277.99.99,0,0,0,.313-.781q0-.988-1.148-.988ZM10.117,0H9.1L6.426-4.117a1.826,1.826,0,0,1-.168-.324H6.234a5.767,5.767,0,0,1,.031.77V0h-.9V-5.6H6.449l2.586,4.02q.164.25.211.344h.016a4.977,4.977,0,0,1-.039-.754V-5.6h.895Zm5.758-.383a4.008,4.008,0,0,1-1.949.477A2.713,2.713,0,0,1,11.914-.68a2.775,2.775,0,0,1-.77-2.047,2.876,2.876,0,0,1,.842-2.135A2.912,2.912,0,0,1,14.125-5.7a3.983,3.983,0,0,1,1.57.273v.957a2.7,2.7,0,0,0-1.535-.43,1.955,1.955,0,0,0-1.467.59,2.1,2.1,0,0,0-.572,1.527,2.2,2.2,0,0,0,.492,1.518,1.7,1.7,0,0,0,1.336.553,2.115,2.115,0,0,0,1-.223V-2.262H13.77v-.781h2.105Z" transform="translate(5.45 22.575)" fill="#1b3244"/>
  </g>
</svg>
