<svg id="sbt-icon-ppsx" xmlns="http://www.w3.org/2000/svg" width="25.32" height="33.76" viewBox="0 0 25.32 33.76">
  <g id="Group_64" data-name="Group 64" transform="translate(0)">
    <path id="Path_3736" data-name="Path 3736" d="M14.77,9.217V.25H1.583A1.579,1.579,0,0,0,0,1.833V32.427A1.579,1.579,0,0,0,1.583,34.01H23.737a1.579,1.579,0,0,0,1.583-1.583V10.8H16.352A1.587,1.587,0,0,1,14.77,9.217Z" transform="translate(0 -0.25)" fill="#ec9db5"/>
    <path id="Path_3776" data-name="Path 3776" d="M24.071,7.73a1.468,1.468,0,0,0-.43-1.037L17.634.68A1.472,1.472,0,0,0,16.591.25h-.374V8.1h7.854Z" transform="translate(1.249 -0.25)" fill="#f2dce7"/>
  </g>
  <path id="Path_3839" data-name="Path 3839" d="M1.617-2.031V0H.691V-5.6h1.7a2.251,2.251,0,0,1,1.5.449,1.566,1.566,0,0,1,.531,1.266,1.748,1.748,0,0,1-.555,1.336,2.106,2.106,0,0,1-1.5.52Zm0-2.8v2.047h.6a1.33,1.33,0,0,0,.91-.277.99.99,0,0,0,.313-.781q0-.988-1.148-.988Zm4.676,2.8V0H5.367V-5.6h1.7a2.251,2.251,0,0,1,1.5.449,1.566,1.566,0,0,1,.531,1.266,1.748,1.748,0,0,1-.555,1.336,2.106,2.106,0,0,1-1.5.52Zm0-2.8v2.047h.6a1.33,1.33,0,0,0,.91-.277.99.99,0,0,0,.313-.781q0-.988-1.148-.988ZM9.785-.223V-1.18a1.478,1.478,0,0,0,.307.211,2.369,2.369,0,0,0,.377.158,2.971,2.971,0,0,0,.4.1,2.124,2.124,0,0,0,.367.035,1.567,1.567,0,0,0,.873-.2.643.643,0,0,0,.287-.566.618.618,0,0,0-.1-.346,1,1,0,0,0-.268-.268,2.811,2.811,0,0,0-.4-.232q-.232-.111-.5-.232-.285-.152-.531-.309a2.286,2.286,0,0,1-.428-.346A1.446,1.446,0,0,1,9.885-3.6a1.393,1.393,0,0,1-.1-.559,1.289,1.289,0,0,1,.178-.686,1.5,1.5,0,0,1,.469-.48A2.149,2.149,0,0,1,11.09-5.6a3.144,3.144,0,0,1,.758-.092,3.059,3.059,0,0,1,1.281.2v.918A2.046,2.046,0,0,0,11.9-4.922a2.2,2.2,0,0,0-.412.039,1.225,1.225,0,0,0-.367.129.8.8,0,0,0-.264.23.565.565,0,0,0-.1.34.643.643,0,0,0,.078.324.836.836,0,0,0,.229.25,2.335,2.335,0,0,0,.367.221q.217.107.5.232.293.152.553.32a2.606,2.606,0,0,1,.457.371,1.631,1.631,0,0,1,.313.451,1.325,1.325,0,0,1,.115.564A1.4,1.4,0,0,1,13.2-.73a1.385,1.385,0,0,1-.463.477,2.062,2.062,0,0,1-.67.266,3.777,3.777,0,0,1-.8.082A3.41,3.41,0,0,1,10.92.072Q10.715.051,10.5.01a3.863,3.863,0,0,1-.406-.1A1.286,1.286,0,0,1,9.785-.223Zm8.8.223H17.473L16.324-2.055a2.064,2.064,0,0,1-.113-.266H16.2q-.035.086-.117.266L14.895,0H13.773l1.836-2.816L13.922-5.6h1.137L16.07-3.711q.1.188.176.375h.012q.113-.246.2-.391L17.5-5.6h1.047L16.824-2.824Z" transform="translate(3.16 22.505)" fill="#1b3244"/>
</svg>
