<svg id="pptx" xmlns="http://www.w3.org/2000/svg" width="25.32" height="33.76" viewBox="0 0 25.32 33.76">
  <g id="Group_64" data-name="Group 64" transform="translate(0)">
    <path id="Path_3736" data-name="Path 3736" d="M14.77,9.217V.25H1.583A1.579,1.579,0,0,0,0,1.833V32.427A1.579,1.579,0,0,0,1.583,34.01H23.737a1.579,1.579,0,0,0,1.583-1.583V10.8H16.352A1.587,1.587,0,0,1,14.77,9.217Z" transform="translate(0 -0.25)" fill="#8ac2ec"/>
    <path id="Path_3776" data-name="Path 3776" d="M24.071,7.73a1.468,1.468,0,0,0-.43-1.037L17.634.68A1.472,1.472,0,0,0,16.591.25h-.374V8.1h7.854Z" transform="translate(1.249 -0.25)" fill="#aacde9"/>
  </g>
  <path id="Path_3836" data-name="Path 3836" d="M1.617-2.031V0H.691V-5.6h1.7a2.251,2.251,0,0,1,1.5.449,1.566,1.566,0,0,1,.531,1.266,1.748,1.748,0,0,1-.555,1.336,2.106,2.106,0,0,1-1.5.52Zm0-2.8v2.047h.6a1.33,1.33,0,0,0,.91-.277.99.99,0,0,0,.313-.781q0-.988-1.148-.988Zm4.676,2.8V0H5.367V-5.6h1.7a2.251,2.251,0,0,1,1.5.449,1.566,1.566,0,0,1,.531,1.266,1.748,1.748,0,0,1-.555,1.336,2.106,2.106,0,0,1-1.5.52Zm0-2.8v2.047h.6a1.33,1.33,0,0,0,.91-.277.99.99,0,0,0,.313-.781q0-.988-1.148-.988Zm7.344.023H12.027V0H11.1V-4.812H9.492V-5.6h4.145ZM18.625,0H17.512L16.363-2.055a2.064,2.064,0,0,1-.113-.266h-.016q-.035.086-.117.266L14.934,0H13.813l1.836-2.816L13.961-5.6H15.1l1.012,1.891q.1.188.176.375H16.3q.113-.246.2-.391L17.543-5.6H18.59L16.863-2.824Z" transform="translate(3.002 22.482)" fill="#1b3244"/>
</svg>
