<svg xmlns="http://www.w3.org/2000/svg" width="20" height="20" viewBox="0 0 20 20">
  <path id="Path_105489" data-name="Path 105489" d="M17.5-17.5a2.525,2.525,0,0,1,1.758.742A2.525,2.525,0,0,1,20-15v5a.6.6,0,0,1-.625.625H17.344a.467.467,0,0,0-.469.469v.156a1.217,1.217,0,0,1-.352.9,1.217,1.217,0,0,1-.9.352,1.217,1.217,0,0,1-.9-.352,1.217,1.217,0,0,1-.352-.9v-.156a.467.467,0,0,0-.469-.469H12.5A.6.6,0,0,1,11.875-10v-1.25a.6.6,0,0,1,.625-.625h.625a1.217,1.217,0,0,0,.9-.352,1.217,1.217,0,0,0,.352-.9,1.217,1.217,0,0,0-.352-.9,1.217,1.217,0,0,0-.9-.352H12.5A.6.6,0,0,1,11.875-15v-1.875A.6.6,0,0,1,12.5-17.5ZM0-8.125V-12.5a2.525,2.525,0,0,1,.742-1.758A2.525,2.525,0,0,1,2.5-15H8.125a.6.6,0,0,1,.625.625v2.031a.467.467,0,0,0,.469.469h.156a1.217,1.217,0,0,1,.9.352,1.217,1.217,0,0,1,.352.9,1.217,1.217,0,0,1-.352.9,1.217,1.217,0,0,1-.9.352H9.219a.467.467,0,0,0-.469.469v2.031a.6.6,0,0,1-.625.625H6.875a.6.6,0,0,1-.625-.625V-7.5A1.217,1.217,0,0,0,5.9-8.4,1.217,1.217,0,0,0,5-8.75a1.217,1.217,0,0,0-.9.352,1.217,1.217,0,0,0-.352.9v.625a.6.6,0,0,1-.625.625H1.875V-.312a.934.934,0,0,0,.938.938H8.75V-.781a.467.467,0,0,0-.469-.469H8.125a1.217,1.217,0,0,1-.9-.352,1.217,1.217,0,0,1-.352-.9,1.217,1.217,0,0,1,.352-.9,1.217,1.217,0,0,1,.9-.352h.156a.467.467,0,0,0,.469-.469V-5.625a.6.6,0,0,1,.625-.625H11.25a.6.6,0,0,1,.625.625V-5a1.217,1.217,0,0,0,.352.9,1.217,1.217,0,0,0,.9.352,1.217,1.217,0,0,0,.9-.352,1.217,1.217,0,0,0,.352-.9v-.625A.6.6,0,0,1,15-6.25h1.875a.6.6,0,0,1,.625.625V0a2.525,2.525,0,0,1-.742,1.758A2.525,2.525,0,0,1,15,2.5H2.813A2.835,2.835,0,0,1,.82,1.68,2.835,2.835,0,0,1,0-.312V-8.125Z" transform="translate(0 17.5)" fill="#fff"/>
</svg>
