<svg xmlns="http://www.w3.org/2000/svg" width="24" height="24" viewBox="0 0 24 24"><defs><style>.a{fill:none;}.b{fill:#515151;}</style></defs><g transform="translate(-71 -317)"><rect class="a" width="24" height="24" transform="translate(71 317)"/><g transform="translate(72.55 321.7)"><path class="b" d="M2.739,7.187a8.864,8.864,0,0,0,1.984,5.151.562.562,0,0,1-.035.772l-.8.779a.659.659,0,0,1-.4.163.649.649,0,0,1-.439-.2A9.9,9.9,0,0,1,3.043.5.682.682,0,0,1,3.483.3a.659.659,0,0,1,.4.163l.8.779a.555.555,0,0,1,.035.772A8.932,8.932,0,0,0,2.739,7.173v.014ZM7.713,4.431a.606.606,0,0,1-.113.333,4.486,4.486,0,0,0-.85,2.409A4.486,4.486,0,0,0,7.6,9.582a.626.626,0,0,1,.113.333.613.613,0,0,1-.17.39l-.815.794a.594.594,0,0,1-.864-.05,7.025,7.025,0,0,1-1.417-3.89,7.045,7.045,0,0,1,1.417-3.89.684.684,0,0,1,.453-.213.7.7,0,0,1,.411.163l.815.794A.734.734,0,0,1,7.713,4.431ZM12.765,7.18A2.005,2.005,0,1,1,10.76,5.175,2.008,2.008,0,0,1,12.765,7.18Zm4.3,0a7.045,7.045,0,0,1-1.417,3.89.684.684,0,0,1-.453.213.7.7,0,0,1-.411-.163l-.815-.794a.613.613,0,0,1-.17-.39.606.606,0,0,1,.113-.333,4.486,4.486,0,0,0,.85-2.409,4.466,4.466,0,0,0-.85-2.409.626.626,0,0,1-.113-.333.613.613,0,0,1,.17-.39l.815-.794a.594.594,0,0,1,.864.05A6.9,6.9,0,0,1,17.066,7.18Zm4,0a9.839,9.839,0,0,1-2.593,6.675.682.682,0,0,1-.439.2.659.659,0,0,1-.4-.163l-.8-.779a.555.555,0,0,1-.035-.772A8.866,8.866,0,0,0,18.78,7.18,8.866,8.866,0,0,0,16.8,2.022a.562.562,0,0,1,.035-.772l.8-.779a.659.659,0,0,1,.4-.163.649.649,0,0,1,.439.2A9.839,9.839,0,0,1,21.069,7.18Z" transform="translate(0 0)"/></g></g></svg>