<svg xmlns="http://www.w3.org/2000/svg" width="17.993" height="16" viewBox="0 0 17.993 16">
  <g id="rubrick_edit" transform="translate(-6690.658 -9019)">
    <path id="file-pen-solid" d="M0,2A2,2,0,0,1,2,0H7V4A1,1,0,0,0,8,5h4V8.926L9.286,11.638A2.485,2.485,0,0,0,8.63,12.8l-.584,2.34A1.489,1.489,0,0,0,8.086,16L2,16a2,2,0,0,1-2-2ZM12,4H8V0Zm5.18,3.365.45.45a1.252,1.252,0,0,1,0,1.768l-.919.919L14.491,8.283l.919-.919A1.252,1.252,0,0,1,17.178,7.364ZM9.745,13.029l4.037-4.037L16,11.21l-4.037,4.034a.989.989,0,0,1-.466.262l-1.878.469a.5.5,0,0,1-.606-.606l.469-1.878a1,1,0,0,1,.262-.466Z" transform="translate(6690.658 9019)" fill="#979daf"/>
    <path id="Path_105749" data-name="Path 105749" d="M6.713-14.245H3.689v-3.024a.226.226,0,0,1,.217-.231,3.016,3.016,0,0,1,1.532.42,2.842,2.842,0,0,1,1.085,1.085,3.016,3.016,0,0,1,.42,1.532A.226.226,0,0,1,6.713-14.245ZM2.577-17A.383.383,0,0,1,2.9-16.9a.376.376,0,0,1,.136.312v3h3a.376.376,0,0,1,.312.136.383.383,0,0,1,.095.325,3.277,3.277,0,0,1-1.126,1.844,3.292,3.292,0,0,1-2.061.732A3.256,3.256,0,0,1,1.614-11,3.276,3.276,0,0,1,.448-12.17,3.256,3.256,0,0,1,0-13.811a3.292,3.292,0,0,1,.732-2.061A3.277,3.277,0,0,1,2.577-17Z" transform="translate(6692 9042.814)" fill="#fff"/>
  </g>
</svg>
