<svg version="1.1" id="Layer_1" xmlns="http://www.w3.org/2000/svg"
				 xmlns:xlink="http://www.w3.org/1999/xlink" x="0px" y="0px"
				 width="140px" height="140px" viewBox="0 0 140 140" enable-background="new 0 0 140 140"
				 xml:space="preserve">
<g>
	<g>
		<path fill="#E1E2E6" d="M124.226,112.121L95,82.893c13.51-20.119,8.152-47.383-11.968-60.896
			C62.911,8.486,35.647,13.843,22.135,33.964c-13.51,20.121-8.153,47.384,11.968,60.897c14.795,9.937,34.133,9.937,48.929,0
			l29.227,29.229c3.304,3.304,8.661,3.304,11.967,0S127.531,115.427,124.226,112.121z M58.607,98.58
			c-22.146-0.024-40.09-17.968-40.114-40.112c0-22.154,17.958-40.113,40.114-40.113c22.153,0,40.112,17.959,40.112,40.113
			C98.719,80.622,80.76,98.58,58.607,98.58z M121.59,121.45c-0.889,0.888-2.093,1.385-3.348,1.385
			c-1.254,0.006-2.459-0.494-3.346-1.383L86.433,92.983l6.688-6.691l28.467,28.468C123.436,116.606,123.437,119.603,121.59,121.45z"
		/>
	</g>
</g>
				<g>
	<g>
		<path fill="#E1E2E6" d="M59.588,22.1l-0.098,3.731c9.656,0.25,18.703,4.772,24.697,12.345l2.922-2.321
			C80.428,27.417,70.347,22.379,59.588,22.1z"/>
	</g>
</g>
				<g>
	<g>
		<path fill="#E1E2E6" d="M89.831,39.782l-3.2,1.92c0.695,1.155,1.318,2.352,1.867,3.583l3.4-1.506
			C91.293,42.407,90.602,41.072,89.831,39.782z"/>
	</g>
</g>
</svg>