<svg xmlns="http://www.w3.org/2000/svg" width="25.32" height="33.76" viewBox="0 0 25.32 33.76">
  <g id="sbt-icon-svg" transform="translate(0.39)">
    <g id="Group_64" data-name="Group 64" transform="translate(-0.39)">
      <path id="Path_3736" data-name="Path 3736" d="M14.77,9.217V.25H1.583A1.579,1.579,0,0,0,0,1.833V32.427A1.579,1.579,0,0,0,1.583,34.01H23.737a1.579,1.579,0,0,0,1.583-1.583V10.8H16.352A1.587,1.587,0,0,1,14.77,9.217Z" transform="translate(0 -0.25)" fill="#d4afb9"/>
      <path id="Path_3776" data-name="Path 3776" d="M24.071,7.73a1.468,1.468,0,0,0-.43-1.037L17.634.68A1.472,1.472,0,0,0,16.591.25h-.374V8.1h7.854Z" transform="translate(1.249 -0.25)" fill="#f3d5dd"/>
    </g>
    <path id="Path_3844" data-name="Path 3844" d="M.434-.223V-1.18A1.478,1.478,0,0,0,.74-.969a2.369,2.369,0,0,0,.377.158,2.971,2.971,0,0,0,.4.1,2.124,2.124,0,0,0,.367.035,1.567,1.567,0,0,0,.873-.2.643.643,0,0,0,.287-.566.618.618,0,0,0-.1-.346,1,1,0,0,0-.268-.268,2.812,2.812,0,0,0-.4-.232q-.232-.111-.5-.232-.285-.152-.531-.309A2.286,2.286,0,0,1,.818-3.17,1.446,1.446,0,0,1,.533-3.6a1.393,1.393,0,0,1-.1-.559,1.289,1.289,0,0,1,.178-.686,1.5,1.5,0,0,1,.469-.48A2.149,2.149,0,0,1,1.738-5.6,3.144,3.144,0,0,1,2.5-5.7a3.059,3.059,0,0,1,1.281.2v.918a2.046,2.046,0,0,0-1.227-.344,2.2,2.2,0,0,0-.412.039,1.225,1.225,0,0,0-.367.129.8.8,0,0,0-.264.23.565.565,0,0,0-.1.34.643.643,0,0,0,.078.324.836.836,0,0,0,.229.25,2.335,2.335,0,0,0,.367.221q.217.107.5.232.293.152.553.32a2.606,2.606,0,0,1,.457.371,1.631,1.631,0,0,1,.313.451,1.325,1.325,0,0,1,.115.564,1.4,1.4,0,0,1-.172.719,1.385,1.385,0,0,1-.463.477,2.062,2.062,0,0,1-.67.266,3.777,3.777,0,0,1-.8.082A3.41,3.41,0,0,1,1.568.072Q1.363.051,1.148.01a3.863,3.863,0,0,1-.406-.1A1.286,1.286,0,0,1,.434-.223Zm9-5.379L7.426,0H6.387L4.41-5.6H5.426l1.383,4.25a2.622,2.622,0,0,1,.1.473h.016a2.489,2.489,0,0,1,.113-.48L8.453-5.6ZM14.387-.383a4.008,4.008,0,0,1-1.949.477A2.713,2.713,0,0,1,10.426-.68a2.775,2.775,0,0,1-.77-2.047A2.876,2.876,0,0,1,10.5-4.861,2.912,2.912,0,0,1,12.637-5.7a3.983,3.983,0,0,1,1.57.273v.957a2.7,2.7,0,0,0-1.535-.43,1.955,1.955,0,0,0-1.467.59,2.1,2.1,0,0,0-.572,1.527,2.2,2.2,0,0,0,.492,1.518,1.7,1.7,0,0,0,1.336.553,2.115,2.115,0,0,0,1-.223V-2.262h-1.18v-.781h2.105Z" transform="translate(4.77 22.505)" fill="#1b3244"/>
  </g>
</svg>
