<svg xmlns="http://www.w3.org/2000/svg" width="200" height="172" viewBox="0 0 200 172">
  <g id="Group_785" data-name="Group 785" transform="translate(-5005 -5341)">
    <rect id="Rectangle_206" data-name="Rectangle 206" width="200" height="172" transform="translate(5005 5341)" fill="none"/>
    <g id="_6276184_copy" data-name="6276184 copy" transform="translate(4983.692 5300.91)">
      <g id="BACKGROUND" transform="translate(35.608 47.594)">
        <path id="Path_104358" data-name="Path 104358" d="M83.631,76.861c-11.555,11.314-23.226,22.771-31.8,36.482s-13.888,30.112-11.428,46.1c2.837,18.458,15.9,34.31,32.059,43.664s35.129,12.843,53.793,13.466c17.7.59,35.871-1.377,51.829-9.067s29.464-21.75,33.4-39.015c3.632-15.9-1.045-32.621-8.141-47.312a148.462,148.462,0,0,0-35.359-46.627C156.612,64.514,143.1,56.025,128.033,54.291S99.278,61.543,83.631,76.861Z" transform="translate(-39.799 -54.077)" fill="#9acedb"/>
      </g>
      <g id="OBJECTS" transform="translate(32.696 43.09)">
        <g id="Group_663" data-name="Group 663" transform="translate(3.9 10.074)">
          <path id="Path_104359" data-name="Path 104359" d="M352.393,172.159c-8.411.2-16.835.394-25.226-.217a5.042,5.042,0,0,1-2.9-.832,1.8,1.8,0,0,1-.262-2.66c1.008-.8,2.628.176,3.747-.463.873-.5.98-1.681,1.127-2.677a7.579,7.579,0,0,1,2.951-5.157,4.21,4.21,0,0,1,5.644.48,18.485,18.485,0,0,1,2.554-4.337,6.227,6.227,0,0,1,4.329-2.316c2.267-.078,4.259,1.5,5.489,2.779a9.729,9.729,0,0,1,4.341-3.128,3.817,3.817,0,0,1,5.14,4.689,11.675,11.675,0,0,1-1.287,2.955c-.389.7-.775,1.631-.25,2.238a1.475,1.475,0,0,0,1.652.221c.549-.225,1.012-.623,1.545-.881a3.479,3.479,0,0,1,3.365.221,3.064,3.064,0,0,1,1.291,3.263,3.36,3.36,0,0,1,4.169-.971c1.373.734,2.062,2.541,1.4,4.636a22.3,22.3,0,0,0,2.582-.283c.869,0,1.873.775,1.537,1.578-.262.627-1.09.726-1.771.73C366.543,172.073,359.521,172,352.393,172.159Z" transform="translate(-208.211 -118.283)" fill="#fff"/>
          <path id="Path_104360" data-name="Path 104360" d="M152.467,88.421q-8.2.2-16.409.365a48.194,48.194,0,0,1-9.166-.4,3.705,3.705,0,0,1-1.5-.508,1.416,1.416,0,0,1-.656-1.361,1.624,1.624,0,0,1,1.484-1.1,14.6,14.6,0,0,1,2.816.275,2.447,2.447,0,0,0,2.464-1.029,3.473,3.473,0,0,0-.1-2.357,6.6,6.6,0,0,1,.353-4.8c.808-1.435,2.681-2.341,3.808-1.467a13.273,13.273,0,0,1,3.595-6.1,8.167,8.167,0,0,1,6.583-2.185,6.921,6.921,0,0,1,5.382,5.128,4.632,4.632,0,0,1,6.718,2.779c.2.7.316,1.562.976,1.869a2.757,2.757,0,0,0,1.677-.1,3.88,3.88,0,0,1,3.742,1.41c.857,1.111,1.021,2.718.594,4.874a2.012,2.012,0,0,1,2.1-.234,16.453,16.453,0,0,0,2.062.836c.885.189,1.808-.049,2.7.061s1.861.844,1.681,1.726c-.193.922-1.369,1.168-2.308,1.222C165.137,87.667,159.23,88.253,152.467,88.421Z" transform="translate(-90.894 -67.666)" fill="#fff"/>
          <g id="Group_662" data-name="Group 662" transform="translate(0 62.809)">
            <g id="Group_655" data-name="Group 655" transform="translate(24.435 9.587)">
              <path id="Path_104361" data-name="Path 104361" d="M109.124,279.6a42.8,42.8,0,0,1-7.3-23.758,11.58,11.58,0,0,1,.881-5.128,4.319,4.319,0,0,1,7.546-1.135,11.269,11.269,0,0,1,1.91,3.517c1.668,4.443,2.439,9.161,3.615,13.761s2.824,9.211,5.927,12.806Z" transform="translate(-101.82 -246.374)" fill="#2e2854" opacity="0.15"/>
              <path id="Path_104362" data-name="Path 104362" d="M112.77,276.1a42.776,42.776,0,0,1-6.764-23.918,11.642,11.642,0,0,1,1-5.107,4.825,4.825,0,0,1,4.12-2.8,4.759,4.759,0,0,1,3.447,1.828,11.19,11.19,0,0,1,1.828,3.558c1.566,4.48,2.234,9.215,3.3,13.839s2.615,9.272,5.636,12.937Z" transform="translate(-104.285 -244.279)" fill="#f7a145"/>
              <path id="Path_104363" data-name="Path 104363" d="M120.36,267.34a57.072,57.072,0,0,0,8.428,24.2" transform="translate(-112.76 -257.887)" fill="none" stroke="#2e2854" stroke-linecap="round" stroke-linejoin="round" stroke-width="1.5"/>
            </g>
            <g id="Group_656" data-name="Group 656" transform="translate(37.641 11.598)">
              <path id="Path_104364" data-name="Path 104364" d="M152.218,282.9c1.64-8.325,3.279-16.921,1.558-25.23-.467-2.259-1.447-4.759-3.62-5.53-2.021-.717-4.337.467-5.546,2.238a12.492,12.492,0,0,0-1.726,6.124,53.083,53.083,0,0,0,2.492,20.951Z" transform="translate(-139.153 -250.805)" fill="#2e2854" opacity="0.15"/>
              <path id="Path_104365" data-name="Path 104365" d="M144.212,280.02c1.345-8.379,2.685-17.024.676-25.267-.545-2.242-1.611-4.706-3.812-5.4-2.045-.644-4.316.619-5.468,2.431a12.536,12.536,0,0,0-1.513,6.177,53.124,53.124,0,0,0,3.222,20.848Z" transform="translate(-134.036 -249.185)" fill="#76c9bf"/>
              <path id="Path_104366" data-name="Path 104366" d="M149.131,268.09a111.392,111.392,0,0,0,1.193,25.021" transform="translate(-142.804 -260.341)" fill="none" stroke="#2e2854" stroke-linecap="round" stroke-linejoin="round" stroke-width="1.5"/>
            </g>
            <g id="Group_657" data-name="Group 657" transform="translate(0.004 14.52)">
              <path id="Path_104367" data-name="Path 104367" d="M57.695,284.62q.326-9.278.652-18.553c.066-1.84.041-3.915-1.275-5.2a4.359,4.359,0,0,0-4.821-.521,9.643,9.643,0,0,0-3.665,3.542,26.256,26.256,0,0,0-2.968,22.775Z" transform="translate(-43.421 -258.408)" fill="#2e2854" opacity="0.15"/>
              <path id="Path_104368" data-name="Path 104368" d="M56.005,280.87q-.166-9.278-.328-18.561c-.033-1.84-.164-3.911-1.549-5.128a4.363,4.363,0,0,0-4.841-.266,9.634,9.634,0,0,0-3.472,3.73,26.271,26.271,0,0,0-1.763,22.9Z" transform="translate(-42.22 -256.315)" fill="#f7a145"/>
              <path id="Path_104369" data-name="Path 104369" d="M61.351,291.619a33.178,33.178,0,0,1-.02-19.3" transform="translate(-52.656 -265.759)" fill="none" stroke="#2e2854" stroke-linecap="round" stroke-linejoin="round" stroke-width="1.5"/>
            </g>
            <g id="Group_658" data-name="Group 658" transform="translate(11.588 19.365)">
              <path id="Path_104370" data-name="Path 104370" d="M70.48,290.886a41.42,41.42,0,0,1,1.8-9.633,16.818,16.818,0,0,1,5.452-8,4,4,0,0,1,3.439-1.008c1.668.525,2.181,2.689,1.894,4.415-.791,4.759-5.28,8.3-5.936,13.076Z" transform="translate(-70.48 -270.495)" fill="#2e2854" opacity="0.15"/>
              <path id="Path_104371" data-name="Path 104371" d="M71.934,288.288a41.422,41.422,0,0,1,.213-9.8,16.8,16.8,0,0,1,4.083-8.78,4,4,0,0,1,3.23-1.554c1.734.246,2.587,2.3,2.582,4.05-.008,4.825-3.861,9.047-3.734,13.867Z" transform="translate(-71.229 -268.134)" fill="#76c9bf"/>
            </g>
            <g id="Group_659" data-name="Group 659" transform="translate(103.121)">
              <path id="Path_104372" data-name="Path 104372" d="M299.67,254.224q3.24-12.174,6.477-24.345a13.922,13.922,0,0,1,2.177-5.2,4.744,4.744,0,0,1,4.989-1.857,4.691,4.691,0,0,1,2.718,2.976,13.612,13.612,0,0,1,.553,4.115,68.994,68.994,0,0,1-.537,13.429,25.848,25.848,0,0,1-5.177,12.26Z" transform="translate(-297.256 -221.924)" fill="#2e2854" opacity="0.15"/>
              <path id="Path_104373" data-name="Path 104373" d="M293.78,252.95q2.755-12.291,5.505-24.582a13.938,13.938,0,0,1,1.968-5.28,4.742,4.742,0,0,1,4.911-2.054A4.684,4.684,0,0,1,309,223.9a13.489,13.489,0,0,1,.717,4.091,69.459,69.459,0,0,1,0,13.441,25.851,25.851,0,0,1-4.685,12.457Z" transform="translate(-293.78 -220.892)" fill="#76c9bf"/>
              <path id="Path_104374" data-name="Path 104374" d="M310.826,244.74a59.63,59.63,0,0,1-5.136,25.8" transform="translate(-300.808 -234.964)" fill="none" stroke="#2e2854" stroke-linecap="round" stroke-linejoin="round" stroke-width="1.5"/>
            </g>
            <g id="Group_660" data-name="Group 660" transform="translate(94.909 3.527)">
              <path id="Path_104375" data-name="Path 104375" d="M277.719,258.576a44.933,44.933,0,0,1,2.3-22.164c.644-1.738,1.791-3.71,3.644-3.722a3.171,3.171,0,0,1,2.738,2,7.015,7.015,0,0,1,.365,3.533c-.377,3.685-1.832,7.161-2.9,10.707s-1.738,7.411-.545,10.92A15.894,15.894,0,0,1,277.719,258.576Z" transform="translate(-275.803 -231.381)" fill="#2e2854" opacity="0.15"/>
              <path id="Path_104376" data-name="Path 104376" d="M275.154,255.871a44.926,44.926,0,0,1-.008-22.283c.463-1.8,1.4-3.878,3.238-4.079a3.169,3.169,0,0,1,2.931,1.705,6.964,6.964,0,0,1,.726,3.476c.008,3.706-1.078,7.313-1.775,10.953s-.963,7.555.59,10.916A16.064,16.064,0,0,1,275.154,255.871Z" transform="translate(-273.746 -229.496)" fill="#f7a145"/>
            </g>
            <g id="Group_661" data-name="Group 661" transform="translate(158.73 5.407)">
              <path id="Path_104377" data-name="Path 104377" d="M429.44,260.308a61.765,61.765,0,0,1,1.7-13.486c1.222-4.374,3.525-8.588,7.178-11.285,1.808-1.336,4.558-2.177,6.149-.59,1.385,1.381.984,3.677.471,5.567q-2.41,8.928-5.091,17.778Z" transform="translate(-429.44 -234.084)" fill="#2e2854" opacity="0.15"/>
              <path id="Path_104378" data-name="Path 104378" d="M430.96,259.828a61.99,61.99,0,0,1,2.529-13.355c1.492-4.292,4.05-8.354,7.862-10.818,1.89-1.222,4.681-1.894,6.173-.209,1.3,1.463.754,3.734.127,5.587q-2.958,8.762-6.181,17.429Z" transform="translate(-430.337 -234.292)" fill="#76c9bf"/>
              <path id="Path_104379" data-name="Path 104379" d="M442.16,272.116a32.464,32.464,0,0,1,6.882-18.766" transform="translate(-436.946 -245.453)" fill="none" stroke="#2e2854" stroke-linecap="round" stroke-linejoin="round" stroke-width="1.5"/>
            </g>
            <path id="Path_104380" data-name="Path 104380" d="M179.5,335.1c15.954-7.69,29.464-21.75,33.4-39.015a54.828,54.828,0,0,0,.742-19.295,6.958,6.958,0,0,0-.767-.131c-3.542-.439-7.05.808-10.424,1.98s-6.948,2.3-10.453,1.636c-6.464-1.23-10.617-8.108-17.015-9.637-7.145-1.705-13.929,3.747-21.188,4.87-5.739.889-11.547-.984-17.356-.922-17.5.184-31.838,17.491-49.288,16.114-9.3-.734-17.552-6.8-26.853-7.575a24.772,24.772,0,0,0-18.093,6.087c3.488,17.528,16.142,32.51,31.67,41.5,16.163,9.354,35.129,12.843,53.793,13.466C145.376,344.758,163.548,342.791,179.5,335.1Z" transform="translate(-42.21 -250.053)" fill="#49ad9f"/>
          </g>
        </g>
        <g id="Group_702" data-name="Group 702" transform="translate(0)">
          <path id="Path_104469" data-name="Path 104469" d="M77.1,412.222a1.041,1.041,0,1,0,.074,1.615A1.035,1.035,0,0,0,77.1,412.222Z" transform="translate(-64.925 -272.797)" fill="#9acedb"/>
          <path id="Path_104470" data-name="Path 104470" d="M170.612,241.5a1.042,1.042,0,1,0,.07,1.615A1.03,1.03,0,0,0,170.612,241.5Z" transform="translate(-113.104 -160.057)" fill="#fff"/>
          <path id="Path_104471" data-name="Path 104471" d="M253.412,76.952a1.042,1.042,0,1,0,.07,1.615A1.032,1.032,0,0,0,253.412,76.952Z" transform="translate(-161.963 -62.958)" fill="#fff"/>
          <path id="Path_104472" data-name="Path 104472" d="M156.028,44.4a1.041,1.041,0,1,0,.074,1.615A1.038,1.038,0,0,0,156.028,44.4Z" transform="translate(-116.677 -32.464)" fill="#9acedb"/>
          <path id="Path_104473" data-name="Path 104473" d="M94.192,459.882a1.042,1.042,0,1,0,.07,1.615A1.032,1.032,0,0,0,94.192,459.882Z" transform="translate(-75.009 -300.92)" fill="#9acedb"/>
          <path id="Path_104474" data-name="Path 104474" d="M458.062,392.122a1.042,1.042,0,1,0,.07,1.615A1.035,1.035,0,0,0,458.062,392.122Z" transform="translate(-277.725 -256.936)" fill="#9acedb"/>
          <path id="Path_104475" data-name="Path 104475" d="M415.4,91.162a1.042,1.042,0,1,0,.07,1.615A1.035,1.035,0,0,0,415.4,91.162Z" transform="translate(-257.552 -71.343)" fill="#9acedb"/>
          <path id="Path_104476" data-name="Path 104476" d="M104.925,45.952a2.271,2.271,0,1,0,1.111,3.238A2.281,2.281,0,0,0,104.925,45.952Z" transform="translate(-76.659 -17.69)" fill="#9acedb"/>
          <path id="Path_104477" data-name="Path 104477" d="M392.015,450.322a2.271,2.271,0,1,0,1.111,3.238A2.284,2.284,0,0,0,392.015,450.322Z" transform="translate(-237.892 -291.304)" fill="#9acedb"/>
          <path id="Path_104478" data-name="Path 104478" d="M446.255,88.132a2.271,2.271,0,1,0,1.111,3.238A2.282,2.282,0,0,0,446.255,88.132Z" transform="translate(-274.898 -69.58)" fill="#9acedb"/>
          <path id="Path_104479" data-name="Path 104479" d="M35.8,398.692a2.271,2.271,0,1,0,1.111,3.238A2.281,2.281,0,0,0,35.8,398.692Z" transform="translate(-39.696 -264.838)" fill="#9acedb"/>
          <circle id="Ellipse_68" data-name="Ellipse 68" cx="1.111" cy="1.111" r="1.111" transform="translate(20.046 82.085)" fill="none" stroke="#2e2854" stroke-linecap="round" stroke-linejoin="round" stroke-width="1.5"/>
          <circle id="Ellipse_69" data-name="Ellipse 69" cx="1.111" cy="1.111" r="1.111" transform="translate(66.339 2)" fill="none" stroke="#2e2854" stroke-linecap="round" stroke-linejoin="round" stroke-width="1.5"/>
          <circle id="Ellipse_70" data-name="Ellipse 70" cx="1.111" cy="1.111" r="1.111" transform="translate(167.261 152.796)" fill="none" stroke="#2e2854" stroke-linecap="round" stroke-linejoin="round" stroke-width="1.5"/>
          <circle id="Ellipse_71" data-name="Ellipse 71" cx="1.111" cy="1.111" r="1.111" transform="translate(122.175 41.069)" fill="none" stroke="#2e2854" stroke-linecap="round" stroke-linejoin="round" stroke-width="1.5"/>
        </g>
      </g>
      <g id="Group_736" data-name="Group 736" transform="translate(80.721 86.939)">
        <g id="Group_737" data-name="Group 737" transform="translate(0 0)">
          <g id="Group_736-2" data-name="Group 736" transform="translate(0 0)">
            <path id="Path_104540" data-name="Path 104540" d="M101.972,140.6s-3.383,78.772,25.793,82.556l61.4-2.889s-18.4-34.9-15.629-78.845Z" transform="translate(-101.852 -133.931)" fill="#fff" stroke="#1d1640" stroke-width="1"/>
            <path id="Path_104541" data-name="Path 104541" d="M106.452,129.68s-3.383,78.772,25.793,82.556l61.4-2.889s-18.4-34.9-15.629-78.845Z" transform="translate(-104.983 -126.297)" fill="#fff" stroke="#1d1640" stroke-width="1"/>
            <path id="Path_104542" data-name="Path 104542" d="M112.9,122.6s-3.383,78.772,25.793,82.556l61.4-2.889s-20.153-29.624-15.629-78.845Z" transform="translate(-109.492 -121.348)" fill="#fff" stroke="#1d1640" stroke-width="1"/>
            <path id="Path_104543" data-name="Path 104543" d="M148.238,182.871c.614,13.074-7.876,15.19-7.876,15.19-18.184-3.01-19.641-79.621-19.641-79.621l69.424,1.029s1.592,52.119,10.215,71.044Z" transform="translate(-115.041 -118.44)" fill="#fff" stroke="#1d1640" stroke-width="1"/>
            <path id="Path_104544" data-name="Path 104544" d="M185.97,346.689l61.509-2.892a18.184,18.184,0,0,0,3.488-12.623l-56.925-.114S191.728,345.774,185.97,346.689Z" transform="translate(-160.653 -267.068)" fill="#fff" stroke="#1d1640" stroke-width="1"/>
          </g>
        </g>
        <path id="Path_104545" data-name="Path 104545" d="M139.962,140.907l28.973-.258c.111,0,.205.249.225.584l.232,4.041c.027.441-.086.848-.232.838l-29.114.259c-.121,0-.219-.292-.229-.661l-.091-4.037C139.718,141.252,139.826,140.9,139.962,140.907Z" transform="translate(-128.327 -134.019)" fill="#c55adc" opacity="0.58"/>
        <path id="Path_104553" data-name="Path 104553" d="M139.818,141.307l29.117-.3c.111,0,.205.249.225.584l.333,3.22c.027.441-.086.848-.232.838l-29.188.227h-.025c-.121,0-.219-.292-.229-.661l-.237-3.138C139.574,141.652,139.682,141.3,139.818,141.307Z" transform="translate(-97.62 -134.291)" fill="#fff" stroke="#2e2854" stroke-width="1"/>
        <path id="Path_104546" data-name="Path 104546" d="M143.127,165.665l58.45-.819a.8.8,0,0,1,.809.508l.938,3.8c.1.383-.309.738-.832.729l-59.063.536a.771.771,0,0,1-.82-.575l-.326-3.513C142.25,165.965,142.638,165.661,143.127,165.665Z" transform="translate(-129.928 -149.253)" fill="#c55adc" opacity="0.58"/>
        <path id="Path_104547" data-name="Path 104547" d="M148.511,212.653l29.331-.172c.2,0,.366.212.4.5l.413,4.048c.047.375-.154.722-.413.714H148.88c-.215,0-.391-.249-.408-.563l-.38-3.872C148.075,212.947,148.268,212.649,148.511,212.653Z" transform="translate(-134.137 -178.945)" fill="#c55adc" opacity="0.58"/>
        <path id="Path_104548" data-name="Path 104548" d="M146.548,187.361l31.306.106c.142,0,.262.195.287.457l.333,3.416c.034.345-.11.663-.3.655l-31.171.126c-.154,0-.279-.228-.291-.517l-.469-3.648C146.236,187.634,146.374,187.357,146.548,187.361Z" transform="translate(-105.07 -163.471)" fill="#c55adc" opacity="0.58"/>
        <path id="Path_104554" data-name="Path 104554" d="M146.724,188.2l25.078-.5c.114,0,.21.2.231.461l.268,3.45c.027.348-.088.67-.238.662l-25.253.24c-.124,0-.225-.231-.234-.522l-.093-3.189C146.473,188.479,146.584,188.2,146.724,188.2Z" transform="translate(-132.547 -163.944)" fill="#fff" stroke="#2e2854" stroke-width="1"/>
        <path id="Path_104549" data-name="Path 104549" d="M151.587,234.322l58.334-.822c.224,0,.412.224.453.527l.526,3.936c.053.4-.173.764-.466.755l-58.677.528c-.242,0-.441-.263-.46-.6l-.183-3.638C151.1,234.633,151.314,234.317,151.587,234.322Z" transform="translate(-134.592 -189.428)" fill="#c55adc" opacity="0.58"/>
        <path id="Path_104555" data-name="Path 104555" d="M148.552,212.63l26.786-.112c.183,0,.337.205.371.482l.43,3.6c.044.363-.142.7-.381.691h-26.7c-.2,0-.361-.241-.376-.545l-.511-3.484C148.15,212.914,148.328,212.626,148.552,212.63Z" transform="translate(-102.735 -178.945)" fill="#fff" stroke="#2e2854" stroke-width="1"/>
      </g>
    </g>
  </g>
</svg>
