<svg xmlns="http://www.w3.org/2000/svg" width="17.5" height="20" viewBox="0 0 17.5 20">
  <path id="Path_3739" data-name="Path 3739" d="M6.25,15.625a.625.625,0,0,1-1.25,0V7.5a.625.625,0,0,1,1.25,0Zm3.125,0a.625.625,0,0,1-1.25,0V7.5a.625.625,0,0,1,1.25,0Zm3.125,0a.625.625,0,0,1-1.25,0V7.5a.625.625,0,1,1,1.25,0ZM12.4.974l1.434,2.151h2.727a.938.938,0,1,1,0,1.875H16.25V16.875A3.124,3.124,0,0,1,13.125,20H4.375A3.125,3.125,0,0,1,1.25,16.875V5H.937a.938.938,0,0,1,0-1.875H3.665L5.1.974A2.19,2.19,0,0,1,6.918,0h3.664A2.19,2.19,0,0,1,12.4.974ZM5.918,3.125h5.664L10.84,2.014a.314.314,0,0,0-.258-.139H6.918c-.1,0-.234.052-.258.139ZM3.125,16.875a1.249,1.249,0,0,0,1.25,1.25h8.75a1.249,1.249,0,0,0,1.25-1.25V5H3.125Z" fill="#1b3244"/>
</svg>
