<svg xmlns="http://www.w3.org/2000/svg" width="17.5" height="20" viewBox="0 0 17.5 20">
  <path id="Path_105481" data-name="Path 105481" d="M10.469,16.75h.938a.469.469,0,0,0,.469-.469V7.844a.469.469,0,0,0-.469-.469h-.937A.469.469,0,0,0,10,7.844v8.438A.469.469,0,0,0,10.469,16.75ZM16.875,3.625H13.656L12.328,1.41A2.079,2.079,0,0,0,10.72.5H6.781a2.079,2.079,0,0,0-1.608.91L3.844,3.625H.625A.625.625,0,0,0,0,4.25v.625A.625.625,0,0,0,.625,5.5H1.25V18.625A1.876,1.876,0,0,0,3.125,20.5h11.25a1.876,1.876,0,0,0,1.875-1.875V5.5h.625a.625.625,0,0,0,.625-.625V4.25A.625.625,0,0,0,16.875,3.625ZM6.712,2.489a.26.26,0,0,1,.2-.114h3.673a.26.26,0,0,1,.2.114l.682,1.136H6.031Zm7.663,16.136H3.125V5.5h11.25ZM6.094,16.75h.938a.469.469,0,0,0,.469-.469V7.844a.469.469,0,0,0-.469-.469H6.094a.469.469,0,0,0-.469.469v8.438A.469.469,0,0,0,6.094,16.75Z" transform="translate(0 -0.5)" fill="#333"/>
</svg>
