<svg xmlns="http://www.w3.org/2000/svg" width="24" height="24" viewBox="0 0 24 24"><defs><style>.a{fill:none;}.b{fill:#515151;}</style></defs><g transform="translate(-171 -320)"><rect class="a" width="24" height="24" transform="translate(171 320)"/><g transform="translate(173 325)"><path class="b" d="M106.46,50.822l-.8-.78a.625.625,0,0,0-.4-.162.65.65,0,0,0-.434.2,9.828,9.828,0,0,0-1.774,2.7l.14.082,1.929,1.1a8.583,8.583,0,0,1,.78-1.561,5.894,5.894,0,0,1,.6-.81A.555.555,0,0,0,106.46,50.822Zm.037,11.094a8.86,8.86,0,0,1-1.988-5.153v-.015a6.067,6.067,0,0,1,.1-1.06l-2.128-1.215a9.9,9.9,0,0,0,2.334,8.959.616.616,0,0,0,.434.2.666.666,0,0,0,.4-.162l.8-.78A.562.562,0,0,0,106.5,61.916Zm2.82-8.326-.817-.8a.7.7,0,0,0-.412-.162.683.683,0,0,0-.449.213,4.021,4.021,0,0,0-.287.39,6.946,6.946,0,0,0-.758,1.575l2.032,1.163a4.487,4.487,0,0,1,.721-1.6.162.162,0,0,1,.022-.037.589.589,0,0,0,.118-.331A.781.781,0,0,0,109.317,53.59Zm.052,5.573a3.788,3.788,0,0,1-.567-1.075l-2.577-1.472a.673.673,0,0,0-.007.118,7.019,7.019,0,0,0,1.421,3.894.591.591,0,0,0,.861.052l.817-.8a.65.65,0,0,0,.169-.39A.589.589,0,0,0,109.368,59.163Zm3.166-4.41a2.01,2.01,0,0,0-2.01,2,1.56,1.56,0,0,0,.029.324v.007l2.694,1.546.007-.007a2.015,2.015,0,0,0,1.207-1.318,2.269,2.269,0,0,0,.074-.552A2,2,0,0,0,112.534,54.753Zm4.888-1.855a.651.651,0,0,0-.456-.213.662.662,0,0,0-.4.162l-.817.8a.577.577,0,0,0-.169.39.619.619,0,0,0,.11.331,4.438,4.438,0,0,1,.854,2.407,4.245,4.245,0,0,1-.353,1.53,3.7,3.7,0,0,1-.5.884.557.557,0,0,0-.11.331.608.608,0,0,0,.169.39l.375.361.007.015.979.559h.007a.74.74,0,0,0,.309-.191,5.5,5.5,0,0,0,.744-1.215,6.832,6.832,0,0,0,.67-2.679A6.882,6.882,0,0,0,117.422,52.9Zm2.827-2.812a.619.619,0,0,0-.442-.2.657.657,0,0,0-.4.161l-.8.781a.561.561,0,0,0-.037.773,8.85,8.85,0,0,1,1.98,5.153,8.651,8.651,0,0,1-.913,3.519,7.249,7.249,0,0,1-.928,1.48v.007l1.17.67.825.464a9.887,9.887,0,0,0-.456-12.809Z" transform="translate(-102.22 -49.88)"/><path class="b" d="M121.287,61.531l-1.542,1.121-2.135-1.2h0l-.99-.565L113.7,59.227l-2.725-1.56V57.66s-1.463-.829-1.95-1.108,0-.007,0-.007l-2.054-1.174-1.5-.855-1.972-1.2.9-1.442,1.861,1.07,1.474.84,2.017,1.152,1.756,1,3.417,1.954,1.743,1,2,1.145,1.489.848Z" transform="translate(-102.53 -50.363)"/></g></g></svg>