<svg xmlns="http://www.w3.org/2000/svg" width="25.011" height="20.011" viewBox="0 0 25.011 20.011">
  <path id="unrelease" data-name="unrelease" d="M1.523.7A.946.946,0,0,0,.352,2.18L23.477,20.3a.946.946,0,1,0,1.172-1.484l-3.594-2.812A11.25,11.25,0,0,0,20.039,3.469,1.416,1.416,0,0,0,19.18,3a1.31,1.31,0,0,0-.9.273,1.171,1.171,0,0,0-.469.82,1.372,1.372,0,0,0,.273.938A8.878,8.878,0,0,1,20,10.5a9.075,9.075,0,0,1-.937,3.945l-1.523-1.172a6.623,6.623,0,0,0,.586-2.773,6.922,6.922,0,0,0-1.758-4.57,1.249,1.249,0,0,0-.859-.43,1.161,1.161,0,0,0-.9.313,1.249,1.249,0,0,0-.43.859,1.4,1.4,0,0,0,.313.9,4.373,4.373,0,0,1,1.133,2.93,4.1,4.1,0,0,1-.156,1.133L13.359,9.992a2.044,2.044,0,0,0-.742-1.211,2.124,2.124,0,0,0-1.367-.469h-.039Zm3.32,7.344A6.565,6.565,0,0,0,4.375,10.5a6.922,6.922,0,0,0,1.758,4.57,1.249,1.249,0,0,0,.859.43,1.161,1.161,0,0,0,.9-.312,1.362,1.362,0,0,0,.43-.859,1.4,1.4,0,0,0-.312-.9A4.373,4.373,0,0,1,6.875,10.5a3.975,3.975,0,0,1,.078-.781ZM1.289,5.266A11.441,11.441,0,0,0,0,10.5a11.252,11.252,0,0,0,2.461,7.031A1.416,1.416,0,0,0,3.32,18a1.31,1.31,0,0,0,.9-.273,1.171,1.171,0,0,0,.469-.82,1.372,1.372,0,0,0-.273-.937A8.878,8.878,0,0,1,2.5,10.5a8.507,8.507,0,0,1,.781-3.633Z" transform="translate(0.006 -0.494)" fill="#515151"/>
</svg>
