<svg xmlns="http://www.w3.org/2000/svg" width="132.774" height="125.222" viewBox="0 0 132.774 125.222">
  <g id="Group_455" data-name="Group 455" transform="translate(-577.619 -438.672)">
    <path id="Path_3903" data-name="Path 3903" d="M586.4,529.884a49.1,49.1,0,0,1-8.77-27.18,62.961,62.961,0,0,1,32.088-55.687c28.72-16.159,65.093-7.227,79.533,12.906,23.733,33.087-9.178,100.043-50.4,102.073C619.77,562.936,600.234,549.9,586.4,529.884Z" transform="translate(0 0)" fill="#cbdfff"/>
    <path id="Path_3904" data-name="Path 3904" d="M1364.054,890.265a4.121,4.121,0,0,1-1.4-.246l-63.074-22.753a4.115,4.115,0,0,1-2.474-5.268l28.186-78.133a4.12,4.12,0,0,1,5.268-2.475l63.073,22.753a4.115,4.115,0,0,1,2.474,5.268l-28.185,78.133a4.125,4.125,0,0,1-3.869,2.721Zm-34.888-108.549a3.55,3.55,0,0,0-3.338,2.342l-28.186,78.133a3.545,3.545,0,0,0,2.132,4.537l63.073,22.753a3.544,3.544,0,0,0,4.537-2.132l28.185-78.133a3.544,3.544,0,0,0-2.132-4.537l-63.073-22.753A3.532,3.532,0,0,0,1329.166,781.716Z" transform="translate(-686.473 -326.87)" fill="#545454" stroke="#707070" stroke-width="1"/>
    <g id="Group_446" data-name="Group 446" transform="translate(612.492 454.175)">
      <path id="Path_3906" data-name="Path 3906" d="M1411.352,882.57l-65.319-15.146a3.83,3.83,0,0,1-2.866-4.6l18.763-80.915a3.83,3.83,0,0,1,4.6-2.866l65.319,15.146a3.829,3.829,0,0,1,2.866,4.6L1415.948,879.7A3.83,3.83,0,0,1,1411.352,882.57Z" transform="translate(-1343.068 -778.947)" fill="#ffe9c6"/>
      <path id="Path_3907" data-name="Path 3907" d="M1913.785,1007.563l-28.221-6.544a1.454,1.454,0,0,1-1.088-1.745h0a1.454,1.454,0,0,1,1.745-1.088l28.221,6.544a1.454,1.454,0,0,1,1.088,1.745h0A1.454,1.454,0,0,1,1913.785,1007.563Z" transform="translate(-1859.774 -988.162)" fill="#eaa244"/>
      <path id="Path_3908" data-name="Path 3908" d="M1896.093,1206.837l-55.279-12.818a1.454,1.454,0,0,1-1.088-1.745h0a1.454,1.454,0,0,1,1.745-1.088L1896.75,1204a1.454,1.454,0,0,1,1.088,1.745h0A1.454,1.454,0,0,1,1896.093,1206.837Z" transform="translate(-1817.063 -1172.369)" fill="#eaa244"/>
      <path id="Path_3909" data-name="Path 3909" d="M1851.343,1399.837l-55.279-12.818a1.454,1.454,0,0,1-1.088-1.745h0a1.454,1.454,0,0,1,1.745-1.088L1852,1397a1.454,1.454,0,0,1,1.088,1.745h0A1.455,1.455,0,0,1,1851.343,1399.837Z" transform="translate(-1774.351 -1356.576)" fill="#eaa244"/>
      <path id="Path_3910" data-name="Path 3910" d="M1806.583,1592.847l-55.279-12.818a1.454,1.454,0,0,1-1.088-1.745h0a1.454,1.454,0,0,1,1.745-1.088l55.279,12.818a1.454,1.454,0,0,1,1.088,1.745h0A1.454,1.454,0,0,1,1806.583,1592.847Z" transform="translate(-1731.631 -1540.792)" fill="#eaa244"/>
      <path id="Path_3911" data-name="Path 3911" d="M1761.833,1785.857l-55.279-12.818a1.454,1.454,0,0,1-1.088-1.745h0a1.454,1.454,0,0,1,1.745-1.088l55.279,12.818a1.454,1.454,0,0,1,1.088,1.745h0A1.454,1.454,0,0,1,1761.833,1785.857Z" transform="translate(-1688.919 -1725.009)" fill="#eaa244"/>
      <path id="Path_3912" data-name="Path 3912" d="M1717.073,1978.857l-55.279-12.818a1.454,1.454,0,0,1-1.088-1.745h0a1.454,1.454,0,0,1,1.745-1.088l55.279,12.818a1.454,1.454,0,0,1,1.088,1.745h0A1.454,1.454,0,0,1,1717.073,1978.857Z" transform="translate(-1646.199 -1909.216)" fill="#eaa244"/>
      <path id="Path_3913" data-name="Path 3913" d="M1672.323,2171.867l-55.279-12.818a1.454,1.454,0,0,1-1.088-1.745h0a1.454,1.454,0,0,1,1.745-1.088l55.279,12.819a1.454,1.454,0,0,1,1.088,1.745h0A1.454,1.454,0,0,1,1672.323,2171.867Z" transform="translate(-1603.488 -2093.432)" fill="#eaa244"/>
      <path id="Path_3914" data-name="Path 3914" d="M1627.563,2364.877l-55.279-12.818a1.454,1.454,0,0,1-1.088-1.744h0a1.454,1.454,0,0,1,1.745-1.088l55.279,12.818a1.454,1.454,0,0,1,1.088,1.745h0A1.454,1.454,0,0,1,1627.563,2364.877Z" transform="translate(-1560.767 -2277.649)" fill="#eaa244"/>
      <path id="Path_3915" data-name="Path 3915" d="M1582.8,2557.877l-55.279-12.818a1.454,1.454,0,0,1-1.088-1.745h0a1.454,1.454,0,0,1,1.745-1.088l55.279,12.818a1.454,1.454,0,0,1,1.088,1.745h0A1.454,1.454,0,0,1,1582.8,2557.877Z" transform="translate(-1518.046 -2461.856)" fill="#eaa244"/>
    </g>
    <g id="Group_447" data-name="Group 447" transform="translate(581.083 455.612)">
      <path id="Path_3916" data-name="Path 3916" d="M737.726,900.057l-66.165,10.871a3.83,3.83,0,0,1-4.4-3.158L653.7,825.806a3.83,3.83,0,0,1,3.158-4.4l66.165-10.871a3.83,3.83,0,0,1,4.4,3.158l13.466,81.963A3.831,3.831,0,0,1,737.726,900.057Z" transform="translate(-653.644 -810.484)" fill="#3b82f4"/>
      <path id="Path_3917" data-name="Path 3917" d="M871.238,1126.021l-28.586,4.7a1.453,1.453,0,0,1-1.67-1.2h0a1.454,1.454,0,0,1,1.2-1.67l28.586-4.7a1.453,1.453,0,0,1,1.67,1.2h0A1.454,1.454,0,0,1,871.238,1126.021Z" transform="translate(-832.428 -1108.888)" fill="#b3cef6"/>
      <path id="Path_3918" data-name="Path 3918" d="M930.767,1222.7l-55.995,9.2a1.453,1.453,0,0,1-1.67-1.2h0a1.453,1.453,0,0,1,1.2-1.67l56-9.2a1.453,1.453,0,0,1,1.67,1.2h0A1.454,1.454,0,0,1,930.767,1222.7Z" transform="translate(-863.085 -1201.163)" fill="#b3cef6"/>
      <path id="Path_3919" data-name="Path 3919" d="M962.887,1418.211l-55.995,9.2a1.453,1.453,0,0,1-1.67-1.2h0a1.453,1.453,0,0,1,1.2-1.67l56-9.2a1.453,1.453,0,0,1,1.67,1.2h0A1.455,1.455,0,0,1,962.887,1418.211Z" transform="translate(-893.741 -1387.766)" fill="#b3cef6"/>
      <path id="Path_3920" data-name="Path 3920" d="M995.007,1613.711l-55.995,9.2a1.454,1.454,0,0,1-1.67-1.2h0a1.454,1.454,0,0,1,1.2-1.67l55.995-9.2a1.453,1.453,0,0,1,1.67,1.2h0A1.454,1.454,0,0,1,995.007,1613.711Z" transform="translate(-924.398 -1574.359)" fill="#b3cef6"/>
      <path id="Path_3921" data-name="Path 3921" d="M1027.127,1809.221l-55.995,9.2a1.453,1.453,0,0,1-1.67-1.2h0a1.453,1.453,0,0,1,1.2-1.67l55.995-9.2a1.453,1.453,0,0,1,1.67,1.2h0A1.454,1.454,0,0,1,1027.127,1809.221Z" transform="translate(-955.055 -1760.962)" fill="#b3cef6"/>
      <path id="Path_3922" data-name="Path 3922" d="M1059.247,2004.721l-55.995,9.2a1.453,1.453,0,0,1-1.67-1.2h0a1.453,1.453,0,0,1,1.2-1.67l55.995-9.2a1.453,1.453,0,0,1,1.67,1.2h0A1.454,1.454,0,0,1,1059.247,2004.721Z" transform="translate(-985.711 -1947.555)" fill="#b3cef6"/>
      <path id="Path_3923" data-name="Path 3923" d="M1091.367,2200.231l-55.995,9.2a1.454,1.454,0,0,1-1.67-1.2h0a1.453,1.453,0,0,1,1.2-1.67l55.995-9.2a1.454,1.454,0,0,1,1.67,1.2h0A1.454,1.454,0,0,1,1091.367,2200.231Z" transform="translate(-1016.368 -2134.157)" fill="#b3cef6"/>
      <path id="Path_3924" data-name="Path 3924" d="M1123.487,2395.731l-55.995,9.2a1.453,1.453,0,0,1-1.67-1.2h0a1.454,1.454,0,0,1,1.2-1.67l56-9.2a1.453,1.453,0,0,1,1.67,1.2h0A1.454,1.454,0,0,1,1123.487,2395.731Z" transform="translate(-1047.024 -2320.75)" fill="#b3cef6"/>
      <path id="Path_3925" data-name="Path 3925" d="M1155.607,2591.241l-55.995,9.2a1.453,1.453,0,0,1-1.67-1.2h0a1.453,1.453,0,0,1,1.2-1.67l55.995-9.2a1.453,1.453,0,0,1,1.67,1.2h0A1.454,1.454,0,0,1,1155.607,2591.241Z" transform="translate(-1077.681 -2507.353)" fill="#b3cef6"/>
    </g>
    <path id="Path_3926" data-name="Path 3926" d="M1180.722,832.8a4.12,4.12,0,0,1-4.107-3.893l-4.484-82.941a4.115,4.115,0,0,1,3.887-4.331l66.954-3.619a4.116,4.116,0,0,1,4.331,3.887l4.483,82.941a4.12,4.12,0,0,1-3.887,4.331l-66.954,3.619C1180.871,832.8,1180.8,832.8,1180.722,832.8Zm62.478-94.22c-.065,0-.13,0-.2.005l-66.954,3.619a3.544,3.544,0,0,0-3.348,3.73l4.484,82.941a3.548,3.548,0,0,0,3.731,3.348l66.954-3.619a3.549,3.549,0,0,0,3.348-3.731l-4.483-82.941a3.544,3.544,0,0,0-3.535-3.353Z" transform="translate(-567.421 -285.697)" fill="#fff" stroke="#707070" stroke-width="1"/>
    <g id="Group_452" data-name="Group 452" transform="translate(605.621 449.269)">
      <g id="Group_449" data-name="Group 449" transform="translate(0 0)">
        <g id="Group_448" data-name="Group 448">
          <path id="Path_3927" data-name="Path 3927" d="M1258.683,677.449l-52.326-6.157a3.972,3.972,0,0,0-4.409,3.48l-9.687,82.326a3.972,3.972,0,0,0,3.48,4.409l66.311,7.8a3.972,3.972,0,0,0,4.409-3.48l8.042-68.341Z" transform="translate(-1192.234 -671.264)" fill="#ffba6d"/>
        </g>
      </g>
      <g id="Group_451" data-name="Group 451" transform="translate(64.776 6.185)">
        <g id="Group_450" data-name="Group 450">
          <path id="Path_3928" data-name="Path 3928" d="M2614.051,821a3.972,3.972,0,0,0,3.48,4.409l13.985,1.646L2615.7,807.02Z" transform="translate(-2614.023 -807.02)" fill="#fff"/>
        </g>
      </g>
      <path id="Path_3929" data-name="Path 3929" d="M2677.42,1208.03l14.32,4.185.284-2.415Z" transform="translate(-2609.755 -1183.575)" fill="#cb883e" opacity="0.58"/>
      <path id="Path_3930" data-name="Path 3930" d="M2594.872,815.627l-.822-15.277,2.583.3Z" transform="translate(-2530.184 -794.469)" fill="#cb883e" opacity="0.58"/>
      <path id="Path_3933" data-name="Path 3933" d="M1447.373,2193.752l-56.991-6.707a1.454,1.454,0,0,1-1.274-1.614h0a1.454,1.454,0,0,1,1.614-1.274l56.991,6.706a1.454,1.454,0,0,1,1.274,1.614h0A1.454,1.454,0,0,1,1447.373,2193.752Z" transform="translate(-1380.129 -2115.222)" fill="#1b3244"/>
      <path id="Path_3934" data-name="Path 3934" d="M1410.583,2370.405l-41.211-4.849a1.454,1.454,0,0,1-1.274-1.614h0a1.454,1.454,0,0,1,1.614-1.274l41.211,4.849a1.454,1.454,0,0,1,1.274,1.614h0A1.454,1.454,0,0,1,1410.583,2370.405Z" transform="translate(-1360.076 -2285.599)" fill="#1b3244"/>
    </g>
    <path id="Path_3948" data-name="Path 3948" d="M4.649-5.84V0H1.988V-16.1H6.873a6.471,6.471,0,0,1,4.3,1.292A4.5,4.5,0,0,1,12.7-11.174a5.027,5.027,0,0,1-1.595,3.841A6.055,6.055,0,0,1,6.794-5.84Zm0-8.063v5.885H6.379A3.825,3.825,0,0,0,9-8.816a2.846,2.846,0,0,0,.9-2.246q0-2.841-3.3-2.841ZM15.431,0V-16.1H20.08q8.906,0,8.906,7.85a7.736,7.736,0,0,1-2.471,5.991A9.43,9.43,0,0,1,19.889,0Zm2.662-13.836V-2.257h2.134a5.966,5.966,0,0,0,4.385-1.55,5.886,5.886,0,0,0,1.567-4.38q0-5.649-5.851-5.649Zm22.528,0H34.6V-9h5.548v2.257H34.6V0H31.928V-16.1h8.692Z" transform="translate(626.601 502.865) rotate(8)" fill="#1b3244"/>
  </g>
</svg>
