<svg xmlns="http://www.w3.org/2000/svg" width="154.329" height="124.57" viewBox="0 0 154.329 124.57">
  <g id="Group_444" data-name="Group 444" transform="translate(-328.997 -377.239)">
    <g id="Group_440" data-name="Group 440" transform="translate(328.997 379.128)">
      <path id="Path_3866" data-name="Path 3866" d="M537.162,475.526c14.6-29.081-2.941-69.326-30.3-86.687-30.348-19.254-63.36-4.387-68.954-1.724-19.458,9.267-47.788,33.1-44.078,62.77,4.123,32.971,44.78,48.822,67.446,52.473C467.214,503.316,519.378,510.938,537.162,475.526Z" transform="translate(-388.107 -381.016)" fill="#cbdfff"/>
      <g id="Group_439" data-name="Group 439" transform="translate(0 16.547)">
        <path id="Path_3867" data-name="Path 3867" d="M1107.363,620.046l-2.454-2.452-6.434-6.434v0l0,0h-49.6a2.636,2.636,0,0,0-2.628,2.628v76.443a2.636,2.636,0,0,0,2.628,2.628H1109.2a2.636,2.636,0,0,0,2.628-2.628V624.514Z" transform="translate(-977.826 -606.844)" fill="#232323" opacity="0.1"/>
        <g id="Group_434" data-name="Group 434" transform="translate(68.423 -4.431)">
          <path id="Path_3868" data-name="Path 3868" d="M1081.439,590.446v65.335a2.62,2.62,0,0,1-2.613,2.613h-59.974a2.62,2.62,0,0,1-2.613-2.613v-76a2.62,2.62,0,0,1,2.613-2.613h49.307l4.272,4.272L1077,586Z" transform="translate(-1016.24 -577.169)" fill="#fff"/>
          <path id="Path_3869" data-name="Path 3869" d="M1249.51,701.781h-30.665a2.082,2.082,0,0,1-2.076-2.076h0a2.082,2.082,0,0,1,2.076-2.076h30.665a2.082,2.082,0,0,1,2.076,2.076h0A2.082,2.082,0,0,1,1249.51,701.781Z" transform="translate(-1201.578 -688.504)" fill="#3b82f4"/>
          <path id="Path_3870" data-name="Path 3870" d="M1150.084,831.061h-48.419a2.082,2.082,0,0,1-2.076-2.076h0a2.082,2.082,0,0,1,2.076-2.076h48.419a2.082,2.082,0,0,1,2.076,2.076h0A2.082,2.082,0,0,1,1150.084,831.061Z" transform="translate(-1093.276 -807.99)" fill="#ecf3fe"/>
          <path id="Path_3871" data-name="Path 3871" d="M1150.084,937.841h-48.419a2.082,2.082,0,0,1-2.076-2.076h0a2.082,2.082,0,0,1,2.076-2.076h48.419a2.082,2.082,0,0,1,2.076,2.076h0A2.082,2.082,0,0,1,1150.084,937.841Z" transform="translate(-1093.276 -906.681)" fill="#ecf3fe"/>
          <path id="Path_3872" data-name="Path 3872" d="M1150.084,1044.621h-48.419a2.082,2.082,0,0,1-2.076-2.076h0a2.082,2.082,0,0,1,2.076-2.076h48.419a2.082,2.082,0,0,1,2.076,2.076h0A2.082,2.082,0,0,1,1150.084,1044.621Z" transform="translate(-1093.276 -1005.371)" fill="#ecf3fe"/>
          <path id="Path_3873" data-name="Path 3873" d="M1150.084,1151.4h-48.419a2.082,2.082,0,0,1-2.076-2.076h0a2.082,2.082,0,0,1,2.076-2.076h48.419a2.082,2.082,0,0,1,2.076,2.076h0A2.082,2.082,0,0,1,1150.084,1151.4Z" transform="translate(-1093.276 -1104.062)" fill="#ecf3fe"/>
          <path id="Path_3874" data-name="Path 3874" d="M1150.084,1258.182h-48.419a2.082,2.082,0,0,1-2.076-2.076h0a2.082,2.082,0,0,1,2.076-2.076h48.419a2.082,2.082,0,0,1,2.076,2.076h0A2.082,2.082,0,0,1,1150.084,1258.182Z" transform="translate(-1093.276 -1202.753)" fill="#ecf3fe"/>
          <path id="Path_3875" data-name="Path 3875" d="M1150.084,1364.961h-48.419a2.082,2.082,0,0,1-2.076-2.076h0a2.082,2.082,0,0,1,2.076-2.076h48.419a2.082,2.082,0,0,1,2.076,2.076h0A2.082,2.082,0,0,1,1150.084,1364.961Z" transform="translate(-1093.276 -1301.444)" fill="#ecf3fe"/>
          <path id="Path_3876" data-name="Path 3876" d="M1150.084,1471.741h-48.419a2.082,2.082,0,0,1-2.076-2.076h0a2.082,2.082,0,0,1,2.076-2.076h48.419a2.082,2.082,0,0,1,2.076,2.076h0A2.082,2.082,0,0,1,1150.084,1471.741Z" transform="translate(-1093.276 -1400.134)" fill="#ecf3fe"/>
          <path id="Path_3877" data-name="Path 3877" d="M1710.18,740.56c.227.229.61,1.8,12.628,2.6v-1.706Z" transform="translate(-1657.61 -728.181)" fill="#cecece"/>
          <path id="Path_3878" data-name="Path 3878" d="M1701.61,587.825a2.619,2.619,0,0,0,2.612,2.612h10.665L1701.61,577.16Z" transform="translate(-1649.689 -577.16)" fill="#ededed"/>
        </g>
        <path id="Path_3879" data-name="Path 3879" d="M434.195,893.607l-6.979-41.653h0l-.02-.118-.666-3.972a4.528,4.528,0,0,0-5.2-3.707L359.546,854.51a4.528,4.528,0,0,0-3.707,5.2l.282,1.684h0l7.383,44.058a4.528,4.528,0,0,0,5.2,3.707L430.488,898.8A4.527,4.527,0,0,0,434.195,893.607Z" transform="translate(-353.54 -821.791)" fill="#232323" opacity="0.1"/>
        <g id="Group_436" data-name="Group 436" transform="translate(0 20.889)">
          <path id="Path_3880" data-name="Path 3880" d="M399.75,830.924l7.665,45.743a4.528,4.528,0,0,1-3.707,5.2l-61.785,10.353a4.528,4.528,0,0,1-5.2-3.707l-7.665-45.743a4.528,4.528,0,0,1,3.707-5.2l61.785-10.354A4.528,4.528,0,0,1,399.75,830.924Z" transform="translate(-328.997 -827.155)" fill="#f4b545"/>
          <path id="Path_3881" data-name="Path 3881" d="M403.811,892.42l7.383,44.058a4.528,4.528,0,0,1-3.707,5.2L345.7,952.031a4.528,4.528,0,0,1-5.2-3.707l-7.383-44.058Z" transform="translate(-332.776 -886.967)" fill="#ffdca4"/>
          <path id="Path_3882" data-name="Path 3882" d="M381.091,973.6a1.385,1.385,0,1,1-1.594-1.137A1.384,1.384,0,0,1,381.091,973.6Z" transform="translate(-374.217 -960.301)" fill="#e5a030"/>
          <circle id="Ellipse_4" data-name="Ellipse 4" cx="1.385" cy="1.385" r="1.385" transform="translate(7.094 12.31) rotate(-25.855)" fill="#e5a030"/>
          <circle id="Ellipse_5" data-name="Ellipse 5" cx="1.385" cy="1.385" r="1.385" transform="translate(10.645 11.478) rotate(-17.734)" fill="#ffdca4"/>
          <path id="Path_3883" data-name="Path 3883" d="M489.537,1035.517a.941.941,0,0,1-.155-1.868l6.308-1.057a.94.94,0,0,1,.311,1.855l-6.308,1.057A.888.888,0,0,1,489.537,1035.517Zm12.617-2.115a.941.941,0,0,1-.155-1.868l6.309-1.057a.94.94,0,0,1,.311,1.855l-6.308,1.057A.9.9,0,0,1,502.154,1033.4Zm-15.727-1.313a.941.941,0,0,1-.927-.785l-1.057-6.308a.94.94,0,1,1,1.855-.311l1.057,6.308a.941.941,0,0,1-.772,1.083A.907.907,0,0,1,486.427,1032.089Zm28.344-.8a.941.941,0,0,1-.155-1.868l6.308-1.057a.94.94,0,1,1,.311,1.855l-6.309,1.057A.9.9,0,0,1,514.771,1031.288Zm12.617-2.114a.941.941,0,0,1-.155-1.868l6.308-1.057a.94.94,0,1,1,.311,1.855l-6.308,1.057A.913.913,0,0,1,527.388,1029.174Zm5.721-4.558a.941.941,0,0,1-.927-.785l-1.057-6.308a.94.94,0,1,1,1.855-.311l1.057,6.308a.941.941,0,0,1-.772,1.083A.9.9,0,0,1,533.109,1024.616Zm-48.8-5.145a.941.941,0,0,1-.927-.786l-1.057-6.308a.94.94,0,1,1,1.855-.311l1.057,6.308a.94.94,0,0,1-.772,1.083A.915.915,0,0,1,484.313,1019.472ZM530.995,1012a.941.941,0,0,1-.927-.785l-1.057-6.308a.94.94,0,1,1,1.855-.311l1.057,6.308a.94.94,0,0,1-.772,1.083A.9.9,0,0,1,530.995,1012Zm-48.8-5.145a.941.941,0,0,1-.927-.785l-.822-4.9a.941.941,0,0,1,.773-1.083l1.4-.235a.94.94,0,1,1,.311,1.855l-.476.079.667,3.976a.94.94,0,0,1-.772,1.083A.83.83,0,0,1,482.2,1006.855Zm6.89-6.2a.941.941,0,0,1-.155-1.868l6.308-1.057a.94.94,0,0,1,.311,1.855l-6.309,1.057A.889.889,0,0,1,489.088,1000.658Zm39.793-1.275a.941.941,0,0,1-.927-.785l-.724-4.317-.135.023a.941.941,0,0,1-.312-1.856l1.063-.178a.941.941,0,0,1,1.084.773l.879,5.246a.94.94,0,0,1-.772,1.083A1.105,1.105,0,0,1,528.881,999.383Zm-27.176-.839a.941.941,0,0,1-.155-1.868l6.309-1.057a.94.94,0,1,1,.311,1.855l-6.308,1.057A.9.9,0,0,1,501.7,998.544Zm12.617-2.115a.941.941,0,0,1-.155-1.868l6.308-1.057a.94.94,0,0,1,.311,1.855l-6.309,1.057A.9.9,0,0,1,514.322,996.429Z" transform="translate(-467.783 -978.461)" fill="#f4b545"/>
          <g id="Group_435" data-name="Group 435" transform="translate(33.66 28.357)">
            <path id="Path_3884" data-name="Path 3884" d="M743.156,1170.79l-5.74-4.093c-.005,0-.011,0-.015-.008a.916.916,0,0,0-.221-.112l-.028-.009c-.023-.008-.045-.016-.069-.022a.83.83,0,0,0-.091-.007.983.983,0,0,0-.139-.011,1.358,1.358,0,0,0-.268.045.9.9,0,0,0-.127.055c-.028.014-.058.02-.085.037s-.039.029-.059.043l-.022.016a.933.933,0,0,0-.174.18c0,.005-.008.008-.012.013l-4.093,5.74a.941.941,0,0,0,1.532,1.092l2.775-3.892,1.195,7.13a.94.94,0,0,0,1.855-.311l-1.195-7.13,3.892,2.775a.94.94,0,1,0,1.09-1.532Z" transform="translate(-731.838 -1166.529)" fill="#f4b545"/>
            <path id="Path_3885" data-name="Path 3885" d="M756.51,1299.438l-9.834,1.648a.94.94,0,0,1-1.083-.772l-.368-2.195a.94.94,0,1,1,1.855-.311l.212,1.267,7.978-1.337-.212-1.267a.94.94,0,1,1,1.855-.311l.368,2.195A.939.939,0,0,1,756.51,1299.438Z" transform="translate(-744.095 -1284.609)" fill="#f4b545"/>
          </g>
          <rect id="Rectangle_321" data-name="Rectangle 321" width="71.676" height="2.439" transform="matrix(0.986, -0.165, 0.165, 0.986, 0.346, 17.295)" fill="#fccc92"/>
        </g>
        <rect id="Rectangle_322" data-name="Rectangle 322" width="41.086" height="51.617" transform="translate(69.542 102.403) rotate(-117)" fill="#232323" opacity="0.1"/>
        <g id="Group_437" data-name="Group 437" transform="matrix(0.545, -0.839, 0.839, 0.545, 41.277, 78.151)">
          <rect id="Rectangle_323" data-name="Rectangle 323" width="47.935" height="41.205" transform="matrix(0.866, 0.5, -0.5, 0.866, 20.615, 0)" fill="#fff"/>
          <rect id="Rectangle_324" data-name="Rectangle 324" width="39.488" height="33.943" transform="matrix(0.866, 0.5, -0.5, 0.866, 22.455, 5.256)" fill="#c9f4e9"/>
          <path id="Path_3886" data-name="Path 3886" d="M889.324,1500.527l16.041-4.267,2.676,15.083,10.143-2.679,4.526,13.009-3.59,6.214-34.191-19.755Z" transform="translate(-879.463 -1473.494)" fill="#52d1bd"/>
          <circle id="Ellipse_6" data-name="Ellipse 6" cx="3.05" cy="3.05" r="3.05" transform="translate(34.975 27.416) rotate(-56.804)" fill="#52d1bd"/>
        </g>
        <g id="Group_438" data-name="Group 438" transform="matrix(0.616, 0.788, -0.788, 0.616, 88.719, -16.775)">
          <rect id="Rectangle_325" data-name="Rectangle 325" width="46.592" height="40.05" transform="translate(3.205 16.069) rotate(-17.679)" fill="#232323" opacity="0.1"/>
          <rect id="Rectangle_326" data-name="Rectangle 326" width="46.592" height="40.05" transform="translate(0 14.15) rotate(-17.679)" fill="#fff"/>
          <rect id="Rectangle_327" data-name="Rectangle 327" width="38.381" height="32.991" transform="translate(4.983 16.266) rotate(-17.679)" fill="#78afff"/>
          <path id="Path_3887" data-name="Path 3887" d="M1003.42,1273.665l7.426-14.323,12.594,7.941,4.708-9.043,12.314,5.254,2.118,6.647-36.567,11.658Z" transform="translate(-991.01 -1234.109)" fill="#3b82f4"/>
          <circle id="Ellipse_7" data-name="Ellipse 7" cx="2.964" cy="2.964" r="2.964" transform="translate(28.622 14.5) rotate(-6.655)" fill="#3b82f4"/>
        </g>
      </g>
    </g>
    <path id="Path_3888" data-name="Path 3888" d="M659.963,418.573a.5.5,0,0,1-.086-.007.563.563,0,0,1-.47-.642c.115-.751.253-1.5.409-2.236a.563.563,0,0,1,1.1.234c-.151.712-.285,1.443-.4,2.173A.565.565,0,0,1,659.963,418.573Zm48.666-4.776a.564.564,0,0,1-.55-.444c-.211-.969-.466-1.927-.76-2.847a.563.563,0,0,1,1.072-.343c.306.954.571,1.948.788,2.951a.563.563,0,0,1-.431.669A.523.523,0,0,1,708.629,413.8Zm-47.523-.337a.57.57,0,0,1-.161-.023.563.563,0,0,1-.378-.7c.292-.982.627-1.952.993-2.883a.563.563,0,1,1,1.048.413c-.355.9-.678,1.841-.962,2.792A.563.563,0,0,1,661.106,413.461Zm29.254-3a.563.563,0,0,1-.094-1.118,5.988,5.988,0,0,0,2.055-.744,5.1,5.1,0,0,0,.444-.3.563.563,0,0,1,.679.9,6.225,6.225,0,0,1-.542.367,7.118,7.118,0,0,1-2.445.889A.63.63,0,0,1,690.36,410.456Zm-2.977-.113a.546.546,0,0,1-.141-.018,5.933,5.933,0,0,1-2.845-1.618.563.563,0,0,1,.817-.774,4.821,4.821,0,0,0,2.31,1.3.563.563,0,0,1-.141,1.108Zm19.412-2.252a.563.563,0,0,1-.516-.336,24.85,24.85,0,0,0-1.336-2.612.563.563,0,1,1,.97-.572,26.006,26.006,0,0,1,1.4,2.731.562.562,0,0,1-.288.742A.571.571,0,0,1,706.794,408.091Zm-43.487-.208a.551.551,0,0,1-.253-.061.564.564,0,0,1-.249-.756,30.08,30.08,0,0,1,1.512-2.657.563.563,0,1,1,.948.607,28.956,28.956,0,0,0-1.456,2.559A.562.562,0,0,1,663.307,407.883Zm31.662-.892a.563.563,0,0,1-.506-.81,7.348,7.348,0,0,0,.711-2.678.562.562,0,0,1,1.122.079,8.5,8.5,0,0,1-.821,3.092A.561.561,0,0,1,694.969,406.991Zm-11.378-.8a.563.563,0,0,1-.559-.5,6.157,6.157,0,0,1-.035-.663,7.92,7.92,0,0,1,.442-2.533.563.563,0,1,1,1.066.361,6.791,6.791,0,0,0-.383,2.172,5,5,0,0,0,.028.542.563.563,0,0,1-.5.62A.482.482,0,0,1,683.592,406.2Zm20.144-3.252a.56.56,0,0,1-.441-.213,17.72,17.72,0,0,0-1.981-2.125.563.563,0,1,1,.754-.836,18.689,18.689,0,0,1,2.109,2.261.563.563,0,0,1-.44.912Zm-37.188-.1a.563.563,0,0,1-.436-.918,24.051,24.051,0,0,1,2.082-2.258.563.563,0,1,1,.776.815,23.111,23.111,0,0,0-1.984,2.152A.562.562,0,0,1,666.547,402.842Zm28.741-1.673a.563.563,0,0,1-.516-.337,6.105,6.105,0,0,0-1.667-2.153.563.563,0,0,1,.732-.856,7.2,7.2,0,0,1,1.966,2.557.563.563,0,0,1-.29.741A.555.555,0,0,1,695.288,401.169Zm-9.861-.534a.557.557,0,0,1-.367-.136.563.563,0,0,1-.06-.794,8.683,8.683,0,0,1,2.506-1.976.563.563,0,0,1,.531.993,7.559,7.559,0,0,0-2.183,1.717A.558.558,0,0,1,685.426,400.635Zm13.851-1.662a.556.556,0,0,1-.283-.077,11.183,11.183,0,0,0-2.619-1.121.563.563,0,1,1,.3-1.085,12.292,12.292,0,0,1,2.884,1.232.563.563,0,0,1-.285,1.049Zm-28.385-.246a.563.563,0,0,1-.326-1.022,19.269,19.269,0,0,1,2.651-1.583.563.563,0,1,1,.5,1.01,18.105,18.105,0,0,0-2.5,1.49A.553.553,0,0,1,670.893,398.726Zm19.689-.967a.563.563,0,0,1-.472-.869,17.673,17.673,0,0,0-2.132-.738.563.563,0,1,1,.3-1.085,18.006,18.006,0,0,1,2.905,1.07.558.558,0,0,1,.287.316,14.533,14.533,0,0,1,2.086-.166h0a.563.563,0,0,1,0,1.126,13.366,13.366,0,0,0-2.855.331A.548.548,0,0,1,690.582,397.76Zm-14.323-1.654a.563.563,0,0,1-.157-1.1c.133-.038.266-.076.4-.111a19.572,19.572,0,0,1,2.63-.5.563.563,0,1,1,.136,1.117,18.414,18.414,0,0,0-2.477.47c-.125.033-.25.068-.374.1A.538.538,0,0,1,676.259,396.106Zm8.93-.532a.607.607,0,0,1-.077,0,23.687,23.687,0,0,0-2.924-.215.563.563,0,0,1,.013-1.125,24.96,24.96,0,0,1,3.063.225.563.563,0,0,1-.075,1.12Z" transform="translate(-302.795 -13.839)" fill="#3b82f4"/>
    <path id="Path_3889" data-name="Path 3889" d="M607.574,543.57a7.857,7.857,0,1,0-2.462,10.836A7.857,7.857,0,0,0,607.574,543.57Z" transform="translate(-242.005 -147.339)" fill="#232323" opacity="0.1"/>
    <g id="Group_442" data-name="Group 442" transform="translate(350.135 391.044)">
      <g id="Group_441" data-name="Group 441">
        <circle id="Ellipse_8" data-name="Ellipse 8" cx="7.857" cy="7.857" r="7.857" fill="#3b82f4"/>
      </g>
      <path id="Path_3890" data-name="Path 3890" d="M633.972,567.32l-6.652.1.032,2.183h0l.067,4.469,2.183-.032-.041-2.755,5.05,4.9,1.69-1.74-5.051-4.9L634,569.5Z" transform="translate(-623.531 -563.512)" fill="#fff"/>
    </g>
    <path id="Path_3891" data-name="Path 3891" d="M1594.671,408.671l1.188-.625a.367.367,0,0,1,.532.387l-.227,1.324a.37.37,0,0,0,.105.325l.962.937a.367.367,0,0,1-.2.626l-1.328.193a.369.369,0,0,0-.277.2l-.594,1.2a.367.367,0,0,1-.658,0l-.594-1.2a.365.365,0,0,0-.276-.2l-1.329-.193a.367.367,0,0,1-.2-.626l.962-.937a.365.365,0,0,0,.105-.325l-.227-1.324a.367.367,0,0,1,.532-.387l1.188.625A.37.37,0,0,0,1594.671,408.671Z" transform="translate(-1157.156 -26.463)" fill="#4786d1"/>
    <g id="Group_443" data-name="Group 443" transform="translate(469.392 441.563)">
      <path id="Path_3892" data-name="Path 3892" d="M2012.4,1132.669a3.16,3.16,0,1,1,3.16-3.159A3.163,3.163,0,0,1,2012.4,1132.669Zm0-5.45a2.29,2.29,0,1,0,2.29,2.29A2.293,2.293,0,0,0,2012.4,1127.219Z" transform="translate(-2009.24 -1126.35)" fill="#4786d1"/>
      <circle id="Ellipse_9" data-name="Ellipse 9" cx="1.609" cy="1.609" r="1.609" transform="translate(1.227 4.369) rotate(-76.714)" fill="#4786d1"/>
    </g>
    <circle id="Ellipse_10" data-name="Ellipse 10" cx="1.944" cy="1.944" r="1.944" transform="translate(415.831 497.391) rotate(-80.782)" fill="#4786d1"/>
    <circle id="Ellipse_11" data-name="Ellipse 11" cx="1.944" cy="1.944" r="1.944" transform="translate(370.15 414.312) rotate(-79.461)" fill="#4786d1"/>
  </g>
</svg>
