<svg xmlns="http://www.w3.org/2000/svg" width="132.262" height="133.232" viewBox="0 0 132.262 133.232">
  <g id="Group_454" data-name="Group 454" transform="translate(-577.619 -438.672)">
    <path id="Path_3903" data-name="Path 3903" d="M586.4,529.884a49.1,49.1,0,0,1-8.77-27.18,62.961,62.961,0,0,1,32.088-55.687c28.72-16.159,65.093-7.227,79.533,12.906,23.733,33.087-9.178,100.043-50.4,102.073C619.77,562.936,600.234,549.9,586.4,529.884Z" transform="translate(0 0)" fill="#cbdfff"/>
    <path id="Path_3904" data-name="Path 3904" d="M1364.054,890.265a4.121,4.121,0,0,1-1.4-.246l-63.074-22.753a4.115,4.115,0,0,1-2.474-5.268l28.186-78.133a4.12,4.12,0,0,1,5.268-2.475l63.073,22.753a4.115,4.115,0,0,1,2.474,5.268l-28.185,78.133a4.125,4.125,0,0,1-3.869,2.721Zm-34.888-108.549a3.55,3.55,0,0,0-3.338,2.342l-28.186,78.133a3.545,3.545,0,0,0,2.132,4.537l63.073,22.753a3.544,3.544,0,0,0,4.537-2.132l28.185-78.133a3.544,3.544,0,0,0-2.132-4.537l-63.073-22.753A3.532,3.532,0,0,0,1329.166,781.716Z" transform="translate(-686.473 -326.87)" fill="#545454"/>
    <g id="XMLID_2_" transform="translate(612.586 544.173)">
      <path id="Path_3905" data-name="Path 3905" d="M1355.912,2758.71c-1.967-2.257-4.454-5.447-7.942-4.027a4.677,4.677,0,0,0-2.725,3.17,5.876,5.876,0,0,0,.954,4.4c1.952,3.342,4.765,6.17,7.287,9.08l1.943,2.241c.354.409,1.038-.131.682-.541-2.222-2.564-4.5-5.09-6.653-7.71a21.934,21.934,0,0,1-2.881-4.188,4.206,4.206,0,0,1-.1-4.091,3.775,3.775,0,0,1,3.669-1.834c1.508.182,2.6,1.324,3.568,2.363a85.7,85.7,0,0,1,6.466,7.933c2.008,2.746,3.914,5.565,5.832,8.374a34.717,34.717,0,0,1,2.616,3.929,2.142,2.142,0,0,1,.25,1.673,3.238,3.238,0,0,1-1.918,1.648c-1.315.424-2.575-.489-3.469-1.305a33.587,33.587,0,0,1-3.269-3.591c-2.13-2.6-4.142-5.309-6.2-7.972-.968-1.254-2.394-2.729-2.312-4.452a2.581,2.581,0,0,1,.9-1.872,1.889,1.889,0,0,1,2.221.072,13.084,13.084,0,0,1,3.66,4.033c1.071,1.572,2.13,3.152,3.194,4.729.3.449.985-.094.682-.542-1.085-1.607-2.163-3.22-3.258-4.821a14.327,14.327,0,0,0-3.6-4,2.784,2.784,0,0,0-3.654.081,3.65,3.65,0,0,0-.786,3.72c.521,1.642,1.82,3,2.849,4.333q1.791,2.32,3.581,4.64c1.2,1.553,2.409,3.1,3.729,4.555a11.757,11.757,0,0,0,3.493,2.987,3.546,3.546,0,0,0,3.906-.617,2.789,2.789,0,0,0,.8-3.648,39.324,39.324,0,0,0-2.925-4.409c-1.113-1.631-2.224-3.264-3.354-4.884A110.008,110.008,0,0,0,1355.912,2758.71Z" transform="translate(-1345.116 -2754.332)" fill="#545454"/>
    </g>
    <g id="Group_446" data-name="Group 446" transform="translate(612.492 454.175)">
      <path id="Path_3906" data-name="Path 3906" d="M1411.352,882.57l-65.319-15.146a3.83,3.83,0,0,1-2.866-4.6l18.763-80.915a3.83,3.83,0,0,1,4.6-2.866l65.319,15.146a3.829,3.829,0,0,1,2.866,4.6L1415.948,879.7A3.83,3.83,0,0,1,1411.352,882.57Z" transform="translate(-1343.068 -778.947)" fill="#f9c067"/>
      <path id="Path_3907" data-name="Path 3907" d="M1913.785,1007.563l-28.221-6.544a1.454,1.454,0,0,1-1.088-1.745h0a1.454,1.454,0,0,1,1.745-1.088l28.221,6.544a1.454,1.454,0,0,1,1.088,1.745h0A1.454,1.454,0,0,1,1913.785,1007.563Z" transform="translate(-1859.774 -988.162)" fill="#eaa244"/>
      <path id="Path_3908" data-name="Path 3908" d="M1896.093,1206.837l-55.279-12.818a1.454,1.454,0,0,1-1.088-1.745h0a1.454,1.454,0,0,1,1.745-1.088L1896.75,1204a1.454,1.454,0,0,1,1.088,1.745h0A1.454,1.454,0,0,1,1896.093,1206.837Z" transform="translate(-1817.063 -1172.369)" fill="#eaa244"/>
      <path id="Path_3909" data-name="Path 3909" d="M1851.343,1399.837l-55.279-12.818a1.454,1.454,0,0,1-1.088-1.745h0a1.454,1.454,0,0,1,1.745-1.088L1852,1397a1.454,1.454,0,0,1,1.088,1.745h0A1.455,1.455,0,0,1,1851.343,1399.837Z" transform="translate(-1774.351 -1356.576)" fill="#eaa244"/>
      <path id="Path_3910" data-name="Path 3910" d="M1806.583,1592.847l-55.279-12.818a1.454,1.454,0,0,1-1.088-1.745h0a1.454,1.454,0,0,1,1.745-1.088l55.279,12.818a1.454,1.454,0,0,1,1.088,1.745h0A1.454,1.454,0,0,1,1806.583,1592.847Z" transform="translate(-1731.631 -1540.792)" fill="#eaa244"/>
      <path id="Path_3911" data-name="Path 3911" d="M1761.833,1785.857l-55.279-12.818a1.454,1.454,0,0,1-1.088-1.745h0a1.454,1.454,0,0,1,1.745-1.088l55.279,12.818a1.454,1.454,0,0,1,1.088,1.745h0A1.454,1.454,0,0,1,1761.833,1785.857Z" transform="translate(-1688.919 -1725.009)" fill="#eaa244"/>
      <path id="Path_3912" data-name="Path 3912" d="M1717.073,1978.857l-55.279-12.818a1.454,1.454,0,0,1-1.088-1.745h0a1.454,1.454,0,0,1,1.745-1.088l55.279,12.818a1.454,1.454,0,0,1,1.088,1.745h0A1.454,1.454,0,0,1,1717.073,1978.857Z" transform="translate(-1646.199 -1909.216)" fill="#eaa244"/>
      <path id="Path_3913" data-name="Path 3913" d="M1672.323,2171.867l-55.279-12.818a1.454,1.454,0,0,1-1.088-1.745h0a1.454,1.454,0,0,1,1.745-1.088l55.279,12.819a1.454,1.454,0,0,1,1.088,1.745h0A1.454,1.454,0,0,1,1672.323,2171.867Z" transform="translate(-1603.488 -2093.432)" fill="#eaa244"/>
      <path id="Path_3914" data-name="Path 3914" d="M1627.563,2364.877l-55.279-12.818a1.454,1.454,0,0,1-1.088-1.744h0a1.454,1.454,0,0,1,1.745-1.088l55.279,12.818a1.454,1.454,0,0,1,1.088,1.745h0A1.454,1.454,0,0,1,1627.563,2364.877Z" transform="translate(-1560.767 -2277.649)" fill="#eaa244"/>
      <path id="Path_3915" data-name="Path 3915" d="M1582.8,2557.877l-55.279-12.818a1.454,1.454,0,0,1-1.088-1.745h0a1.454,1.454,0,0,1,1.745-1.088l55.279,12.818a1.454,1.454,0,0,1,1.088,1.745h0A1.454,1.454,0,0,1,1582.8,2557.877Z" transform="translate(-1518.046 -2461.856)" fill="#eaa244"/>
    </g>
    <g id="Group_447" data-name="Group 447" transform="translate(581.083 455.612)">
      <path id="Path_3916" data-name="Path 3916" d="M737.726,900.057l-66.165,10.871a3.83,3.83,0,0,1-4.4-3.158L653.7,825.806a3.83,3.83,0,0,1,3.158-4.4l66.165-10.871a3.83,3.83,0,0,1,4.4,3.158l13.466,81.963A3.831,3.831,0,0,1,737.726,900.057Z" transform="translate(-653.644 -810.484)" fill="#3b82f4"/>
      <path id="Path_3917" data-name="Path 3917" d="M871.238,1126.021l-28.586,4.7a1.453,1.453,0,0,1-1.67-1.2h0a1.454,1.454,0,0,1,1.2-1.67l28.586-4.7a1.453,1.453,0,0,1,1.67,1.2h0A1.454,1.454,0,0,1,871.238,1126.021Z" transform="translate(-832.428 -1108.888)" fill="#b3cef6"/>
      <path id="Path_3918" data-name="Path 3918" d="M930.767,1222.7l-55.995,9.2a1.453,1.453,0,0,1-1.67-1.2h0a1.453,1.453,0,0,1,1.2-1.67l56-9.2a1.453,1.453,0,0,1,1.67,1.2h0A1.454,1.454,0,0,1,930.767,1222.7Z" transform="translate(-863.085 -1201.163)" fill="#b3cef6"/>
      <path id="Path_3919" data-name="Path 3919" d="M962.887,1418.211l-55.995,9.2a1.453,1.453,0,0,1-1.67-1.2h0a1.453,1.453,0,0,1,1.2-1.67l56-9.2a1.453,1.453,0,0,1,1.67,1.2h0A1.455,1.455,0,0,1,962.887,1418.211Z" transform="translate(-893.741 -1387.766)" fill="#b3cef6"/>
      <path id="Path_3920" data-name="Path 3920" d="M995.007,1613.711l-55.995,9.2a1.454,1.454,0,0,1-1.67-1.2h0a1.454,1.454,0,0,1,1.2-1.67l55.995-9.2a1.453,1.453,0,0,1,1.67,1.2h0A1.454,1.454,0,0,1,995.007,1613.711Z" transform="translate(-924.398 -1574.359)" fill="#b3cef6"/>
      <path id="Path_3921" data-name="Path 3921" d="M1027.127,1809.221l-55.995,9.2a1.453,1.453,0,0,1-1.67-1.2h0a1.453,1.453,0,0,1,1.2-1.67l55.995-9.2a1.453,1.453,0,0,1,1.67,1.2h0A1.454,1.454,0,0,1,1027.127,1809.221Z" transform="translate(-955.055 -1760.962)" fill="#b3cef6"/>
      <path id="Path_3922" data-name="Path 3922" d="M1059.247,2004.721l-55.995,9.2a1.453,1.453,0,0,1-1.67-1.2h0a1.453,1.453,0,0,1,1.2-1.67l55.995-9.2a1.453,1.453,0,0,1,1.67,1.2h0A1.454,1.454,0,0,1,1059.247,2004.721Z" transform="translate(-985.711 -1947.555)" fill="#b3cef6"/>
      <path id="Path_3923" data-name="Path 3923" d="M1091.367,2200.231l-55.995,9.2a1.454,1.454,0,0,1-1.67-1.2h0a1.453,1.453,0,0,1,1.2-1.67l55.995-9.2a1.454,1.454,0,0,1,1.67,1.2h0A1.454,1.454,0,0,1,1091.367,2200.231Z" transform="translate(-1016.368 -2134.157)" fill="#b3cef6"/>
      <path id="Path_3924" data-name="Path 3924" d="M1123.487,2395.731l-55.995,9.2a1.453,1.453,0,0,1-1.67-1.2h0a1.454,1.454,0,0,1,1.2-1.67l56-9.2a1.453,1.453,0,0,1,1.67,1.2h0A1.454,1.454,0,0,1,1123.487,2395.731Z" transform="translate(-1047.024 -2320.75)" fill="#b3cef6"/>
      <path id="Path_3925" data-name="Path 3925" d="M1155.607,2591.241l-55.995,9.2a1.453,1.453,0,0,1-1.67-1.2h0a1.453,1.453,0,0,1,1.2-1.67l55.995-9.2a1.453,1.453,0,0,1,1.67,1.2h0A1.454,1.454,0,0,1,1155.607,2591.241Z" transform="translate(-1077.681 -2507.353)" fill="#b3cef6"/>
    </g>
    <path id="Path_3926" data-name="Path 3926" d="M1180.722,832.8a4.12,4.12,0,0,1-4.107-3.893l-4.484-82.941a4.115,4.115,0,0,1,3.887-4.331l66.954-3.619a4.116,4.116,0,0,1,4.331,3.887l4.483,82.941a4.12,4.12,0,0,1-3.887,4.331l-66.954,3.619C1180.871,832.8,1180.8,832.8,1180.722,832.8Zm62.478-94.22c-.065,0-.13,0-.2.005l-66.954,3.619a3.544,3.544,0,0,0-3.348,3.73l4.484,82.941a3.548,3.548,0,0,0,3.731,3.348l66.954-3.619a3.549,3.549,0,0,0,3.348-3.731l-4.483-82.941a3.544,3.544,0,0,0-3.535-3.353Z" transform="translate(-567.421 -285.697)" fill="#545454"/>
    <g id="Group_452" data-name="Group 452" transform="translate(605.621 449.269)">
      <g id="Group_449" data-name="Group 449" transform="translate(0 0)">
        <g id="Group_448" data-name="Group 448">
          <path id="Path_3927" data-name="Path 3927" d="M1258.683,677.449l-52.326-6.157a3.972,3.972,0,0,0-4.409,3.48l-9.687,82.326a3.972,3.972,0,0,0,3.48,4.409l66.311,7.8a3.972,3.972,0,0,0,4.409-3.48l8.042-68.341Z" transform="translate(-1192.234 -671.264)" fill="#fff"/>
        </g>
      </g>
      <g id="Group_451" data-name="Group 451" transform="translate(64.776 6.185)">
        <g id="Group_450" data-name="Group 450">
          <path id="Path_3928" data-name="Path 3928" d="M2614.051,821a3.972,3.972,0,0,0,3.48,4.409l13.985,1.646L2615.7,807.02Z" transform="translate(-2614.023 -807.02)" fill="#fff"/>
        </g>
      </g>
      <path id="Path_3929" data-name="Path 3929" d="M2677.42,1208.03l14.32,4.185.284-2.415Z" transform="translate(-2609.755 -1183.575)" fill="#3a7ec1" opacity="0.2"/>
      <path id="Path_3930" data-name="Path 3930" d="M2594.872,815.627l-.822-15.277,2.583.3Z" transform="translate(-2530.184 -794.469)" fill="#3a7ec1" opacity="0.2"/>
      <path id="Path_3931" data-name="Path 3931" d="M1572.6,886.371l-28.771-3.385a1.454,1.454,0,0,1-1.274-1.614h0a1.454,1.454,0,0,1,1.614-1.274l28.771,3.386a1.454,1.454,0,0,1,1.274,1.614h0A1.453,1.453,0,0,1,1572.6,886.371Z" transform="translate(-1526.588 -870.574)" fill="#52d1bd"/>
      <path id="Path_3932" data-name="Path 3932" d="M1550.673,1072.771l-28.771-3.385a1.454,1.454,0,0,1-1.274-1.614h0a1.454,1.454,0,0,1,1.614-1.274l28.771,3.385a1.454,1.454,0,0,1,1.274,1.614h0A1.454,1.454,0,0,1,1550.673,1072.771Z" transform="translate(-1505.657 -1048.482)" fill="#52d1bd"/>
      <path id="Path_3933" data-name="Path 3933" d="M1447.373,2193.752l-56.991-6.707a1.454,1.454,0,0,1-1.274-1.614h0a1.454,1.454,0,0,1,1.614-1.274l56.991,6.706a1.454,1.454,0,0,1,1.274,1.614h0A1.454,1.454,0,0,1,1447.373,2193.752Z" transform="translate(-1380.129 -2115.222)" fill="#e4ecf9"/>
      <path id="Path_3934" data-name="Path 3934" d="M1410.583,2370.405l-41.211-4.849a1.454,1.454,0,0,1-1.274-1.614h0a1.454,1.454,0,0,1,1.614-1.274l41.211,4.849a1.454,1.454,0,0,1,1.274,1.614h0A1.454,1.454,0,0,1,1410.583,2370.405Z" transform="translate(-1360.076 -2285.599)" fill="#e4ecf9"/>
      <path id="Path_3935" data-name="Path 3935" d="M1478.829,1351.159l-55.7-6.554a1.958,1.958,0,0,1-1.716-2.174l3.444-29.271a1.958,1.958,0,0,1,2.174-1.716l55.7,6.554a1.958,1.958,0,0,1,1.716,2.174L1481,1349.443A1.959,1.959,0,0,1,1478.829,1351.159Z" transform="translate(-1410.959 -1282.264)" fill="#e4ecf9"/>
    </g>
    <circle id="Ellipse_12" data-name="Ellipse 12" cx="14.169" cy="14.169" r="14.169" transform="translate(631.204 497.148)" fill="#3a7ec1" opacity="0.2"/>
    <g id="Group_453" data-name="Group 453" transform="translate(630.37 494.665)">
      <circle id="Ellipse_13" data-name="Ellipse 13" cx="14.169" cy="14.169" r="14.169" transform="translate(0 0)" fill="#f9c067"/>
      <path id="Path_3936" data-name="Path 3936" d="M1930.645,1801.674l-5.6-5.318a1.308,1.308,0,0,0-2.107.442l-2.985,7.124a1.308,1.308,0,0,0,2.412,1.011l1.363-3.253,2.086,9.922a1.308,1.308,0,1,0,2.559-.538l-2.086-9.922,2.557,2.428a1.308,1.308,0,0,0,1.8-1.9Z" transform="translate(-1911.451 -1790.15)" fill="#fff"/>
    </g>
    <circle id="Ellipse_14" data-name="Ellipse 14" cx="2.285" cy="2.285" r="2.285" transform="translate(628.876 525.534) rotate(-76.714)" fill="#f9c067"/>
    <circle id="Ellipse_15" data-name="Ellipse 15" cx="1.657" cy="1.657" r="1.657" transform="translate(633.335 529.911)" fill="#f9c067"/>
    <circle id="Ellipse_16" data-name="Ellipse 16" cx="1.811" cy="1.811" r="1.811" transform="translate(642.728 526.973)" fill="#f9c067"/>
    <circle id="Ellipse_17" data-name="Ellipse 17" cx="1.021" cy="1.021" r="1.021" transform="translate(640.356 533.935)" fill="#f9c067"/>
    <circle id="Ellipse_18" data-name="Ellipse 18" cx="1.223" cy="1.223" r="1.223" transform="translate(628.039 536.551) rotate(-45)" fill="#f9c067"/>
  </g>
</svg>
