<svg xmlns="http://www.w3.org/2000/svg" width="25.32" height="33.76" viewBox="0 0 25.32 33.76">
  <g id="xls" transform="translate(0.25)">
    <g id="Group_64" data-name="Group 64" transform="translate(-0.25)">
      <path id="Path_3736" data-name="Path 3736" d="M14.77,9.217V.25H1.583A1.579,1.579,0,0,0,0,1.833V32.427A1.579,1.579,0,0,0,1.583,34.01H23.737a1.579,1.579,0,0,0,1.583-1.583V10.8H16.352A1.587,1.587,0,0,1,14.77,9.217Z" transform="translate(0 -0.25)" fill="#8bc687"/>
      <path id="Path_3776" data-name="Path 3776" d="M24.071,7.73a1.468,1.468,0,0,0-.43-1.037L17.634.68A1.472,1.472,0,0,0,16.591.25h-.374V8.1h7.854Z" transform="translate(1.249 -0.25)" fill="#c4eec1"/>
    </g>
    <path id="Path_3838" data-name="Path 3838" d="M4.879,0H3.766L2.617-2.055A2.064,2.064,0,0,1,2.5-2.32H2.488q-.035.086-.117.266L1.188,0H.066L1.9-2.816.215-5.6H1.352L2.363-3.711q.1.188.176.375h.012q.113-.246.2-.391L3.8-5.6H4.844L3.117-2.824ZM8.746,0h-3.1V-5.6h.93V-.785H8.746ZM9.3-.223V-1.18A1.478,1.478,0,0,0,9.6-.969a2.369,2.369,0,0,0,.377.158,2.971,2.971,0,0,0,.4.1,2.124,2.124,0,0,0,.367.035,1.567,1.567,0,0,0,.873-.2.643.643,0,0,0,.287-.566.618.618,0,0,0-.1-.346,1,1,0,0,0-.268-.268,2.811,2.811,0,0,0-.4-.232q-.232-.111-.5-.232-.285-.152-.531-.309a2.286,2.286,0,0,1-.428-.346A1.446,1.446,0,0,1,9.4-3.6a1.393,1.393,0,0,1-.1-.559,1.289,1.289,0,0,1,.178-.686,1.5,1.5,0,0,1,.469-.48A2.149,2.149,0,0,1,10.6-5.6a3.144,3.144,0,0,1,.758-.092,3.059,3.059,0,0,1,1.281.2v.918a2.046,2.046,0,0,0-1.227-.344A2.2,2.2,0,0,0,11-4.883a1.225,1.225,0,0,0-.367.129.8.8,0,0,0-.264.23.565.565,0,0,0-.1.34.643.643,0,0,0,.078.324.836.836,0,0,0,.229.25,2.335,2.335,0,0,0,.367.221q.217.107.5.232.293.152.553.32a2.606,2.606,0,0,1,.457.371,1.631,1.631,0,0,1,.313.451,1.325,1.325,0,0,1,.115.564,1.4,1.4,0,0,1-.172.719,1.385,1.385,0,0,1-.463.477,2.062,2.062,0,0,1-.67.266,3.777,3.777,0,0,1-.8.082,3.41,3.41,0,0,1-.346-.021q-.205-.021-.42-.062a3.863,3.863,0,0,1-.406-.1A1.286,1.286,0,0,1,9.3-.223Z" transform="translate(6.684 22.505)" fill="#1b3244"/>
  </g>
</svg>
